<mxfile host="app.diagrams.net" modified="2022-09-27T07:39:47.303Z" agent="5.0 (Windows NT 10.0; Win64; x64) AppleWebKit/537.36 (KHTML, like Gecko) Chrome/105.0.0.0 Safari/537.36" etag="DOrONoG3HgF5Ej34snDR" version="20.3.6" type="github">
  <diagram id="TjNXWAslSA8b6XQWLwOL" name="第 1 页">
    <mxGraphModel dx="1422" dy="905" grid="1" gridSize="10" guides="1" tooltips="1" connect="1" arrows="1" fold="1" page="1" pageScale="1" pageWidth="3300" pageHeight="4681" math="0" shadow="0">
      <root>
        <mxCell id="0" />
        <mxCell id="1" parent="0" />
        <mxCell id="8MNoS9xD9SRCOR3BH1ym-55" style="edgeStyle=orthogonalEdgeStyle;rounded=0;orthogonalLoop=1;jettySize=auto;html=1;exitX=0;exitY=0.75;exitDx=0;exitDy=0;" parent="1" source="8MNoS9xD9SRCOR3BH1ym-2" edge="1">
          <mxGeometry relative="1" as="geometry">
            <mxPoint x="600" y="640" as="targetPoint" />
          </mxGeometry>
        </mxCell>
        <mxCell id="8MNoS9xD9SRCOR3BH1ym-97" value="Redis缓存" style="edgeLabel;html=1;align=center;verticalAlign=middle;resizable=0;points=[];fontSize=10;fontStyle=1" parent="8MNoS9xD9SRCOR3BH1ym-55" vertex="1" connectable="0">
          <mxGeometry x="0.3303" y="-2" relative="1" as="geometry">
            <mxPoint as="offset" />
          </mxGeometry>
        </mxCell>
        <mxCell id="8MNoS9xD9SRCOR3BH1ym-69" style="edgeStyle=orthogonalEdgeStyle;rounded=0;orthogonalLoop=1;jettySize=auto;html=1;exitX=0.25;exitY=0;exitDx=0;exitDy=0;entryX=1.005;entryY=0.674;entryDx=0;entryDy=0;entryPerimeter=0;" parent="1" source="8MNoS9xD9SRCOR3BH1ym-2" target="8MNoS9xD9SRCOR3BH1ym-58" edge="1">
          <mxGeometry relative="1" as="geometry" />
        </mxCell>
        <mxCell id="8MNoS9xD9SRCOR3BH1ym-70" value="注册服务" style="edgeLabel;html=1;align=center;verticalAlign=middle;resizable=0;points=[];fontStyle=1" parent="8MNoS9xD9SRCOR3BH1ym-69" vertex="1" connectable="0">
          <mxGeometry x="-0.6382" y="-4" relative="1" as="geometry">
            <mxPoint as="offset" />
          </mxGeometry>
        </mxCell>
        <mxCell id="8MNoS9xD9SRCOR3BH1ym-76" style="edgeStyle=orthogonalEdgeStyle;rounded=0;orthogonalLoop=1;jettySize=auto;html=1;exitX=1;exitY=0.75;exitDx=0;exitDy=0;entryX=0;entryY=0.5;entryDx=0;entryDy=0;" parent="1" source="8MNoS9xD9SRCOR3BH1ym-2" target="8MNoS9xD9SRCOR3BH1ym-79" edge="1">
          <mxGeometry relative="1" as="geometry">
            <mxPoint x="1040" y="520.75" as="targetPoint" />
          </mxGeometry>
        </mxCell>
        <mxCell id="8MNoS9xD9SRCOR3BH1ym-94" value="工作流引擎" style="edgeLabel;html=1;align=center;verticalAlign=middle;resizable=0;points=[];fontSize=10;fontStyle=1" parent="8MNoS9xD9SRCOR3BH1ym-76" vertex="1" connectable="0">
          <mxGeometry x="-0.1718" y="2" relative="1" as="geometry">
            <mxPoint as="offset" />
          </mxGeometry>
        </mxCell>
        <mxCell id="8MNoS9xD9SRCOR3BH1ym-89" style="edgeStyle=orthogonalEdgeStyle;rounded=0;orthogonalLoop=1;jettySize=auto;html=1;exitX=0.5;exitY=0;exitDx=0;exitDy=0;entryX=0;entryY=0.5;entryDx=0;entryDy=0;fontSize=10;" parent="1" source="8MNoS9xD9SRCOR3BH1ym-2" target="8MNoS9xD9SRCOR3BH1ym-83" edge="1">
          <mxGeometry relative="1" as="geometry" />
        </mxCell>
        <mxCell id="8MNoS9xD9SRCOR3BH1ym-91" value="日志收集" style="edgeLabel;html=1;align=center;verticalAlign=middle;resizable=0;points=[];fontSize=10;fontStyle=1" parent="8MNoS9xD9SRCOR3BH1ym-89" vertex="1" connectable="0">
          <mxGeometry x="-0.4563" y="-1" relative="1" as="geometry">
            <mxPoint as="offset" />
          </mxGeometry>
        </mxCell>
        <mxCell id="8MNoS9xD9SRCOR3BH1ym-92" style="edgeStyle=orthogonalEdgeStyle;rounded=0;orthogonalLoop=1;jettySize=auto;html=1;exitX=0.5;exitY=1;exitDx=0;exitDy=0;fontSize=10;" parent="1" source="8MNoS9xD9SRCOR3BH1ym-2" target="8MNoS9xD9SRCOR3BH1ym-84" edge="1">
          <mxGeometry relative="1" as="geometry" />
        </mxCell>
        <mxCell id="8MNoS9xD9SRCOR3BH1ym-95" style="edgeStyle=orthogonalEdgeStyle;rounded=0;orthogonalLoop=1;jettySize=auto;html=1;exitX=1;exitY=0.25;exitDx=0;exitDy=0;fontSize=10;" parent="1" source="8MNoS9xD9SRCOR3BH1ym-2" target="8MNoS9xD9SRCOR3BH1ym-80" edge="1">
          <mxGeometry relative="1" as="geometry" />
        </mxCell>
        <mxCell id="8MNoS9xD9SRCOR3BH1ym-96" value="&lt;span style=&quot;font-weight: 700;&quot;&gt;收集&lt;/span&gt;&lt;span style=&quot;font-weight: 700; color: rgb(77, 77, 77); font-family: -apple-system, &amp;quot;SF UI Text&amp;quot;, Arial, &amp;quot;PingFang SC&amp;quot;, &amp;quot;Hiragino Sans GB&amp;quot;, &amp;quot;Microsoft YaHei&amp;quot;, &amp;quot;WenQuanYi Micro Hei&amp;quot;, sans-serif, SimHei, SimSun; text-align: start;&quot;&gt;Endpoint(端点)&lt;/span&gt;&lt;span style=&quot;font-weight: 700;&quot;&gt;信息&lt;/span&gt;" style="edgeLabel;html=1;align=center;verticalAlign=middle;resizable=0;points=[];fontSize=10;" parent="8MNoS9xD9SRCOR3BH1ym-95" vertex="1" connectable="0">
          <mxGeometry x="-0.1489" y="1" relative="1" as="geometry">
            <mxPoint as="offset" />
          </mxGeometry>
        </mxCell>
        <mxCell id="8MNoS9xD9SRCOR3BH1ym-2" value="" style="rounded=0;whiteSpace=wrap;html=1;" parent="1" vertex="1">
          <mxGeometry x="700" y="340" width="230" height="240" as="geometry" />
        </mxCell>
        <mxCell id="8MNoS9xD9SRCOR3BH1ym-3" value="后端服务统一api" style="text;html=1;strokeColor=none;fillColor=none;align=center;verticalAlign=middle;whiteSpace=wrap;rounded=0;fontStyle=1" parent="1" vertex="1">
          <mxGeometry x="750" y="350" width="115" height="20" as="geometry" />
        </mxCell>
        <mxCell id="8MNoS9xD9SRCOR3BH1ym-8" value="" style="rounded=0;whiteSpace=wrap;html=1;dashed=1;" parent="1" vertex="1">
          <mxGeometry x="715" y="380" width="185" height="190" as="geometry" />
        </mxCell>
        <mxCell id="8MNoS9xD9SRCOR3BH1ym-12" value="&lt;div class=&quot;lake-content&quot;&gt;&lt;p style=&quot;margin: 0; padding: 0; min-height: 24px; text-align: left&quot; class=&quot;ne-p&quot; id=&quot;ufa049f4d&quot;&gt;低代码模块系统&lt;/p&gt;&lt;/div&gt;" style="text;html=1;strokeColor=none;fillColor=none;align=center;verticalAlign=middle;whiteSpace=wrap;rounded=0;fontStyle=1" parent="1" vertex="1">
          <mxGeometry x="722.5" y="390" width="170" height="30" as="geometry" />
        </mxCell>
        <mxCell id="8MNoS9xD9SRCOR3BH1ym-17" value="用户模块" style="rounded=0;whiteSpace=wrap;html=1;fontStyle=1" parent="1" vertex="1">
          <mxGeometry x="722.5" y="430" width="167.5" height="20" as="geometry" />
        </mxCell>
        <mxCell id="8MNoS9xD9SRCOR3BH1ym-18" value="业务模块" style="rounded=0;whiteSpace=wrap;html=1;fontStyle=1" parent="1" vertex="1">
          <mxGeometry x="722.5" y="460" width="167.5" height="20" as="geometry" />
        </mxCell>
        <mxCell id="8MNoS9xD9SRCOR3BH1ym-19" value="持久层模块" style="rounded=0;whiteSpace=wrap;html=1;fontStyle=1" parent="1" vertex="1">
          <mxGeometry x="722.5" y="490" width="167.5" height="20" as="geometry" />
        </mxCell>
        <mxCell id="8MNoS9xD9SRCOR3BH1ym-21" value="工具模块" style="rounded=0;whiteSpace=wrap;html=1;fontStyle=1" parent="1" vertex="1">
          <mxGeometry x="722.5" y="520" width="167.5" height="20" as="geometry" />
        </mxCell>
        <mxCell id="8MNoS9xD9SRCOR3BH1ym-24" style="edgeStyle=orthogonalEdgeStyle;rounded=0;orthogonalLoop=1;jettySize=auto;html=1;entryX=0;entryY=0.5;entryDx=0;entryDy=0;" parent="1" source="8MNoS9xD9SRCOR3BH1ym-23" target="8MNoS9xD9SRCOR3BH1ym-2" edge="1">
          <mxGeometry relative="1" as="geometry" />
        </mxCell>
        <mxCell id="8MNoS9xD9SRCOR3BH1ym-51" style="edgeStyle=orthogonalEdgeStyle;rounded=0;orthogonalLoop=1;jettySize=auto;html=1;exitX=0.5;exitY=1;exitDx=0;exitDy=0;entryX=0.5;entryY=0;entryDx=0;entryDy=0;entryPerimeter=0;" parent="1" source="8MNoS9xD9SRCOR3BH1ym-23" target="8MNoS9xD9SRCOR3BH1ym-53" edge="1">
          <mxGeometry relative="1" as="geometry">
            <mxPoint x="465" y="650" as="targetPoint" />
          </mxGeometry>
        </mxCell>
        <mxCell id="8MNoS9xD9SRCOR3BH1ym-52" value="Shiro鉴权" style="edgeLabel;html=1;align=center;verticalAlign=middle;resizable=0;points=[];fontStyle=1" parent="8MNoS9xD9SRCOR3BH1ym-51" vertex="1" connectable="0">
          <mxGeometry x="-0.1441" y="-1" relative="1" as="geometry">
            <mxPoint as="offset" />
          </mxGeometry>
        </mxCell>
        <mxCell id="8MNoS9xD9SRCOR3BH1ym-64" style="edgeStyle=orthogonalEdgeStyle;rounded=0;orthogonalLoop=1;jettySize=auto;html=1;exitX=0.25;exitY=0;exitDx=0;exitDy=0;entryX=0;entryY=0.25;entryDx=0;entryDy=0;" parent="1" source="8MNoS9xD9SRCOR3BH1ym-23" target="8MNoS9xD9SRCOR3BH1ym-58" edge="1">
          <mxGeometry relative="1" as="geometry" />
        </mxCell>
        <mxCell id="8MNoS9xD9SRCOR3BH1ym-66" value="注册服务" style="edgeLabel;html=1;align=center;verticalAlign=middle;resizable=0;points=[];fontStyle=1" parent="8MNoS9xD9SRCOR3BH1ym-64" vertex="1" connectable="0">
          <mxGeometry x="-0.0835" relative="1" as="geometry">
            <mxPoint as="offset" />
          </mxGeometry>
        </mxCell>
        <mxCell id="8MNoS9xD9SRCOR3BH1ym-23" value="" style="rounded=0;whiteSpace=wrap;html=1;" parent="1" vertex="1">
          <mxGeometry x="330" y="366.25" width="210" height="187.5" as="geometry" />
        </mxCell>
        <mxCell id="8MNoS9xD9SRCOR3BH1ym-40" value="" style="edgeStyle=orthogonalEdgeStyle;rounded=0;orthogonalLoop=1;jettySize=auto;html=1;entryX=0;entryY=0.5;entryDx=0;entryDy=0;fontStyle=1" parent="1" source="8MNoS9xD9SRCOR3BH1ym-39" target="8MNoS9xD9SRCOR3BH1ym-23" edge="1">
          <mxGeometry relative="1" as="geometry">
            <Array as="points">
              <mxPoint x="280" y="460" />
              <mxPoint x="280" y="460" />
            </Array>
          </mxGeometry>
        </mxCell>
        <mxCell id="8MNoS9xD9SRCOR3BH1ym-39" value="" style="shape=image;html=1;verticalLabelPosition=bottom;verticalAlign=top;imageAspect=0;image=img/clipart/Gear_128x128.png" parent="1" vertex="1">
          <mxGeometry x="240" y="427.5" width="50" height="60" as="geometry" />
        </mxCell>
        <mxCell id="8MNoS9xD9SRCOR3BH1ym-41" value="nginx" style="text;html=1;strokeColor=none;fillColor=none;align=center;verticalAlign=middle;whiteSpace=wrap;rounded=0;fontStyle=1" parent="1" vertex="1">
          <mxGeometry x="235" y="503" width="60" height="30" as="geometry" />
        </mxCell>
        <mxCell id="8MNoS9xD9SRCOR3BH1ym-42" value="" style="shape=curlyBracket;whiteSpace=wrap;html=1;rounded=1;flipH=1;" parent="1" vertex="1">
          <mxGeometry x="200" y="350" width="20" height="220" as="geometry" />
        </mxCell>
        <mxCell id="8MNoS9xD9SRCOR3BH1ym-43" value="" style="html=1;verticalLabelPosition=bottom;labelBackgroundColor=#ffffff;verticalAlign=top;shadow=0;dashed=0;strokeWidth=1;shape=mxgraph.ios7.misc.iphone;strokeColor=#c0c0c0;" parent="1" vertex="1">
          <mxGeometry x="110" y="362.5" width="50" height="85" as="geometry" />
        </mxCell>
        <mxCell id="8MNoS9xD9SRCOR3BH1ym-44" value="" style="fontColor=#0066CC;verticalAlign=top;verticalLabelPosition=bottom;labelPosition=center;align=center;html=1;outlineConnect=0;fillColor=#CCCCCC;strokeColor=#6881B3;gradientColor=none;gradientDirection=north;strokeWidth=2;shape=mxgraph.networks.pc;" parent="1" vertex="1">
          <mxGeometry x="90" y="483.75" width="70" height="70" as="geometry" />
        </mxCell>
        <mxCell id="8MNoS9xD9SRCOR3BH1ym-45" value="负载均衡&lt;br&gt;Ribbon" style="rounded=0;whiteSpace=wrap;html=1;fillColor=#dae8fc;strokeColor=#6c8ebf;fontStyle=1" parent="1" vertex="1">
          <mxGeometry x="560" y="420.5" width="100" height="27" as="geometry" />
        </mxCell>
        <mxCell id="8MNoS9xD9SRCOR3BH1ym-46" value="服务限流熔断&lt;br&gt;Sentinel" style="rounded=0;whiteSpace=wrap;html=1;fillColor=#dae8fc;strokeColor=#6c8ebf;fontStyle=1" parent="1" vertex="1">
          <mxGeometry x="560" y="471.5" width="100" height="31.5" as="geometry" />
        </mxCell>
        <mxCell id="8MNoS9xD9SRCOR3BH1ym-47" value="GetWay(网关)" style="rounded=0;whiteSpace=wrap;html=1;fillColor=#fff2cc;strokeColor=#d6b656;fontStyle=1" parent="1" vertex="1">
          <mxGeometry x="425" y="440.25" width="90" height="43.5" as="geometry" />
        </mxCell>
        <mxCell id="8MNoS9xD9SRCOR3BH1ym-50" value="JWT" style="rounded=0;whiteSpace=wrap;html=1;fillColor=#f0a30a;fontColor=#000000;strokeColor=#BD7000;fontStyle=1" parent="1" vertex="1">
          <mxGeometry x="340" y="439.75" width="60" height="35.5" as="geometry" />
        </mxCell>
        <mxCell id="8MNoS9xD9SRCOR3BH1ym-53" value="" style="fontColor=#0066CC;verticalAlign=top;verticalLabelPosition=bottom;labelPosition=center;align=center;html=1;outlineConnect=0;fillColor=#CCCCCC;strokeColor=#6881B3;gradientColor=none;gradientDirection=north;strokeWidth=2;shape=mxgraph.networks.secured;" parent="1" vertex="1">
          <mxGeometry x="406.25" y="620" width="57.5" height="60" as="geometry" />
        </mxCell>
        <mxCell id="8MNoS9xD9SRCOR3BH1ym-57" value="" style="shape=image;verticalLabelPosition=bottom;labelBackgroundColor=default;verticalAlign=top;aspect=fixed;imageAspect=0;image=data:image/png,iVBORw0KGgoAAAANSUhEUgAAAXAAAACtCAYAAACpziR6AAAgAElEQVR4nOy9aZAd13Xn+bv35vbWelWFQmEHCIILuAvcRFmULVqy1dbSCs1Y3Z6JaXs8Ew6NZnqiwxH+OF/m60Q7rImwPBMjt+2mtdhtrS1ToimLpCCSIEGCIECCAIh9LdReb8/l3jsfMvPVggI3SBTLzB8DfK/eki/zZub/nnvuOecKa62loKCgoGDNIX/VO1BQUFBQ8O4oBLygoKBgjVIIeEFBQcEapRDwgoKCgjVKIeAFBQUFa5RCwAsKCgrWKIWAFxQUFKxRCgEvKCgoWKMUAl5QUFCwRikEvKCgoGCNUgh4QUFBwRqlEPCCgoKCNUoh4AUFBQVrlELACwoKCtYohYAXFBQUrFEKAS8oKChYoxQCXlBQULBGKQS8oKCgYI1SCHhBQUHBGqUQ8IKCgoI1SiHgBQUFBWuUQsALCgoK1iiFgBcUFBSsUQoBLygoKFijFAJeUFBQsEYpBLygoKBgjVIIeEFBQcEapRDwgoKCgjVKIeAFBQUFa5RCwAsKCgrWKIWAFxQUFKxRCgEvKCgoWKMUAl5QUFCwRnF+1TuwlrHWrvq6EOI93pOCgoIPIoWAvwuuJdwr3y+EvKCg4JdJIeDXQWGBFxQU/CopfOAFBQUFa5TCAn8T3spVUlBQUPCrpLDAr0Eu3u9ExIUQhfukoKDgPaOwwN8Ea+2qAl6IdEFBwfuBwgIvKCgoWKMUAn4dFC6TgoKCXyWFC+Ua5O4TYwxSpv1cLtYr3Spv109eiH1BQcEvkvedgL8dMVwppCL/ilwukCu39W4F1BiTbl6uNmBZ+htvvf10n/JEH7lsHxf379rbXP3zBQUFH0TeNwJ+LeG21l4lVFcJd47JIkd+CbpmrSVJksHf+T4JIUBYpBCkwvvmP26tAczgu1cLsk0/IywWAQgkctX2+UV1UAUFBWuT942A51zlnjA29dQveVkuscCXiXguqtmfBgsWZK7o+Rsik9rcoB5sw2R/GKROQGuUMTD4l24PK1JrXwhQEqQEqUApEBIrxHIpF2CxGECjc/sbZUXe5wA23V9M1jNZFu3xxYMsLPCCgoKc6xLw6010uZZlfdVzk9miuXBrs+r3yb9jM0tWivQ1DRixaCBLlh+5ANMNkcqC70O4AO0mNJt0jh/n0ukz9OYXuHLmPK4WOAaMkIihGjvvvovNN92KrVRhqI4YHkaUy2ht0klOmVroiU3QEowQWCTWSKQFmcm0FQJDAhgEAgmobFettQjEW7b3O7XI32p7RQdRUPD+RtjrUOFfpIDnk4b5NnO/s1j2efmmDgohRPa+hEy3rQEnN6xtamNrmWm5hV5znooENVSFzhwsTLFw9BCTJ99g3z8+Rm9qmvbsLDXPR7d6uBpcIzAoTKXMpWYLb3gdG3ffxn2f/ASbbtvN0K6bUmu8MQzWEOuIEI0NHEQQkKDAushE4CwZFWg0QhocoRBYFOnxCJs+roxLX90nv3r7rkYh4AUFa5v3jYAbY5ZtLxdwa21qxZIKOICxZtnfK33eQijQqXAbC7GEREICIEBa8LQlMBrQMHkFc/oN3vj5kxx+8gkmjx+hbDQ1v4wnFUoKhLHoKMbGGscKrJFY4WKVRyQUHQstAf7oCDfffTcP/qvfwbv1NhgehkYVXEnkSELXoS/SIYCXgGvTjiT1dqeeGaUGLQykx79aUtFKgX2rv1dSCHhBwdrmfSfgS4V78DgQ8NS3nPuwB/uxRGcsAikdpAY3Ti3w0EmtboTBMRpfG0ScwPnznHppP6/ufZrpY68xd+wwlX6HW8dH6c/OEXglrAGjDVJIlKNQUiGtQMeWJBFIxwfl0DeWZhyiymWmmgv0S2X8Xbew+6MP86Fff5jali2wdTM4DolSJNLBGIkldZMIQGWudSlBZCJurEXI1cMaV7ZjIeAFBR8srkvAf1Hk4qS1Xj19fUl4YDr5KK4p4MZCklhEYqlXfOyCJtQhQeBA2cMeO8qV148x/fpRnv/BD+lcusTC5EV8IraN1RnyJDUlsP0+uhcj4nQSVEmVWvz5JKVwMNIDx8FKiRHQ7LSoDdVASqZbbfoyoI1E1htsue1O7vvN36I0voH67ttg0zj4CsqSfk9zZXKK0bFxPE/gOamrx1jAWkQ2oVlY4AUFBUtZEwIuhFgm0qsJixl8J3VGBEZCK0zVvTUPk5c4uPefOfPKS5x6+QB2epaNwiEwBqnACI2VCWHYRQpL1Q+oqwBXS6S2oC1Cm3Se1CoiIei5LsZ1cF0HR0nmZq5QKfl4roOwFiEk3cQw04npCp+O8Ni2+y5u/dC9bL3vHqofuxfWN6BchlaHSCgSobBK4nhuaon/kgX8Wid/6aRxQUHB+5M1IeByhZBIkfpQlsz/pY9S0e/2aLdaOPMdGgt9OH2O488/y7ED+5g+dwzH9FAiou4oRqxCaksPQagUPSXZvGsXiSM5e+oMqhvja/AsqMTgG4FjJI6WJL7PQs2jr8BGMcQRG0frxJ0mJuwRKE3gJBhr6CcO3Ugx27YYVaEdQWnrBvzbNrPl3ju488EHqW7bAevHQToYN3WzIBRCSqSU1xTw1cIK83jyRQFeXYjNW5z6le1eUFDw/uJXIOCLVp/JnlljwWYJLMZmVm5qSVvIXCipJaqsRaWbYVDKxRgwGjwPLl5k4o036J4+x3N/9XW4NIHoNKkpQyAiMD0i28OxhhoOSjjE0qPneCw4Dnf8+se49aMPwcgIT333B1w+dYaJN04RxJZN9RH8ROAYRdeRvNK6gj8+wubxccbrVR649RbOHnqFC4cPU7IRZTdGCgvCRxsPKypYWWJuoceVXgs9ViKu+QTr13HzA/dzx8MPM7RjO2zfljrBy7XMGZ7FnFuyGPPsnwBtzEBoc8Fe/Dtv87Qtl0X9kHWc19BoYZdG9RR80FitnPJbRT1daxtQjOZ+WbyHk5jZBZElrFjS0OxsQ2nuitZIm4bNYRWg0EKQqPRbca+NZxLKjgelSpqJEyaQxHDiDU499VNOv7ifY/ueRU9NsWt4mFKSoKxBWoNEIzBYYRDW0mt1MJHlhm030tSW81HIpC/5zH/4EuOf/zRgCU+d4/BP9nL2pVeZP3OR+UtT+K7PuptuQO8YY8eeO7j9jltpjI3BzBzf+z/+TzhxnhvqQ4S9hVRqpUNiwFiJtgKkkwqossTK0nclHU9yKeywcfdN3PsbD7P1rrsItu2CjVuhWodOF/xymjCEIMrCJFkSWilEeqPITHgXLfJ0mvTqxNV3ZoGvvAWLm/JfLivDenOSJMH3fbTWNJtNms0mAPV6neHhYbTWhGFIuVy+Kq9DSsnMzAxaa9atW4eUkjAMmZ6eZm5uju3bt+N5HkIIwjCkVqu9p8e8FnmPo1Ay4cZiBOjs70FGpTFpRIaVaeyzVVhAS4sgwdERThRCokG6sNDl9Asv8voze2meOMaVAy8yHPcZlTASuNgkTGXrqt0UKKUQSJJQ41ufZpQQNeocC9vs/vxv88j/9O+QO7cDEkIJpy8xfeIM3fkmbhBQ3bye2h07oepCxYfLE7zwt3/P/q//AzuampuGRplvzoBIo2q00Vhjs6gSkYYyWjDCErmCngNdF1okzPbb2NoQ93z8U2y6+TZ23XsfbNsBQ43UCteaHoLEcxGej0Sk/2XinbuY5LLoHXHVXMI7mcTMM17FNd4v+JfFyqgwAMdxMMZw6tQpnnjiCd544w2iKALA8zy++MUvcs8991Aqlej1evi+P/ju0oW+rbVEUcRjjz3Gk08+ycLCAlEUsXHjRj72sY/xyCOP0Gg00FqjFmNqC1bhPU6lz4Zg+fCM1Ao3WKxMsxtTF4FFWfC1xjEWzyQokxBOTuC4Lvb0Wc68eJAXf/TPtC9cpHn5AjU0N3qSMoYgjkH3STyJcfIgvZz0eZLEGC0I3BI6htLICMbzaE1cZu+Pfoq//UYe/tKdUB8C4YJbY92um9N9912ol5iauYgxMeN+jXanx2tHjhF1Y0gUly9N4NY9jBAIMreQTEcXuYWsM0e+MhAkUPZ8SrGgFPu4XYdX/79vcmrdOK/tuIFbP/oRbvn1h2HLZsSWzZQ9h56CkASLg7ACZSVWZKn9g3a2S30py3ir7reQ5w82QohlbpMoinjjjTf4zne+w3PPPUe328XzvMF7cRzT6/V45JFHVp2vieMY3/e5dOkSe/fu5c/+7M/wPI+RkRH6/T4XLlzg9ddf58yZM/zxH/8xxphCwN+CX4iAvyNLjnRobvNMQ2uRCIxZjLSwwuIaQynWkCRgEkgSoteO8sJTT3Pw6afpnbvIBqsY0poxCYEUVDB4TpaFKSGSi1mXK/YIXI/yUA3XLXP29AUsgkTWUBvWo2slgpExen3oE+NIQ23dGAtzTfxSgBt4WKEpja6n35oD4XHu4gTPvfQy68MQO7qJuNsllglCWKRNRwHSpF3YoARL1izSgooN4fQCjoBR6SB7CcONdfTChNPPv8DZw6/yX7/1Le742MPs+fjHGbvtFko330jJcUBqLA5GgpEiT0RNre6V58osN6XfLAqloGAp3W6Xn/3sZzz++ONUKhUajQb1eh2AZrPJyy+/zNTUFBs2bGDXrl1Xfd91XQBeeeUVvvrVr+L7Phs2bCCOY0ZGRhgdHeXcuXPs3buXHTt28IUvfGHVvIeCRd6VgL/T9SIXKwpm9UGyWh9JHGOiCGnBVwqrNWHYp1IpYZst6EZwaYJTzz7DM489xtypk5S1ZthoNiGooPGlQQqDEgaLJkIjXIEWIq2FQipGFmgMDSGEpNlsMzE5S//KLEPjm2iWfYLN69nxkQe589ZdbLz3HkZuvIVIlfBkCeU6RBH4QQ20xbQ1Ak01KCPjNp0LM1RKQ/z6pz/L7NHjPLnveXYODXFDo4ET9onCPqDxELgsFroauCWy7NCK8jJ3ksVqjSYhUJKdY0OEymFifp5LT/yUK8/tR1fK3Pc7v8VND9xP6b77EK6HKlVQjiZEEQtQSJSUqGzC8yqfd+ECKbgGKyOcAC5cuMAzzzzD+vXrAVBK0ev1gFSch4eHmZ6e5tChQ+zevXuZ+yX/PMDBgwdpNpvceOONJEky8HlHUcTIyAgTExMcPXqUqakpRkdHV61IWpDyi7HAzZITvUo7pxdDnmGZibi1NKcuMVypIIJyOtyfn8dpt2kdn2Xh/AUOPv4Tzh14hdbZs2wsl9hiDL7VSJvgYnGNxhFpBIscyKJKXTHYdELULFqZs1em6PVClHIZHxunsWUbW2+7g7Hbboc7b4cdWyBwoRRgnTIlWwLrEMYJYWJBKaQUqVs71iRzbUrSR4zWqIysY/udd8O507z8z09w5fBhZl5+BdltEXfa1FwPT/mgF9PmlzZX6rdO7WaLxQqDEemHHQQYh7u2bqTVjZhbmGfhymVe/Ov/xCs//C6NG25g5wMPsvPDv4a3eQv+pk24jkMsnNQ9lUWUsKIkQR4HXtwcBW+Ht7pOyuUy09PTdDqdVT+rtWZ6eppWq8WGDRuuel9KSRAE+L7PmTNn3tZvftC5PgG3eS8tMNZcM254tRR510aM1FzwLTSn4PxlksvTXD5+koPP7uPSiZNcPnWaLUND3DI0hG01afguQloSmcVUJIDJ7HkrBjVFwKYWuU0jTnKHQtkNKFuHcrlGZWycWz7xmzC2Dm67I32cnYFaHWSA0AKiPhDhVxykJ+mqhAiLQuG6ioqtpj/Ymk97irgPWzfyod//7+DkCTh7ns6+Fzj0wovMX7oCsU1T5U1qceeTihYwErTIC9parDRoEqwwWATGxszMXcbiUAk86qUyOpxHtfpceeE8h868wf7HH+emhz7KXQ//BrVbbsUON4hLJRxHpcNQ+1Y3xCAsaPD/tBJi2rcsRrsUN9UHgV/0eRZC0G63abVaq24796dLKYtr7G3y7gV8cEPn4WkSIwTamMVwtixiGSzCGoQ2SJ1FnCQxdENoTrCw/wD7f/IkZw4eJp5dQEYxtSDAU4px5VCx0I0TyuUgnfhTAoMGBFpbRDoDmkVjpNmLYLIsxnQBhVRn29TrDXQsOHP6HIe+9p9oKcmWW3bTRtBzHbyREWrrNzJUG2GdW6U2ug5vx0aqN+0g2DhKX0mEcHBiDZ0o9dGHPQg70JqjMztJpeLRPn+W6kKTSqXCnXfcwUkUM2cvLradBa0TlKMWRVxklW+zsrMGgc1L6BqwRiORKKPxhWV8ZIRWex7Xkego5PSJY7w+PcORJ59k9Nbd3PTIx1l3081svHEn+F6a8akERkmMlQhUmuO5xB+e/pzAZm22WIO34IPOW4lqt9ulUqlQqVRWda/mFrYxhsuXL3PjjTcue991XbTWRFGEzBLYCt6cdyzgeciftTZdeyCvUy0kk9Nz1IYbWAGdVouhkkfUbaOkoF6tpT/XbEGzS/ja65x75lmOP/MM3SuX6U9PMV7ycDAI10EZjesHqF4fjKBeqhDHhtga+joitgnW6oG2CCuQVmSlV9OLp1apIiyDqI9yrUInjAl1hFYObixoJILOK8cJggpzV6ZoK7is0onU0VqDVhxzRWj+9f/+v/Kh//F/QAPl2gi0Q3jjPE89+nXmJi9R9R3OnzhG3G0S9jt4JPg6xLeGwDoESAKb+v8RZKv7WMIwxC+VcD2HBEuYxIQ2ptePSDB4gU+5VMJzPOJQY0KDDROEgOZcHyl9ykIQdkO2uA7dzhydhSkWJs/z/L69RH7A7oce4oHf+W0qN+2EzRuRtSqtdp+h2gY67T5aWvxygHIcDIsjFm1NltCzMpJn8VqAwiL/l0juA195bhcWFnCcVDZWinQQBMRxzNzc3GAbS9FaU61WqdfrBEFAqVSi2WxijKFUKpEkCVprrly5wmc+85mBRV5cX9fmXVvgArKRdhZlgWHz+DCdvibRmvFGDdOdpzJUSqsyzc1gz17m9Z8/z6s/e46546fwpueoRzFb6lWGNmzlwpkT+IGDUynj+T7z03PgBahSBRv4nJ28RKwssYRYpBEXhjS22mYLIeT+ZWnBb7VwEHjSQSFZPzyKKkkCCXEcIuMYkWh8I3DbIevqI1hHoH2LkYaFuXnWV6q47S7Hf/w4d33kw5S3boFyBO0FDvzDt3n98SfotmapBS4VR1CVFlcotNYYFK5y8FA4ViC0xdjUVSJdByEFrpTgKrRStLptOmGPTtSnl2haIfiliHI/xpUOtVINz3XxXB8Tx8TGoEjnAHwj8F3FqCOxJUmSGKJ+TD8ynP3hP/L6U08xds+dbLj7Dm776EcZvelWsG0qQQWSPpNXLjOycQwr0k45HRakHfPgfBd8oLleIc1jw7dt20a73WZubo5yuYwxhoWFBcbHx2m1Wriuy/j4+LI48oLVeXdRKHlYh7AIY9IUd22AgAoRcb+LSgzKduHsJHOvHmfi8HH2fucf6V6epjszR1W6bBzfQKNWJW52WGgnVEsVrLDoxNLpJ8zFBi00xokJFVTuvp3K+DCNLRupjo1QbQxlLoblMXGCtN735LGTtCemmDh3ntnJaY6ePsVItcZYY4jRSpVAJjhEyDBEag1Zsk1sNQmGoXKZUrkCVnH2+Gle+OFjPPQH/z2IIejM0Jy6QF0ZhoerVAIHaWLQMVZrHCHTmBObTkLKrN20TPszISVWCjSGKA5JIsNcu0k/iQgT6FtoSzARqKiPJ6EWxdRKFWqlCoHv4muDawwO4FiBkwhUInAQCOHSbEfUa2U8JJPTHS788EkuP3OQk9/7Z27ecx+bd9/B9vv2wD23sX60QXt+GlkqIXHSmupSpud6RfXHwiIqeDdoralUKjz88MPs27ePw4cPs379eur1OvV6nddff51SqcQjjzzCZz7zGVzXLa61t+BdW+CWNMRDkAofSQKtPliD21qAiXM899P/yrlDh5h45SjJxCzDeGx2fMobRglcj+mJy1Qbw/QW5hkdalBrrGOh32G202a622b01psZ33ED2267jZEdWxl68EMQOFDyUp+u7y3WClmJsewEmJyC85foTM1w7KVXOPP6MU4cfpXJuTm2eCWGhUonBLttrEkwOgF0uogD0F9YoIxLNdK8+KMf8+AnPoZcX4fWLOcOH8DMXsYr+5hE4nppFUIyPzKoxRWGyAQ821WNJUoSelFIN+zTT2IibdLJTAdiKdAK+tqShCATaHVDylpTDkOGSmXGShU8bXESg6MNXmJwEoNO0onHerWG1oJRv4QysL5Sp49l8vUTvHFhgue/9wNGb7uFLQ/dy6Y9d7Lj/j04WAwOWji4lSr2A1oPZWmo7LVE5IMmLtd7vEopjDHcfvvt/NEf/RFf+cpXmJmZ4cKFC4MY8d27d/PFL36RIAiANCO0aP9rcx2p9JZma54AgxfHEMVw+gzxyVMcf34fpw4fZOLCCWS/j9sJqTs+ZeWhpCRWAp0YbE/j4VAJKjh+QFcYzi/MsmH3zQQ7d3Df7/4byjt2wpYtgAVPpZ2FMemyNcrJhvirxS5akBowkJWDpRthz13kyIEDXHz5ECd//FOGuyEbyz62tUBZaozuo6XGCIujPOLQMFxbx7l2i1NewvaH7+dz/+F/4ZUfPsaBv/wWI5HBC9x0sQflDBY0zgMCU/dOVnzKGhJj0MYSG02z00kjTIRI68I4Cifw6ccxU+0m0wkkWYy4sumjNOlzB1hfLTHsl1hXqVNBESQWP7aoMAFAewLrCHr9HhqTrhihUrdTIgV9qZjWCVOuINixlfV33snOPfdyx30fZuiWW7FCkjgOWLEsMuCdlq1diyytBfJ2j/dfYjss5ejRo/zJn/zJwAe+2sIirVaLz3/+83zpS19a9p4xhiRJkFIOOsfJyUleeeUVXn31VXzf57bbbmPbtm3ccMMNeJ43+HzR/tfmOqJQLHXlgrXo0yd4Y+9eTj/zDGdeeJ7+hcvcuHGE9Wh85VFulFEWTJxgTILQAmssUqbx29rG9IzgbLfFhg/dzoO/+3mGfu0jcMPNGJnOTMdxjGMkSrlIVyGyFeCvUeoELSyRckBYHGNxNQi3jNgVcPuO7dz+0K9xfudNvPid73Pi6GtsClxcC64VCGOwwhInIfX6MPNzs9SqFTaUPGZeP8L+r/0l8fQsw0nIsHJRIq2kqHWCJksiQqCtQVuLxpIYQzcM6ccx2qShgWSLRJhBhUGFxckKfjloEhKZCrcx2SLHmQvGWJho9+iEIc1en2G/zIhboiIUlbKPtBYjDImOEEogtE6zXm3aCzikC1WM+y4jQZn2QpPXH3uc1sVJLp84yxf+6EvIDePXcWmtbd5sBaScD6JgXA9LxRtgy5YtjI6O8qlPfWoQwZIkCVEUEUXRwCov2v/avHsBTyxcmufId7/Hvn/6R+LJS5ipS4y5gsa2UZQ1GOkhXBfjOGCh32zjCkmgLY6VCAWRtXRNxKzWjN5xC/f92y8w9PADsH0rulyhmUC/20UoRdnzCXx/INiDqoZZ8svS7EaQaQSFTSfktIBet03ZL6GGfajW2Do8RC/p8t1zRyHs4rourpQ4SXpxRNaSYImVwfEEVU9iux3m9r2EaLZYj6As0ps91pokS5SxEmKTEGqdLqJsNZHWhDohtulrQkikSd0tEtL4PSNRRqGMQRqFsAmDGENYfG7BYIgFLCSGdtylFfdY8EoMeSXqQUBNuVStIBAOcaIx2iCkRTgGZIIVGhQEUjNkXRqJRxwL+icvcHRmge4X/huq4+OL+f7vY36ZmXq5eKyWmfhBI7eGrye8Lz9P1lr6/f6gkwyC4C0zvK81Avwg8+4FXFte/vq3OPzDx2heOM1Nm9fREZIRR9HwFdJa5lpdksgQiTD1CFuBMuBq8IRAqFR8tTW0tWb99s2MP3Q/bNvMTBQxVPbwHNABYAzC9TBSZinhuWsCLFmSULZrg4QTm0aiJzZ9VZQrdK3B9kLKSYzjedz8+X/Nnftf5Ozen6UlWoVAuAqMwZcuzbl5GsPrWAh7RP2IkoQh4SKtwlEWSZqiLrPs0vzachzFXLuJcNJRgDYG13ORuBibxnULnSYhGWtJTNbZpGHrCCuRg9BIkMhBN2VEGqkthM06KejEFuIuSb9L2PNI3IBGfRSZaIQ2uEpiZVb/UYBUEoXFxgn9+Tl6cYv1oxtYsNDp9jCtNixZaPrN1uJ8r1h5Y7/VCkXvdHtrWRhWip8Q4rqP5512WEvdTtfqVJd2iPljkiSEYYjWGiklvu/jOA5a63e9j3n52n/pXIeAJ/TOn2XmtUPcsGUjrQsXGQpcbBzTCUOUsfgaSgAsZkmm/lyRxRsbhCMRSKQQ9HQCtXQRAyEk/U4bYxSBShPlHWNZdk7yMrTpT6QvsWio5uVqjUrLuWphiJK0aloYxYyVauCGjNbXc0G7OJ4iESE9pRAJ1LSi4bqYTp9AgOP4GCxRN0ZaiXGypdPIEm8G6eo2u4EAYbJsRksSR1kEipOGPEqRZs9nK+ggQWNSgZbg6LxwY3axq9Tfr3WWpKTTaYGKByO+Q0261KRHRbmUrcCJY6TWOFiUVGgBGom2LjoyKCFRwqU0XIOgwqVen06rSb8rUFGcLa7x3lmd+Y2f18fIa2fkKzUppa5pCeeCobUmSRKSJCEIAjqdDgCVSgXXdQdZgNVqddVt5Cy1FPPn+SRcHMdAWl4138elr/+qoieW1u/WWmOMWbaPURQNfNHWWlzXHYhcfpyO4yCEGEwevtlxrBbnfa064rnlvrQ+Sr5fUsrBfgZBQBRFLCwsUK1Wr+nGerNrIH/e6/UGHQJAGIbL9ic/ziiKSJKEarU6OP61wrsuZiWMRpiYoYpPyZUo30OZBGUEyigcYxEmq0dCZl2m3wYsRliM1SQWPNej5rqcPHSYhRdfYejjH2NkdJze1AJS+UgUQkkk2Yo9mWrn285yvmHRw5BOCgoDWcVDdILUhoojEdLDixOYmmTmySe5cvIE66plPNMDNFoapGMxic5zFdOCUHbR0tcyLX2bC9xjY+MAACAASURBVHhqGWe5p1aj45hquURiDdroVLgTTWJtFukiEEKlWatSIqRKJxqNBqvzac+0xosVWJ3WNJGkoxdXQsmHRiAYLlWoKY9Rv0pgxCAyRcVpUo6U6WToYDUfmy3RpgVGKHqhJjF9FjpteliM76S+8iUWOCxa4fmNsvLxepmfn8d1XUqlElLKQWLH0kiEXERXkg/vXdfFcZyBBZYvCpCLhed5GGMG1t47WTUmP87cN5u/ln9XKTVY0CDvcN4rMV/qs89Z2qHlrwsh8H3/mqOpvF2WdkzvZB+W1hF/q1Kwc3NzjI6OopSi1WrRaDTo9/uEYTg4h2/nN1dDSkmpVFq2X6tdq1JKqtXqoGNLkmTZ+X2/8+4tcAlzuk9LWeaTPp4U+DqdGHNM6ioZWMNW5Dna5HnkVlgSka5QIxNDXQrOnLzAvkf/nl9PFMED9yEF6EoF16+gXAVKo+2SJG+R+rdX3h+ptW8RIhVCqTVekhC3OlQbo6l52+vy+n/5W17+3neZO3yEbaUA3xNIIsiGblZqYqHSyUAh0VJkzpos9lzkN0G+xFnq0nGEHNT91sJglEIbg4MgSQyJTo8jrdWyxD0hJFiNyv4NTpK1OKSTmGWhqAYBJVdS8SQVLx2hqFhjF1pEsUl9/ggcKdMYbkemafois8Kz2G6A2Bjifo9ev89su03LVYROeRDu+F5hjKFSqQCLYtzr9QbC+GbW4MqM0Pyz3W53mQWeW2N5beq3IzJLLbqVixLk28jJ07/zVWWWRl78qup75O231NJOkoQ4jq8Sv1KpRL/fRwhBqVS6Srzzdr2e41jacYyOjgLQbrfpdrs0Gg08z1t2jvLvLP3dpefkWiwV7bwNVrPAgcGIL38OrBlL/F2l0ue9WChhutfCmIj1gU9JyrSYR9auRpDV2hAr6lDnFfcyP29iEDZme1Dmtcf+ifmLV9j9iY9z17/9bzOT04XAg6iPkqBkJqDZBOVAUJdh8EjAaogSiA0+AiaucOXgIV596qecffLHlOdn2DkUMF4uoTsLCBJcYwdJLBabRomItDZJHjGirEDp1KURS5GKe24lGptWLbQiLaol0ogQF4kWBq0cYm0wFmJt0GQWoVJgITEaxya4Wf1wV4MHjLg+db/ESLVKreRhon4q9sbgCAfPkTgSHOSg0qDGphmrEiKbpLVWsjh1KQWx1nSjkI6GZtihbTySapCNYN7p1fHuyW/SY8eO8fzzz3P06FEmJye58cYb2bNnDzfeeCM333zzNb+vtWZqaoqzZ89y9OhRzp49S7PZpNvtAmmlvAceeIA9e/awa9cuwjAcWGhvByEEp06d4vz58xw5coRz584xOzt71THUajXWrVtHvV7ngQceYHx8nA0bNmCMWdWye7txzm8Wl36t73uex8zMDOfPn2dycpJXX32VZrPJzMwMzWaTcrm87PN333031WqVm266iU2bNrF58+a3bpjr4Mc//jH79+/n5MmTKKW4+eabeeihh9izZ88y189KVhbGW8rS9jl06BBTU1OcO3eOyclJLl26tOyzcRwzNjbG9u3bGRsb48Mf/jDDw8MDEV8NpdSy3/hVT6y+IwFfaeloAd0kYqRW5sLkFUS1AsrB9wKMzixNc/WEhpACkAgjkAYca0AnbPZ9Ksph6sRxnrt8kUPP/JyRXTfy0U/+FvW77oCykybyBB54PggnjYaJ4jTOTipQS1ajCVzotGFuAdo9Lhw4xJEXX+bgvv3I2Wl2ypChOMTTht5cG5vE6SZ8F2EF1jgI4eGqAByXGIitJTIaEosXCayBtkxoY+jZ1Ae4cWSE0VqV+emJbDEHC7mLRUmMBOtCmCQ4EqIktcjDqE+CRQhJzVMsRAl1YKQe0PAr1JyAsnQJpIR+ki1Dl1U4hDSqJfepC4GVmYArgZbQ7cdpxUOZdqzthWbaAUqXSCgq9TqxUsROuo+/TFYTov379/Pd736XAwcO4Lou1WqVp59+mpdeeol7772XL3/5y6xbtw6t9aBOxtTUFKdPn+bnP/85hw4dYm5ujvn5eRzHWWZF9ft9jh49ypEjR/jUpz7Fvffee9U+5WncQRAMLLRLly5x5MgRnn/+eQ4ePDgY4ueTb0ut1FqtxuXLlzl+/DgAe/fuJYoi9uzZw2c+8xm2bds2WDdSKUUcx6tOtF3LwlzpX15q1ff7fZIkoVKpIITg8uXLPP300xw/fpxjx47R6/XodrvLrGit9bKJwuPHj2OModFosHnzZh5++GHuuusudu/ePXCteJ7H/Pz8wPVwrf1bzQ+en7dms8m3v/1tvvGNbyx7/5VXXuHgwYP83u/9Hp/73OcG+5bv78rt5cffbrepVCr0+336/T779+/nueee47nnnhvslzFm8G+pjp0+fZqDBw8C8Nhjj7F161Z+4zd+g1tvvZWxsTGMMfT7fYwxeJ432Kf3S8XE6yonm1rVYhAZMd/tYKSk3+9RcT0c5SKkSGOdVza+BReBY9PJSdCE/R7joyPU3AoXm02mDx8mmrjC15/Zhzs8xNiN2yiPjTC8ZSP14WFG6g1cx8X3A1zHxVpDr9ej3W4TdbtcPn2G3twC81em6M0vMHvpCjJMqEcJDaEZiiIqJo2PVq6HWy1jBPTjmFgLDB7auCR9DUogA59EQNcYjNa0bVrZrxV49B1BLwq5aft29EKHoydOMl4vI63JYhstuT0hMv+54wpiKfEdhyhJUCqdDNXZhOiuuiTwfGpBibLy8KxCaoOME9BJ1vJkFWDyhaIFsbBZ9I1FS9DWkljoxQmJMCRZghGeyqocWrS0qXtFZoK/WJv3l0J+8RtjCMOQubk5vvvd73LmzBl832f9+vWEYcjo6CjNZpPHH38cIQR/8Ad/wNatW2k2mxw5coQnn3ySffv2MTc3R7VaxXVdxsbGBje8tRbHcWg0GrTbbZ566imEEHz4wx8mjuNlVl61Wh1MtE1NTfH444+zf/9+jh49Opj0cxyHWq02mLBbKbZLRWZiYoJSqcS+fft4+umnufvuu/nEJz7Bgw8+SKPRwHGcgYvlzdoo3+5KH3c+R6CUolwuE4Yhly9f5sCBAzzzzDOcPHmSbrc7WHRhZGRk4JeP4/gqF1C9XqfVatHpdDh27Bjnz5/n8ccf56GHHuLzn//8YKHhfr9PvV6n3++/o3MeRRGe5/Hyyy/zgx/84CoLe+PGjZw9e5a/+7u/Y2hoiIcffnjVdsjJF0mu1WokScKLL77Id77zHU6ePEkURYOEo7djLRtjeOONNzh79iz79+9n586dfPrTn+bWW29l69atAIOO+/0i3nA9Ai4ErhF4WqCy8XYsoWliujqmlIRUpIevPHwvyKxuGERUYBFaIE2aXGKxDA3VuLIwTdeFdaOj+N0YZTTdXhfR69O5OEELwxUpSCQkrkK4Ctdzcd1MwLs92p0OSbtHOYIAhRIKRypubgzjSg+v5OHqCMdqJCKrfWKJtCQWlp4WdCLoJTadrHRdrJRp6J/v4lSr4Lv4G8Yorx9hfNtGGiPD3Lx1G3K+zd7//F+YvXQRBpOQy0cu2MVFFpRKF11wpSSQPkal4i0s+EbiCokSAmF0muqfpKOatA3TdpdisewsWWilNhqNJU5MGqopoJ+kFniczUEITGqpC9BCpiKe/TNieYf7i+BaYXvWWk6ePMmFCxfodDpYa2m1WoRhSKVSoVQqEUURJ06cwPd9pqam+Ku/+iteeuklJicn6fV6jIyMUC6XBzdXLni5OCqlGB4eptfrcejQIZ599lnuv//+ZfsjpSSKIn72s5/xox/9iNdee40oiiiXy2zatGlQOS8X/pX+4JVW58jICN1ulyiKCIKA/fv3c/z4cQ4ePMhnP/tZbrjhhkF51bfbZkv3dalLRmvNs88+y89//nMOHDgwiMKpVCqDSbo4jgcilAvR0gnLfI1L13UHK8ufPHmSU6dOMTk5ieu6TE9PE4YhnU7nKgFeat2vJnDVahWtNfv27ePChQts2rRp2ftDQ0P0+32mp6eZn59/S5/3pUuXGB8fZ2Zmhm984xs899xzdDodqtXqoLrh0u8v3c+l7Ztvd3x8nH6/z+zsLIcPH+bEiRPcf//9fPKTn+QjH/nIoOPLJ6jfD0J+fRa4yBYlFmn8dCJTf2uIJdSGMOrjywRXJ/h+kE3uAKSTegJS/7DNhnO9DuVKGelYugsL7NiwjeZ8m4qUeErhOy4mSUjimDBO8KtV+iYhbHWw1iClYkRJCEp4QYUaPq4RRGGMNpZKUKIb9mg1m8RxH8cB5TrEjiSWgnPTU1jfRwQ+tlrFrYxTGh5jZHw9laE6pVqZkbF1bN6+leqGdbBjIwQSApVOCnZjWj/4EUeOvMbGUglB5uYYdFrZo1y8IG1mmTvKSTsJJUCmlQvdRCOSOA0ttKlfXpAtj5b740W6+rxlyYrzIl3cuNlqoa0ZROVEWqfFtITNzlsapaOkzPzieTLUIHPo2uf+FxB5kgus67pMTk4yNzeHlHLgm83rQ+cWphCCvXv3cvbsWb7//e9TrVZZt24djuMMhs85uTBZm66ArrXG932MMUxMTAwmN5dijOHRRx/lBz/4Aa1Wi3K5TKPRwHVd5ufnB8e86P5Q1+yU8sVNfD/AmNRaL5XK9Pt9Xnj+Bfbte55//+//Nx566CGCICBJNErJgdivJupap9m+juNijKXVmqfRaNBstnj55Zf5ylf+70Eb+L5PkiwfJTjKQUqFFGIwIk4nNfXgODzPJ0liOp0uQVBi06bNdLtdnnryKTZlPvHR0dSNpa/yFS+dOBFXXT7tdofZ2Rnm5+dpDDVw1HL5EUIyPDzC0aNHefrpp/nc5z63LNIp3eHFz2/atImjR4/x6KOP8srBg2hjqNfrzM3N4ToupfLiHIe1Fq2XTDiLxXsxb5/Z2VkajWE2b95Cu91CSsUTT/yEgwdf4d988Ys88puPsG7dOuI4Qev3x4LL70jAl92wUhC6gr4rSRyBdgTagYTU3yotmETQTwyYCBlqnCTEcRSe6xI4ilhJAqHwhERoizVpxiB9S1UGtK9MI43FFwKihCjqpbHkQqQlYefnUQjKwmbnNT9B6VBzTjeRQuJKFyFdDr5xhMR1iDxF4kqk7xJiqI6OMLZ9OzeNjVHfsJH123dSX7+R8shG/FoDVR9KNxv44GQnzRXgGRBh+thsoV8+yD/8v1/D7XeRWcp/GiUjMtHObqZ8PjfbXaVkaqUnFhKDlAKMQWXv2yx6JMGSQCrQUlBZN0pkNP0wGoRARdnQOIoi4iRBZjH0lvT7izeEIZHgei7CSJIwQUqFMuBk/1bT71xY3ioyZCWruRjy77quy+zs7MDPmscp55Ec+e/Nzs7yN3/zN0Bq3eYWZO7OWBk5YIxhdHSUyclJtNaUy+VB0sjw8PCgA4njGNd1+cpXvsLf/u3fUqvV2LRp06BTyK3RPDZZSkm/18crp/HF+QS9kOlkfZwkxEmMVBLXcQGBMRrPy2Kss079L/7i/8EY+MQnHkFJRbfby7IS00Qvy3IXTWpF68Hka702hE4Mf/qnf8r3v/d9tu/YQRAsFa30d3JRzX83f7TZ3Eza1ulIpddLO4BarU4UxUDaUVVrddqtNq7jEYVRfgaz7eYjTIkUcsnj8mujUqnQbrVpNltIpQa/meO6Lt1ul3p9iJmZOebnFhgaGsraeHlOhHIkrVaH//gf/5SpqSl8PyDRmn4/pFRKo5mMXpLUJCWe5w7a0lqDNRZr7GD/y+Xq4JiVSsNZq5UqZ8+d46tf/QsOv/oaX/7yl9m8eSP9fsj7getyoSQCkmz1mOxFyPzhVqQV9YyTTlgabSCJUEbiaE3gOoSuwJcSXzp4SFwp0+XKJKBNGkcuSM8edmBh5ifSGdS1zV4fXC+phSnLPtOzszjKY92mzdy8bQ+2UUeODWOGquy483acWpWxTVtg42ZQHnglKFXBDUC6WG0IE41lqRCDFRo3EDTn52mUqiTnLvLo//VnyKlZdo2vJ56fz+qkL4mYYXn4kkGnCT2W7DFNTMpXsReWxUJYkFnWNvWROw7zvQ6xIBPthChOa0iEUZTelFIAZrFdnPxmTkdKQaXM/FwHT0OjMcJCpHFsdvNJmVr8S4axK7Po0nPx7i3xlXG5S63ma31+6fM8VjgX8JWfcRyHTqeDlJKdO3cyNTXF/Pw8O3fuZNu2bYMEjl6vxze/+U1++MMf0mg0GB0dZWZmhnq9PvCJt9vtQQy6EALlOFQqVZI47RCiOEInmjzO2nM9Ep2gjUFJteoxzMzM8o2vf4Ner8fv/KvfoVot0+9FRFFaD8RRzmCyFsB1PKyBKxNTjG8Yo9Vq87WvfY3nn3+BdevG3tU5GLR7NprQ5s2yH691nu3yz1wrMmxph2IFK09zFMUYnSadpce9uA1tDDITfCkF/V7E333r7zhx4gSVcgUnCEhD4BbJhVmJ1P2pjV5m0RtrlhkWK6/jarXK3OwcW7duY25ulqeffpotW7bwh3/4hwTB+6NW+XW5UARpqrcyaey3q9NXVRYMIe1y8QJItEEnESaJiUKLrwSB9PClgy8VgXLxlZPKjEn9t9mPLePteGjjJEb5Ho2x9YzdfAO7fvcLMDYCm9fD6BBUSlCuAF7aE1k3TdsMdXrChcU4ikQtVhOE3NIwmKhLTQiYmOfYD56g/cpRbgnKjLsus9aSSJnGrAtJbn0vF6H09dznnQaP5BPDQGatGSFISN1UsUgrCSaktST6SUIYx0RZbK/O20yIQai6FYvulcVTIWgudBhr1ClFkoXpBZxyNY2/RRBB5qv/xSXyrBaZsJSV8cppE6y+3aWfXWqxLyV3neTFkaanp6nVanzuc58bTHReuHCBJ598km9/+9sAbN26dZCxmPuEHccZWPp5bLrneSwsLBCGIXEUY7JrI49hlkqirCJOYrTRq07EjQyPcPrMab71zW9htOGzn/0svu/RardTd4eSV7VXEPiEoc/MzBw/eeInfPs73yYIArZu3crCwsJbngMAKeRgf4UQy3y710NudS91S7wTwjBEG41y1FWLOVi7OKkuJLz22mv8+Mc/JggCypXyshjvleQdk7V22QLsi/NyVyOEYOLyBO1Om2qlOphQf+qpp/jkJz/Jrl073/Hx/TK4LgFP/d5iEO8tbFobhDSXJMu+XNET27RnDOOE0Br6QF9G+NKhrDwSNyFxXFylUCKXshUXlh1I3KoIbCr+scE1MDsxyfkrk0x0Omy4+3Z2PfwRqNxOP5wnCMogXdAJSRwRJ4JYW7QVmCTBSonju5lQZdsXqZ84abUo1WvYnz/F4e/9mJuqDUrtFro1jzQRQgTp1Za3z0q3YBbPbkmLU9lsYWgpBdbmFQ2XCLgURAISmRbnanY6xEbTC1N3ibGk8YQi86NLMXhuV/y2lIpSyaXd6qNjSbnaYMFCLCWhcoiUykZWi8Pr94K8k3i7HUIeGgZXV61rtVqMjo7Sbrd57bXXGBoa4rd/+7f51Kc+Ra/Xo1wuc/DgQf7+7/+efr/Pnj17aLfbTExMMD4+nmUxaqKoi+d6uJ5Hu90GoFyusH37Fnzfp1qp4nke586fY3ZmlumZaayx1Go1XMclTuJV979erxMnMSdPnuTP//zP2b17NzfdtCvdfiUgjpdblHEcE5Q8arUaj/3oMf76b/4aRzmMjowOIk1yt9DbEWMlFcpJ/flxFGcji6v9ukqqdJ1K95d7HeglvnhHXZ1IY6zBdRX9XsQ/PfFPXLp8ia1bt6b3prFItTiBvfJ7uXgvzWOxekk89wox14lGKsn4+DjtVpv169eTxAkXL15kYf7tdZTvBdfhQoG5sENPGXTgUh4ZIpmfI/X4wXKTTwwaGfKykrm1adEWQpNgdBpSpkgXRK6US/iui++5iz/KYneQh9EtVabcqSJtmrUohYNEooVi9rnXmHjxOK//47MM372bnZ/+TUZu6xNs3g4GnHXjOBY8x019xgaSOBkIobU2dQUBroGK48Hx0/zoq3+JvDhJQwnKgUPYbyEVLCmNmPo+s4iUlRE5kPontU2Px3NcHNclMekEXD+J6UYR3TihrzURJp2MzIVZSYR0UaSd40CsMyvcDsLDF3/XaKhVamg03ahHM4pouy6lTZv5g//537HltjvQSwRxMOx8k/Kq18tS8V4tlXvpjZmv7pL7Tefm5gbfC8OQkZER7rnnHoaHh9m0aRONRoOtW7dyyy23UKvV6HQ6HDhwgO9///ssLCywadMm5ufnByndWqejMNd1UVLR6/eRSnH//Q/yoQ99iD179lAulQmCgKAUYI3F8zwuXb7EiRMnuDJxhWeefYZTJ0/RarXYsHED3U53kFwzOjpKu9PGGkulWiHRCd/45jf4/d//fXZs38709CxDQ0MDSxnSxJwwjHn++ed59NFHiaKIHTfsAODixYvoRNMYbgCpNdtoDGNMOgIJw5AwDFm/fhwns3DXja4j0QkLCwvMzc6lFnCi0/UqyyVmZ2ap1rI0c311ivnSfXtX53vF9x25uNZmopNsxJq+J4RAJxrXVRx5/QhPP/00Y2Njg8zRpQKczjuk106r1UKqdHL0Qx+6Z9nvXbhwgU67w8LCAu1Oe+D+gnT0Xq/XiaOYXr/H8MgwU/8/dW8ebFd133t+1lp77zPec+6s4V5NZtAECBAIYwxCxhPYz8ax0wkkzkscpztO1es4f6SrUl3Vlaru6pdX73VXV716SbWTivt128mLHQ/xDAQDAmzAiEkIIYlBs9B0xzPuvdda/cdae59z7xUIJCPsH3W5V3c4Z+999vmt3/r+vr/v9/RppJB0Oh2SxB3Lex0XNUq//oZr2f3ETnYfOsi6WpWK8nCJwKvkOaGqhfiH3woJN9korEVLAX7qMHsdjLE0Oh26OiFKA6Iw8k0qmZsUC8ihB/y/rU+CQgiEsSgLoXaJc/P4Kk7PNzjyyjFeOniMR366k8mtW7jh9h1cccONRFcqqNVRkSBNExAKJQTSevaH9ewPa4m0BS156L/838wfeJ0RGSBsTKo0iNQN7Wjbf9bnasxDH6tEA9YadJqA1nRTQytJaCcxXWOIjZOQTYXESOt3PlnzrPc8Tq0QJALhd0PYxXCEhBTeODvl5AIqIRs+uI2P/97nmfzQ7VAbQLDUxOHdVHjr5zm/nSpyfn6eWq2WQ1NKKSYnJ7nuuuvYunUrExMTjI6OUigUmJubI4qifMxdSsk//dM/sW/fPsrlssM7PQvG8bM1rWaLOHbTetdcfQ033HgDW67Zwtp1a0nixLFaMhxVOox15YqVjI+PY7ThAx/4AD/96U/ZuXMnJ0+epNFoUK645ypXypw9e5ZqtUqlWuXUqZM8+eSTXH311axbt4ZKubLkfKWCsyfP8ujOR91CUx9kZnoGgMH6ICOjI0xPTdPpdCgWi7RaTVrNlkvWo6PceMONrJxYyZVXXMnY2BhjY2O0O21OnTrFqVOn2PfyPl7e9zK7nt7Fq6+9ysTKibxo6cfx362QSiJSV+gZ/eaLw5HDRxZAIUabHk/eGjrWNWLbrTbrN6znQzs+xNYbtrJ69eoFj9PpdJidmeXJp55k586d7NmzB2ut02YaGEBKRas9565Ty+1wVqxcweWXX/4rkbzhIivwj//b36E1d4rvfeXvOXJqltUDRYxxyVUZQaj7bYZd5enkU02ukWKFzPI5Wnj5VHxSwpAmhm6SEKWpwyNVQBSEDmrwsMSCmROfrKxwfGaBF9TSgjNnTmODAivHxxkNFVeEkiNP7eYHD/+cic2bWbv1BiY2X8W6668nmJhAlQqIagUTaxYuQgJSmH3wEfY9/DjjzTaDtQrNTpeOACkMMqt6+3RgbN+f9wNDVgg3oWkEqdakaZtYW7paEFuIgdhC6hvHRgrH0xauQ5D5bYJXoxVuBxIYciYL9BZHPAWxNd+iMFDl6ltv5rKbt3Hjb/93MDpC2u6gkggTlR3tzEM970TY6GKif6HpXzAWP//AwACvvPIKURRxzTXX8MlPfpKrrrqKycnJPGFn1lyZeW7GbHnsscd4+umnKZfLRFFEs9nMG4YOU4dKtQqNJus3rOfee+9l06YNdNoOHy9XvOVX4rbbAIVC6NkSroJcvmI599x7Dzduu5F/+m//xMMPP5wn0xPHT+RNOa1TKmW3m3jooYfYuHEjG9ZvWNJQ1KnNJwzjOGZwcCiHdCrVKqdPnyaJE0qlEkPDQxw6eIhypczNN9/Mxz/+cbZccw2dTjeHELTRVKtlqtW1rFm9hve/fxuvvXaQjRs28sgjj3Dq1ClazRYqUPnCd7E4+cWEVJIk0by096W3dRyf/exn2bBxA9dddx2jo8Ms7s9KKVm1eoLJyd9g243beOKJJ3jooYd4ed/LRFGEUlCtVKlWq8xMzzB1dorbb7+dWq32Lp3hO4+LqMAllCv8xn//x2y+fAPf+7uvcurFPQTWGe0q45K4tAA2N1+wYiGmnYEi7rsO2xU5fu5+rnFvqhiLkimRMQTKOb4r4XjMEjyDAw8bZGWnZ68ogTWOv9ltdpxBRBixsVJlTElmXj/I/uMneOq7/8Lyy69k+2c+w4qt1yIuW4esVtyofgaJWKDb5env/4jCfBPbbhMMVh2JUUgEAXg9b2EAn3ClkN4b01fd2UIGIBRWalIN7W5MRxu6BGgVoKUkMcZJ1vaxcXrXz189z2AROCPl0Lrxemu05/+SH78VrkcwsWqCT3/yE5Ru2gpDdShEBGEAUYQSCnMJ8e/+N+XiycNzcW6PHTvG0NAQt912G5/97GdZt25djonXajW63W4+EJLBJlk1/p3vfCeHTjIVQaWU50S7N3djfp4777yLT9/9aS67bB2NRpswDDFaMz/fIgwCVKAIQseG6XZ7WHcURSSx+/cVV1zBl7/8ZZYtX8Z3v/NdjDF59d5pd0h1SrlUZm5ujumXpnn55X1s2rQB7RcD5BNRZAAAIABJREFUow0qUMzNzfHozkc5e/Ysg0ODxN0uxZJbSOJuN6+84yTmwIEDjAyP8PnPf56PfvSjDutOU0rlAt1uwsz0DMuWO+aK0dBqtzDa8L73reV971vL6jWr+fGPfsxTv3gqh1synP29igxGOXL4CKnucdClWgj1Zfzyu+++m7GxMYqlKGf2ZJHda41GCyUVy5Yv43Of+xybNm3igX99gO98+zucPn2aFStX8Nrrr5EkCXfdeRd//D/8sX8tGtRqSyWJL3VcRBNT0u4YSoPLWP+p3+TPr7uF9hNP8+2/+QqHnnmOgUIBZVIHCXiNay2dvZgjX1hXQeOkWn2/LNfwRvTI9h7pJrYWaTSNdsv9nVJEQUgxjAhwlMRQSJS3P1DWCUu5StVC4CYvI8BYQdxpI5KAoWKRejEgFtCyhtndz/Gv+/ZiBgfZvOM2tn3u38BVV0C7AQMVmGuw5+vf4MV/vY/LSwMMlss0m/NERqDSAGUrruq3gZvFtNKNqVuwEqyQGOGmI1OdorVLVDMz035pE8RC0JGW2Cau2SJFDx4y7nzcLsWV+jJP4C5pBzjZWeunMbvGUBBQLEZEhYBCWCAgoD3f4v/7D/8nK6/ZzPr338wVd34ENl2OTTsQRgtf8XOI8fd//mXGYjH/jOedJEku2VoqlfjiF7/IXXfdtUBbOqMWZmPv2fENDjp8eOfOnRw5coTR0dGcS46Fbiem4jWoT58+za0fvJV7772XkdFRpqfmqHppWikVQZjvn1wlLfqvh/tJGPTeXoODdb74xS8SBiFf/X++Sr1ep1wqY6ShEDjcVQWKgYEB/vWBB/jIRz7MwECFOE5JdUqxFHH//ffz2muvMTk5SbfbXZDEUp1Sr9cZGRnh0UcfZdOmTXzhC19g243bUIFCp47dEcdudH94ZDhvkkoh851KHLvH/MAHPsCmjZv4j//pP/Lggw8ShU6Gt1J10E6z0SSMLq3saqDcInbs+LGcspmFEAIpJNpo5hvzbN26lWXLlyGEoNtN0KnTYVFSkeoUa+wStkyqU65cfyWr16zmtltv49HHHuXIkSPU63Wuu+46PnHXJ/xzQThQPS9T6lLExdEItQYtYb4JJ97g7LHjjJYqzMqIQjf1SnwueafW+kESL9WaM0zIk1A2Dm6kR0IWQA2umtfgWBXWYtKEjrcqK6oQLSQFqQiV6lX2Hmt3sIVxbzSE0/cWAmMT4pavnKyhIiSDpRJGBrxx5Ah7v/ENnt35Y9Zu28L7P7yd+tq1zD6/mx/+l//MBBElq8FY4rhLSSlnieZddLLzNL5Rmwo36GSsMzWOtTOXSLUbYNL5ZJ+Xf5U9F3uR0b7ANUKx+SAQwuYMIOkXrQDr8HspUIHTCB+olL1cZ0SEYqxUZ7bZ5uh8kwMPPc7TDz7G5T97gg988V7et+N2CPqxqXc/Mhy7nymQhdaaatXRuc6ePQvAPffcw7Zt2/zU4ZsryPXH8ePH2bVrFydOnGDVqlW9Zqm1VAcGsNbSarYol8p87nOfY3hkhMZ8g3q9lksY+KPFg2Rv+/yiKOBTn/oU0zPT/OD7P6BYLOaLojYuwRjrdFh27drF7bffBjhGxqmTZ3jyqSeZnZ117JYoXAIpGWM4dfIUV191NXd/5m623biNwaEa1rjH6E/4iyODc/pPZ2RkhHvvvZfp6Wn279vPipUraDa8PG+1sqCivVQRqIBVq1YxPTW94PvWWoIooDXXot1qs+/lfTzzzDOsW7sup4xGUYBOHTHAaKcOGYRLU2CxWOSqq69i06ZNAJTKPUqjyUxWrEWq9y5xZ3HhCdxoitJgDrzE0z/8CQ//4zcIT0+ztjLA5tXjyDhmbm6WbhLTjmOk9M7qWJ/IIPUsbyFd8zNL6Nn7drEdo6G39bFYkILUGEwck4qEVAWkKqCgJVZKEMLpaGc4ap99j4WcxicsLokajQoEKoCSsGwcGqIrLQfeOMWhH/yEIw8/zMoVKxHNDhsLZYLYUFAWm3bodloUKwNebtadQyYzkGJJhCW2xlEUcd+fbcy5YQOHvbgP4V13hDOKy43jhM2Rp9zswS5K6FkFbn1CFxCqgHKhSBiGjgoXunHqINF0Tp2lhGJVucJIpc6pZpujP9/Ft+amuadcY3L7Hd6w89KEUmoBVLI4iWcj7GEYsn37du68805GRkZyA4XzCfEbYzhy5Ai7d+9e4qZjLbnyXBzHfPzOj7Nh4wZ06qp9qWBpX20pm+itottNWLZ8jM9+9rMcOHCAM2fOLPh5GDgNkrm5OXY97RK4EIJiKeLFFw+z58U9rooMepKm/bDT2bNnCcOQ3/3d32X7bdspV8pOv0fibPoWVYryPPCYEIIt12zh7rvv5qt//9W3dY7vdoRhyObNm9n9wu4lP8tw+nKlzNT0FH/1V3/Fthu3cceH72DTpk1EUYAKBAMDFXT61kNLWWM0CIP8d5XMpo/JWWnw61qBW8Nrj+3kW//5/+L1x59kXbHKsLYUsCAVJkkYKoZ0FZQDRTtN6JqURAhia+haZ6qm+94DPa7+4jdG70az2IWcZv+18S+GMZoUSSolaaCIpCIQ3rMS4WGZhVtda5wmSlQoYK2h1WoQp4Zy4nRDVtUKrCiFnDh7hoCTdKbnGR8aIZGGwKYkOiGJu9hq1Vf7mUCUY4qkXi98rtV2cq7+5y3PD5b4HUNWbQvpGCmi5/rpxqqz83YJWtnMlcjmjdzMeV5ap6wbCknFqzWGYZAn/FBISpHEGkE7jkm7MZOj4yiTsPfocUqanjLBJYosob5ZgyqOY2ZmZhgfH+cP//AP80nJTOzqfJH9/ezsLKtWrcox9mykfGZmmk67y+TkJJ///OfzbXcQhLRbyTmrtXcSDsO1rFq1ih07dvCdb3/HLw4y5z1ba6mUKxw5cgSd9gafTp8+TafTYdnyZSRJQrPhdIOAHA6IooiVK1Zy/fXXUyqX0Kl2j4tjdS2Nt24ESiWYnZnntttuY8+ePTy689H3FEIBJ/2Qcb/PFVEUMTI8wtmps6RJyg9/9EN+9rOfceX6K1mzZg1XX3U1W67dQqVcWYCdL45CoeAWbZ+8wyBYMjn6qxAXUYFb9j7xJJ0jR1lbLHP12DhqaoZimiJFggSCxBIgKEcR1UJERye04i7tNCGUisa8xoQQBBYle6tZzlyxPfw7/5lQHgrx04VumBFpFak2boBHuGqp00lcVSpclT08OEikgpwnijUYbTBor+jn4JVyqQBJilUaYzVxtwUErBisIaylWC6StluEUkGSIK1leGiQ6kCVJNV0koRYa1JhaOuUTpzSShO6NiU2mjSzt8pNH0S+G3emwyaHk3p9AP9za7A4mQERg8yKCAuBhGIhohCGREFAoJwKoxTC+V/20Rox0JFuALWFpWMsNulCISQSBVRwccnq3YjMoeXWW29ldHR0wRDPuSy4zvUm37lzJ3EcUygUcuGnbEhLqYBCoaeKVyi4YZqyF0XKqGtK9eSRrXF9HXCVrhQCndmK9dHbAM6cOYO1lqHhIW684Ua+973vkbZSp9Xjk7cKFEYbpmemOfDKAdatW0er2eH5F56nVC7lv7ds+TIajQaDg4POmmx4hEOHD7F9+3Yuu+yyBc28Ny803zojdbsJ9cEB4jjlqquuYteuXURRlDNT3osIQ0cVXbFyJadOnaRWqzm/V6Nzv9OzUw5iC8KA0dFR4jjm+eef59lnn+WB+x9goFajUimzevVqNqzfwDVbrmFychJjDKVSaQFFUEqBEAGpzirwhcfz66tGaGHu1BmGgzIrRkuEjS6FxFHXTABYS2AM0jobMiUEoQqICoJSGNIymnDM0kpT2q2EuAMqACWdFRpSuUEV+ipm/7+M65xZmMnsgLwoVOb07qiGmZoInJmfpxBGFMKIKAiI/Ii0lBKMt2CyliQxhFJiI8BAaMGkIK2raIKwgEkMVjtjZomAQNFstUispZ2kdG1Kx6a0dUIrTYixJL6Za6RDRJRwCXzJlKb0X/eRXhycZLHSbX0VUAoFkcwaOIJIuaGnKAqRfreRc+YtOVMni1TieOXWN1gFTE9N0QwNterABd8aFxrno4adPHmSZcuWccstt1wQna3T6TA/P08QBEvwY2stQ17Z7+Chg/ztV/6WKc+xzn+nz+R5qTiX2yGda4w8+3dGRysUCoRR6BK2VAQqWMh/NzY3YIjCkGOnT/PKK6/kyTubKpRC5gJgU9NTDA8Ns37DeqIwXFJxCyGQnsIrvYRDPpNxrrD4hFgjigKuufoali1bxst7X2Z8fJzZ2VlkdGld37Md+tjYGB/asYOv/O1XqNVqlCtlWs2Wa06eYxEvFAoUCoX8us3PzTEzM83p06d5dOejlEolxsbGuHHbjWzZsoWrr74aJRXFYoGpaYe1Dw8N+Wva272/18kbLqqJKWjNd5k922BVaQjb7qJ0hECSCoNCo4wlNDbXo079mG8YKAJrGCwVme+2aeo2sUiIY4NN/eSg0iSRwGTCKtC3+lnXgPS6Ib32ns0TvhQeXsiohVi0TummKaLVohCElKIC5UKBQhSiMgEn6xgeqXWu7UIpQgtYg0D4QQNQIgDrlcyEIE2gbbq00oRWGtOxmrZIPfYNWrlkmeH6mVBVphcjbHZe5Mk8/+itYYCftrQwWK1T8NWVFIJASEeplDKHVfJrl0Es+RVkARQlLBw/fITS+DhDlZD2zByVS7xlzOCMN3tjxHHMxo0b2bhxY24O8E6i2Ww6qdEwXPJGt9ZJ9haLRc5OneXhhx+mVqvTf+GzQRHoVeML1BUlCyq0rOGXxdDwEGmSusm+waG8cRlGYT5RqKTCKku71ebgwUNcf/21tJot3jjxxtLrZU3eEzh86DAbNm5g48aNCG87uLjyFkKgRF/lvOgy959Lqt1EptEGa2DV6gnWX7men/3sZ1SqlfckeaU6xaaWlStWcNcn7uLRxx7l9OnTBCo4jwgXvvAK0KnTs0kTl+zHx8cJwoDZ2Vn+4ev/wLf++Vu877L3ccsHbuGuT9xFuVTOOf/ZNbW+byV+rZuYVlApDXDyxBnGypoJGVJCeojD8ZWNAo3O4QBlBUKLfKBHtxMGZcTwYBltnV5ws92h1emSyUCk/eIz1iX31BikAKHkgpvQMT4A0YNvhSNcOzhGe01KY2nH2gtApRSikGJUIFQObpBBgLEGbQ0SizSgZE8PxUqHKRphHO1RSrSEmdl5OiZL4BCHoENXcRvPKMkTphA+gbvv9RqS+dlAtnvwTcmskhZApKFaKBL13beZmbP1u48ls0fG5BW4EWACSSwgNk42wEjB2ekp5m2ZysCl57ier6qu1+tcccUV5xXFerPIKvA8gWe4FO7zyZMnGR8fZ2Jigk6746VVLdI3rzKHl96U6MLjWFyVlUsLPSfjOGbFyhVMT7mx/zRJXTUehszNzVHyUrDZZOmRI4cBh/uGUYjpOgnU/uZlmqQEYcDU9BSjo6NUK2/1umVQj1vK3+oaBkpRKES0Wx3a7TalcolVq1YxMuyaxu908fxlRFZBCwkTEyv4vd/7Pf7DX/0VR44cZmxs7C1hP200uuugUhUoaoUBVBDQaDYWTFkGKuD1117n4OsHue+++/js5z7HbbfdSrFYzGmIKhAYvZQp9V7ExYlZpe7midG8MTOHKpcpKkFYiLBS0BaOcyqsQCGdPKx1E5qhlG4wxTiKmBCCWqlCqVimFcfMdVq0PF8ze6M4RTEoSOFMh41zjtESbPY94Wh7JhvgAcBVzTZQmSgyoYEwhVa3S6vbRdgGlUqZMIooFDMHIeXYHsLBHVI4bMNai1GWONEkRtON286GzaZoYbFRgJQWqwxauWak9rsvt08QWFyjUrvFHGXd8I30UIc1BpOmKCmcHoxUXq0xoBhEFKWiYDLmTlZm+6pe9tTmLOQ6Ee2+Rl8i4fjZGeJAkAqFJaBYraCNpYuhHXcp/RLvzX5t7ywWCAtl0IBdqtrYH5VKZQF+fb7n7I9Dhw55jZBBpzl95iy5BgHkRgrdbpdmq0kUefqYdcfe3ygVfnAhu7buHBadX/+4tzEYazh27BjQU+7TRjM7M4uSimaryeTkJJ12h1OnTgEwP9/k+LHjNOYbOQwgRM+QIY5jVKCcOe/qNfnz6bR/YXHHCp6R8ibY94LrJfBNXK8rojUrVq5wLI+Scz56K1riuxFSSpAZpm/Zcft2lBJ8/etf5/nnX2BycpIwDHOJgqivyZotVlo7vX1tNDo2BCqgXq8TJzGtpjPAzuQZpmem+ff//n/n5z+/nd/7/O9x9TWbmZ1xBYBTTLz0TdzFcVGj9I5hAbFyOg1T3RYlJZC2Q1gICEOJkgJlFYGF0O/ZnUaHyKtEN9ziqlqlJOVSCVWIKKYJra4T1Dc++bsqVIC2WOvNI4RT7bPW5tS9zC0oRyi9Z0LWFBVALHuahtZYkrhDYDTKuIVJeWxcWZfKs4aitg4WitOUbup43KnRWOke2QpLKvFO9Qt3EP3hcrr1zVTrMDaPswYIikpRDEMKodNLL8qAgggoygjlYZ1e+u6xc7JpzVzYyoOHrTTGeOZFLCy2GKCVIDFugQuk49k7154LvjMuON7tMe0kSeh0OjQajaWsDCuoVqv5aHq1Ws31OKwlN2vIjlMIAcLmkImTaF38kD5pCoFCvTltz78L5+bmOH36NOB41hMTEwQqcNW3NflCJ4XMF4s32430sO6+8JBjlqjPe7377wELg/U6URTl8rwZC+ZSxWI9Fm0MO3bsYHh4mK9+9avs3buXQqHA2rVraLVaaK0xxuR9AsDLQpDjksaanK1jpPu6H84aHhrmsUcf4+jRY9x77z187GMfI1ABnU4bfq0TOJAoiAPoBmBDCIEOTpM6TBRlG1BUIcVAonF2YYHwW33roJSeJZvf1ls3iRmqAKkcDTAJI+I4QadpnoB8DneNueyNBXkDsI+gQvZDm/Ot3XY3VpBm94RfHLAJtpsQ6oBASqSxzqXGJ3CLO0aNJTUm19+2/kGzhUNnjUrnWuaVArNDcWkW6yQAlB8sCqRw9mq4GZqhQoWiCihEIYGQiNQ6gS6PL2U4drZgQe8aZseVap0n8mYa52/aRDijY60B8avBOOmvwLM33Fvpr7zT7WuxWMyNhDudTo+N9CsSGbPEGMPKFSvZsH4DQRjk0MriOF8CPlczdfH04jt5vF+1iPww05YtW/jTP/1TfvGLX/DAAw9w+PBhkiRhfHzca5ooLw2c5uYf2blmU7TZjlUFCoWbXDXGUCqX6Ha7zM/N8bWvfY1arcb27bf+yrC0LrICF7kmOAq6HiJIFEhSklTT1ZqO1pSCAlYGaCV9UzHDgX0zTfQSEoAwhkA409+iCtBB5BJTmtJNYuI0JfaiQ6o/eWmLUt6n3fYez3r8vD+0E+TrP6X8/6lJkdpV30GWwBF5ZZth35kWuvX4pxXWy7y6JqKykHlhmr6FxmHbxg/eOO2Y8aERlOdxhxoqBJSDkCgICYOQ+facO0Lrj8NXzAhyRo77vgAlaTTmHcXN7zTapne2WjiqpZXS0TKRnpbn6G+XSriqP95pAnmnv1+v13NLNCllbrmVRaPRoFqt5l/3PBvFkko3h1B8EjTSLIBMFh9f1gA9F26aVcrNRpMkTVi9ejU7duxgcnLSUUG91koGIyqpFrw+F6oQeb5KPNOHcdfKMDM7SxzHVKtV5+N5iSGUJceXalLt+gjr1q1jYGCAzZs388QTT/Dyyy+zd+/eXEZXKUWtVnPwh1IYYfKCLtvVALn5hlQSFSjSJGXN2jW0mi0OHzrMX//1X7Nh/QZqtQFcyfrexkXRCKXPGBanbhcrQEhi5YAKm1oSk9BMU4J2m+FqjaIKKReLOMU2jdG6x6+VEvdf1tDr24JmY+aRohwV0NYSp5pW0qXR7TixKSyBr0hFtijkSdzpj+S9K3CmB/QzPgQL0rj/QQYhCr87sN5GTlsLSvYWCVwizfiOkv4dgu0ZqYpMA8b1BZSBUiEkimMiGRApRSigpCHoJphuQgc/yRoGbtEIpNMBD5yhssFpGHfiLh2/wCU6JTWGxKQ59TI7Une1sje+T0LWG2H0WU39Ksc7rUBrtRrlcpmjR49SKpUplcq9aTopaMw44f7p6WnWrlm7pFHXX8EK2XNZyn62lNmyMIFnNMQllbHf1ne7XS6//HI2btjIx+/8KO1WFyEdg2JiYoIzZ84gtd+ZJIaZ6RkmJyfRxmG5b5x8wzczhwlDlbNQ3OxaT1v7fNcpC60dSybjp7/wwvO5w1Cq03dVWvhcsXjyUUhBKHuMouHhYUZHR9m8eTNnzpxh3759HDx4kD179nD48GHm5uZoNpt0Oh0nKBYVKVcqVCvVXP+8/3nAcckb8w5WW75iOW+ceINvfOMb/MmffOlSnvqbxkXRCDMrNWlErh7o4AOX8WLl/q0EJNZycnaaAEkUuGGabCw4CkOP/YIy3indQxYZvS57ziyUkKjQVVJRGNFOYzo6oWs0idYeQxF5Es/+OoNoLL6SzU/HVyP+n5kyIjgPyv6nz9guuaEC2Q7C5kC39NW3w6ot1vTofxiLEhAFhnIUUSpEFFVAhOsVOPqla7RKm43kO8gpNRqtBKmxpBi0TR2N0bomW5bAUw+hmOxYBQjvqenOIWPHZ8ul9AQd7wb0q5+/39bgTn9UKhUGBwc5evQoYbh08GdsbIzp6WkKhQJ3f+ZuPnjLB5c8/mIHl7edwBe5wZzruIulqO/3eyp7pXKJUqnkKH2qtxMIw57bTxRFnDh+gtdee43R0WHm55vn1BR/J5GmzuyhXC5jrTNASJOUNEkZqNUcDvxuxgKdaHiz5msW/XZ81WqVW265ha1bt3LHHXfQbDY5evQoR48eZf/+/Rw9epTXXjvI3NwcU2enMNY4JosXu8oPoe+1GhsbI01SHnnkEW6++f3ccOPWX+bZXlBcVAUeaUExFY6L3Kc9LWyvwWmF0wKRngCSGkMniVE6RiYdioUCpahAKBWh56hKm3XwfRLPE3kf1ot1vGwVEIUBQSAJjCLQrrEYG+0rSciGf7JhFusr5Ow5MgjEtxTzUffs6/xN2jt1n1Rtjj/nI/6efB2YHvziTsrTzPxxKAuDlQpFFRJJ6Z3grdPwttYtipDvbrRwDdtYuIGgxFri1AmEGev0p2Pvhp76adRsoTL+dciHhfIdg3TbCRTY7MP6z4uNON776E+gb9d2rT+GhoZYtmwZe/bsoVAooLVdUNW12q180Kbdai8Znc8U77Kv3Wf/MwmLSCgLFsHzQSipTmk1O7mJchzH+dh6rVZjbGyMQwcP5X9jtJsazLwgC4UCBw8d5JlnnmHbthsYGKgsOZ53Glm/wBjDs88+x4u7XySMnFu7fIfX/p2H7fssWJC83+KpkySh1WrlHp9SSsbHxwFYu3Ztz1HKwi+e3sX+fft5/GePc+TIEZqNJpVqZYHwV38jeOrsFEPDQ0xPTXPffff9OidwDzhYN4gifUmqfCmqvAZ29ptCuhs/CGXPYMBXJO0kpt3tUo4KFENnboxQeeWorUXZXjWeJXLhk6aSLisVlZuqDKWiqBTdNHXaK0ajtdPyzvWgrJdhpQ83ppfcHH7eZwRMvwNnlqizRnZ/ze5gFmMzZUDbw/stjAwNIREo6+ReAwOBFcjUsU6Uv4bSiSY693mZ9RnwH5LU88qnpqb84uFoUcYncyv7dwU9No7wi1S2aBkrQCgsCisUiQiIMSRSkQrFr1oC748L4d9GUUS9XkcIQRhGaN0zwhVCUClXqNVqTE9N88wzz/DJT35yyXP2J+wlx7SY9NH3tTUCYdWbVOAQEBAoJ7YE5PKu2dfrr1zP0794Ov9eZnicyaoGYUB3psvLe1/m9dcPsW5dj1IoJOjU+L8xb3rtFjT3/M62VHKaKo8//jjTMzMMDAxQH6xz5syZd48D7ZFMkwnMqQBjNHLJ+P7C57fWopSiWq3mDctsOCzT2cnULtNUc+21W3j/+7fx2/f8Nk//4mn+7u/+jqNHj+ZJ3FjTw8SFJI5jGs0Gq1at4tVXX313zv0dxgUk8B5iPNduIYoFSgNVpqbPUAyKHlaRSEyfwJJrAKZpis52RX27I6kk7TQhjhO/mXc4+LKRMQpBgFIhItWYOEEnCUZrhJBeD9tdXAEUERRkiEGSFEKSSKElJElKmmrm5uZItSZJbP68MgjcaLsQvqIW+eIBchGE487bZpxarD8PC775aI0hCBTKWsJQEVhBICXKWsoidBCJr8yzhmXvOvVqDSMExXqNtt9RdI0m9gbGHT9RmthchSPH3TOziOxV6vuRD7fyWCExUhKnbpw7LFdoWslckvDJ3/kdRjas77fw+ZWKdrt9zkGSt5NQrr/+er75zW/S6XTcKHofGyHTISkUCjz51JP85L6f8IlP3Ak44f9ABQugk8UV+WIIpd/zMTPsDcKAQDpzhWy7XiiEKClIEo3p8z9WUuVSsFddfRVCivwYkQv12QPltM/37d/HQw89xLp1v4+1jt7rjsXmcor5/ZuJdPbx8LPmaOqH3KKowIED+/nFL55mwOuhL1ZR/OWHu3uNNZ5a7GSolSrQajWQUjozcliwA8mmUrPIvj7XaxMEyjWDtbvON910E5s3b+b+B+7n61//OlMzUwucd7TVTtEzipg6O/WeacEsjguvwCVUV45ztDGDSrssGxrEJt3cymsJJzbfCvnIqkK8Dgfk3o0IN7Z+cn6GUhhRCiKn8w3IQCKV64ob35G03gA1G7hBSAIlCKUixqCEQgsIK1WSJCUJUpfItXE60gJEoJBK5cckRC+xyry96Xce/YkbvBa3pTGXUi1ArVCiUio6HN9aFA4iCdMeo0WZvunL3qPmSdcowUyn5YZq0pSu0bTT2O0s0tQZY6g+Wlif9u65kMIeB90lcIFEqoD6YJV2J+X1N46jhkf5/J/9KTd96hPENiUS/Y+eGY/YAAAgAElEQVT2q5XML6T6M8awdu1abr31Vl56aa+jjHkhpIwPnDXshBD88Ac/ZGJigquvuvq80qvnCxUowlDRaLRIpaJULjhj3CCk045Jdeor8HMnhmXLlrFmzRr27NnDxMRELpTVz40Og5BUp+zdu5dHHnmUm7bdRBRFTk0vdItBqnWuhWJN7wZcqMzo+iVhGHH06FH++Z+/xauvvsrExMRFXYO3HzY/JmtN/jE3N0OtNkin0+L06ZM8/vjPeOWVV6hWB9i2bRtXXXVV/neZYNk7ifrgAJ/61KeYn5/nvvvuyyc0M/MUY10ucZO4l56lda64cAxcwcf+7W8xN3uK57//I9L5GSaLJSLjE7jwI+QZ7tqXB/JU3ve9fggjAzdaaUJXpzRMi8hPIZajiGIQet0Sf9M5e2QHC3hpTQyoRFOwlshajAURFEAVsUVLN01px7GDcNKYJE2dwp+SGJUNZTgcugeF+OorA9RtL3lLaxlQUFYBtbBAWYaEVuQmCwLr/BH6Km5nNuHCZrQZ/wSpNTTimKZOnLqh0Q4Ssm7sXSivsiiy4+mDl7J/43DYLNX1dhPuaiVJwhsnTyKiIjvu+hgfvvcehm7eBrUSulB0OjSLF973MPpx77djerw4rO1Jue7atYugWkNmCdy4BC6kq2bDIOS555/je9/7HsYYrrv2WrrdizMwaLe6VKuucpybc5OVaeK8XoulCKNZoOmRydwKASuWr+Caq6/h9ddeJwxCTk+fziviLIIwQCrJ3pf25iJZ6zesZ3hoGHDJ++1ep0Ap2p0uX/va1/jZ4z/ro1ReqvD3Xp+gTxgGzDdmuf/++/nRD3/EgQMHKBQKVAcGeOyxR7nuuuv4rd/6bSYnJy9oge+03ZyE0YbZ2dl8AeinW2qj/RTtL+s8Ly4uypV+8PJV/PH/9j/zw9FB9j3wEN0jx5CJG1oR+dIOiExxzy5kN4iF1WJejQp/8zrqBspYOjqhk0raaUzJC1GFylHopFBuu4XtNQqNRWkIrK+ahRPyybbApchh5aVA0U4D2mlCxxgSY0iNdhNb2fSWT+AZ08b6zCit1xk37uuxwTrKQsEIbKOD88d0FMgFVqAepsmgEneZBP13hZaSuWabtknpJCld0xt2stJtjftvIrHoM9Y1gvvrRqfO6BKfxRJIRbFUYfLyy/nA1q0Mrb/CUYYkhOGlpYi9G7E4wWeQwxVXXMG6de/jxIkTFCKvQe7VKCUSETgecLvVZteuXaxcsZKhoSFWLF9xUcczPTPNz3/+Ms8++yxHjhxhxcoV1Go1PnjLB7n6ms15csigF2NNP6mWD93xIX76059y8NBBVixfcU7WS71e59ixYzz40wdJdcpn7v4MW7dufXPtkmyxFxnzyO3qDh0+zHe+/R12v7A71yF/r6NUqvL8C8/yzW9+k6NHj3p3qQJJHHN8ZpapqWlmZ+fYsWMHN9xwwwXptezbv499+/ct4fRnoVONDN958fBuhfrLv/zLv7yQP7QY5k2D4lCFK6+/npu3bOHswdeZOn2Ks9MtVGipVKogBGnqxlmzEjvPZTLDbPuw26xyl47GZ6RwLAopnLmxMXTTmHanQ6KdUJaQEqEkKopQYYgIFUpKgtQSaOtU+iwIY/JkK62TjC0EikIgCaQkEE5xTFidfygMyhr/2XqvTUNgLQUpKauAalRgsFShokLKMiAygrIMiYTDwPNGpnLTqEY6d3ktBSkuMbeSLq1uh0a7zXyryWynSdumxNJiAokIJTaSEPmv/UIk/RtOeN65q+6dmbJbPoRvnAoCoSiogIFylXqpwmihzHChhG112b/nJWaPHqNoLdXBOnJo2DXdZG+YJYt+6lz/5/PeM29C+xNCsGvXLl566SUCL/F7riETYwxbt27lsssuIwzDHIc+18dSuVdvVNxoUK/Xabfb7H5hN1NT0xSiArVajTiO84a709xezpnTZ9jzkuMR12o1xxkulZy7i5IelnDUOmNc9znTOQkCidauaXjw9YPcf9/9fPe73+XRRx9lfn6ePXv28Nqrr/lkvpKVK5c7zR78uDx9g0LWs046XXY9vYt6vX7Oa2u0oVgsoqTi1MlTHDt+jGazSb1eZ2hoEBVIpJcFMNZde6Xc8cbdhGazxa5dT/O1r32dJ596itnZWQaHBqnX6znevPj16/93HMds2LiBG264YcnrL4RThNy5cydTU1NLDCGyiclOp83Y2Bg7duygUCygpCRNU7pxhx/+8Ic89thjrFyxkjAMXR9LSQqFImmqOXbsGC+88AKvvvoqmzZtctfCNy5l9jjdLmmSonzTWEr38cLu3fz0wZ+yf/9+2p32knvMaEOcxARBwMjoKJ/61L85zx3/7scFV+ACh/UyN0Oy7wCHf7GLtNFm5fAopURzeqZFIeo6vZA4xVgIlSQIVF/VLfqgW5v/P0vk2aBchpMrX4EGRqC1RcddYqOJUuVU3XL80ml4h1J638gFz5ir9qENQlgCKYkKEYVA0dEJ7RRiNLFwcExG6RN90q8SCGVAKYiIPAUyQKAsrpHppx+tFL2PQIESbrERgvlGkzhNiOM498U0Xs5WC0uinOhUvz+m9tdGGHL2T39DOLteTn9D5s1RKXAJPIgIpaIgBAVjEBhC43TNd+/cyXMv7+Hq1z7M7V/6Eowu51LCJ8aYBWP0/Yn4XK7054vFyT+zbJNSsnHjRpYtX0YcJ0glKZVLNJpuYCODMUIiRkZGmJub4/jxE3zlK19h44aN3HnXnay/cn1OM3QSyWGvYaiziT5nwvvEE0/w/e9/n70v7aVSrbBm7RqKxSLdbpdWs8W+/fv48Y9/zPve9748+WbH0N8ILZVK3Hrbrezbv48nnniC5cuW5+eZicZlNLmBgQFSnfLMrmfYv28/zz/3PFuu3cKGDRvYvHkzhUJIa77JwECFTjvmyJEjPPf8c+zft5/nnnuOmZkZ6vV67lzTarbO2Qy8NOHed6dOneKF51+gWCyes2hw1FBNo9Hg5z//Obt37+bGG2/kgx/8IJs3b6ZYdNaC5bKDseI4pTXf5tDBQ+w/cIBdu57mqSefQhvN2NjYEpengYEBpqan0KnOqYnvdVw4hKJBnGlw8vGn+Pv/5X9FHD/JWGqZrNWZGJ1gpjLPqbjppxYhTbWHTDKVQAfaZuJS/dOMuRhV3/czbnmW3APhfkGbhE4nJtRJ3gQKw5CiUCirKIUK3TdCLunHpV1VjfbQixKEMqAYSNpW01EGKyXK9HS73ei7+whEQEEqAusq/KwxiVctzDReUmFJFaQiJbHWTcgJyUy34caBk7TH8/ONXC2dXkkieolb+0RupXPxCdPs1l4YSjqTtgCvsSKkY1lISRiGFKKIQAJpgjEagSCwihW1AV48+DpP/+THbN2+nYEPXvptc1btZGPcbxVvNcizuILPMPMoikhT5zDz0Y9+lG9/+zu02+28YdUfSRwTFQqMjI7QbrdyXe69L+9l+fLlXH3V1dTrdZYtX0a9XqdQKNDtdul0nADbg//6ICdPneTIkSNYa6lUKwwPDaMCl9jHx8cRQvDGiTfY/cJuzpw5w4rlKwhLiiQ1SyYdw1CxYcOVbN++nV27dp3zWmSqj1JKCoUCExMTtNotHnv8MZ577jlWrFzB6OgoIyMj1Ot1AhVw/MRx9u3bz/T0VM7CGR0bo9Vq5uYScRwzNDz0Nl/FdyfSJOXUqZN5o5lk6e9ki7TWmtnZWR588EHuv/9+1qxZw+bNmwmCwGmwhyHdbsyB/a9w8NBBut0u7VabarVKoVCg2WiiArUA+zeeqSOVZNu2Gy/hmb95XJSl2vPfu49v/6f/g4Ezc1wztorg7DSljiawMUNhAVEIaJqUbpKQJCmNZsPriPjJQPBdtt6gDr0c5mJRDy1LiplolfTbwDRNMN0YqQRhGBCJAApljBKoMMAa7ZK3dQM2FuvRxZ5jT2AtEuF8NBFECqySyL4ELjwkIiD/fpbQ3Z5U5seZSCeWlUjnSD/dmHdJWTvOtjWe0KXEwhF/fAKXglTafGgoa1QK3xzFWKeJhWuOBjJACs+ftVCt1noLDo7OGEpnUCGtJSXFSIOUCmlSRLfNDRuu5A1h6M7OMHCJO+2LpWT7K74L5Rz3J/KsCm82m9RqNT796U/z4u4XefbZZzl58g0q1Z6WtvKj8mnqHMwdqyFCSMGLu3fzyiuv8MLzL+QFg6O2lWi3W8zNzeULQqYb4h5T0Wo7OmKgAt448UbO556bm2N2djbH2a2xSwylO20nHXvTtpv4yIc/wjPPPJNX33NzcxRLzvtUCOEGUbSj0tVqNeftqQKOHzvO8889z9DwUN6oc5CQw4sr1QphGBJ3uxQKhdy9/dLJKyx6jj521eDgIAO1OsePnyCKCrRbby4pnOPjXoFyamqKH/3oRzmEorWhUCjmCbtcKlOr1dCpJo5jgjBYcs9NT0/RaXeo1+vccMOvewK38PoLL1JLLJcPjFCeaTOQSgKboqV7sUvKOB1tipgAOgMRjbTLTNqha1KEcZVk78YQeeXaLwcr+iAMBw/Y/Oc9N3uFCNzvx9aQmJi4q4kS58peCiIi6yr3QGaO7j4hk/GxBQqLMK5qLQA2Xy2yWrc31COy/4Tn2UpvNiEVNpSkkSSWllhrh293ujlE1C91ixA5pm1x+uYxXpLWn68AlPbNYW3yhQM8E8ZCMVBIIygUI4phRIhyU63W6a0UhJ/4TFIMCUJqdAAikgxXB5iebzN76hSH27MMD9cXdknPdQu8w1H2xQn5fMp4i7fszWaTatVh0K1Wi1KptORv+h8r+/vF2PjAwADWWgqFiH/3P/47/uZv/oaHHnqIYtFZb508eZJAKcIownocL/IWaNYaVq2exPfGsdY1tjRuJyWEoFqpUq1UGRgYIPEQmU51TlsED7FIQRiEtNotrrvuOkaGR96SX5y50Q8ODfJnf/Zn/MVf/AX7D+wnDEMGhwaZm3NiZ9k0Jzi98HxXYzSVaiVnryzG0bPIvEeFdxxvNBqMjo4CPQ746OgorXbrTY/1vOGqtwXfiqKA+fm4z21p4T1RKpW59YO3cejgYU4cP0GlUkUpJ6ehgiCXgoWF91OpVEIpxeDgYO/BbHYQvR5DmridesYfD8KAM2fOMD6+DO0nM+uDdT796U8zMjJ84ef+S4yLSOAWG8fIOEFokN2E0DgHG+2r2lBbFC7xAG5sPHR4cyPtEscxxnguNgIhHONaiZ5+Rz89Dha+5BncIha80K5kt8KSWk1sLN22oa0SKkHo5FkDhw1nrAynW2LzScgMKgk1uWaI9fzpftW/DMO3OJEpKR3/xhhDIgwNndDsdml3OsRpirYWIWV+Dr3H6X02wo3MOxMhAdYnb+vomdJax5TwWLzAcd8DIQitoBCEDucWKjeHEP6ahlYQGIOyGi0MKQZrBdpqklaL+fkm7Sgk1XqJjduliPNV4JVKhUajQbvd9voc568IFy8U/TE7O8vIyDBf+tIfA5Z/+Zd/YXh4mLVr13L48OFzjNKDyPngSy/QYu2Tubk5p/UTRYiCyLnbGd96dGSUg4cOMjAwwJZrtzAwMICSiiTRb+qYnp2LChS/+7u/y3/9f/8ru1/YTXF50dm1tdoMDAywfMXyXFv8QiOOYzqdDuPj42hjaMzP58MtWb/gwgWt7KLPmRpkhTRNaOR2dL1rPDBQY/v27Rw7doyf//zndDodyuUyWhviuI0xhkqlgjGGubk5CoUCQRC8JXbf32NYrKHe6XSo1WpIIWjHbid2yy238JGPfIRi8Z1xzN+tuChyZzeJaccd2tbQ1AnlIABhiUNLIi1C21zjQ/gEpJRydk2BpCMCujohwTUlvZ9BVojn6nn5Sy0WJvDspV1wKwgPwPhq3RqXyNvaYNKEbhBQNAGhUs5sQggCGfjxdncM0ldX7pFEnsQzOuQC9UF/IEoJZ62mNe24TTPpMk9KK3VDGtYvUMLaXN61P3nb7Ixsr6LGeLlZ4cWxjNMJD6RbeJT02DbuPAoqdJW3cDrm/Xi9sn2Tn/5YkJAYQ7sdE9uEqdkGcaVMN7Bo3OOeL94JE+Xt/E7GQHk7yfmdYODnimq1yhtvvMHy5cv50pe+hLWW+++/n2PHjjE0NPS2XH/e7PktS48tm0/QxlXr+/bvY3Jy0vkv3nlXnhxzvY5FsWCYSLip0nq9zj/84z/w/e9/n9HRUQYHB7HWcvD1g7mWyoXG4NAgR44codFsUCqVKRaL+TWJoiiv6i9VNBoNLr/8cn7jN36D8fFxvvvd73L27FlGRkZyrfe5uTmMMQ4O8drfrkBcfP/17o/+7/cn8fHxcVrNFqdOnUIIwdYbtvKbv/mbjI2NcPr0WcbGRi7Zub9ZXEACF/mnRCd0dUzLWIompRMorLR0Q8eiUNap6gnr9EyUT4pGgFQBYSAoSkkqApI0JU0NqXb6A9r2xtrJGpr0JTqfYc/99hT9R4oFNJaO1cSppm0SQqWcImIQOBYJgtBXsjnv2/+96Uve2eNlGiRZ8k2sxmpDs9VirjHPfJxiI4dl55dMeIh8QeJefFPZ3AjCsUyccqG0EGifiDFIa6jV6s5kwjg+ehQEhNL7euITNz29wUwvRfjRJy0UsbU0ugmd1DIba0yQ0pWKFEl0iUrwfsrf4oo5c1MRQiyBUPr1Qt4s3mrRSNOUZcuWMT8/z9jYGF/+8pcZGxvjm9/8JlLK3APz7Rz/4ufJlDazqUCd6p4zunVDVGNjY2zfvp2bb745hygy7Y23E0macMWVl/EHv/8HBCrgkUceYXZ2llK5xLJly/Iq+c2in3N+rmg2mmy5ZgtHjhzhwIH9jAyPLIBSfpmOPFpr6vU6Z8+ezXXZe7CX2/mUy84N6KqrruLKK6+kVqvxve99j0OHDuWvZabn/nYW3/MVCbOzs0xPTdNsNbnlllv4g9//A9atW8ORw8eoXuTi+MuKC6zAPW4kLKnQtLTBtJskSQNVVJhiGRUGVIRyjjNWIHWvEgz9PSOlJBIhNgjQBBjVe2wt4HRjjo5OSRK3pRce63Ikj+yF7ceS8cMIdkHyzrwyNU5fQWAQ2kCauArVGAIDo7U6pTCkFEY5LJOh3toYv0OweeJNtCZOnAJgnCYkWqONQSuLKDmj4/5dQ14V5suQT639B+shIYX0hg8WqV3lXRCSUhRRUM7kIVABQkhUwVEzje01Oul7yKzib8WxX3ycR+fZ2VkSJUhVQIIiikp0wxIJhpRzi1mdq+K+kAZj/98kScKVV15JqVRifn6eiYkJtNZudgDXvDp58iSjo6OMjY0BUC6X39R04q0an/3Vfda4GxgYwBhDvV7nj/7oj1i1ahXf+MY3OHbsWN6gzJqF2d+5ZOzx776ka4xzim+nbeqDdaIwQkpJEiecPn3a8cuXLWPyykm+8IUvsGzZMsbHxxfoa59LrfBc1y0MQnRqmZiY4M//pz/n8ssv58c/+TGvv/Y63W53Ad0uTVJS7fRXQu9kkwlhRVFEELrqtewrbakkhw4eotVuoVPNxo0b2bRpEy/ufpEzZ84wNjbGzMwMrbZbSMfGxpg6O+V6DNUBpFroywkglaDdaTM5OcnTv/gF1UoFFQTeMtF5kVYqFWZmZnLKX/Z6Cs/NzxgmSinuuecerr32Wh544AGeeOIJpqamaLVahGGYL75ZFR4EC+WDtc6kE9w1lR5Lt9bSjbukOuWNE2+wevVq7vjwHdzz2/ewatUqjIbJyQmfay6uwf7LiIubj1WgpSUWTnBmVifYNKHV7BDqAkMUqIsiKiogE5sTu61vGkrTS2XIYIH8ZSIsIwM1mknskmOakmjjGBbaCVH1EiK57nfGxOvP6tmQkBE4azfp38QWhHGDPqmAM80m5TCiEkUUVEAoZW4U4RK4ze3TNNAx2pkZp85GzgqcqbF/rowGmVMh+y6dWPwN/2+BuyGUlEQoQulepNAKClJRDiKKQYRCejso52eZYnOTiezUNY7BkvpjnjMx2vcotLXYKMIiSIVAo9DCokWAFhptF1/IX/5N2i+etHr1aq644goOHDjA1NQUw8PDnDlzhiAInP9iucyaNWvyCitJkgvihr9VzM3NUSqV2LFjB7Vajf379/PUU0+xZ88ewOmR1Go1jDFMT01TKBQRQubWbG4GQWKMSxqddof5+Xl0qmm1WxQKBdZfuZ6Pfexj3HTTNoZHRvLrkH1+e1CU/yzBWrcDU1LyW7/9m9xw4w384Ac/4OGHH6bdbrudhHIj9uMj48RxQtztoo1meGQYnabESUy322VgYIB2q8X8/BxCSpqtJtWBKttu2sbHPvYxtl6/lX/8b//I3//937Ni5QrKlTJCCIrFIuVSmUPzh1izdg035hS7xRWuYGxsjCuuuIJSucSZs2dYuXIl9XqdmZkZtNa0Wi3q9Tp33HFHvsA6I+Kl8sazs7Ns2rSJDRs2cMstt/Ctb32LvXv3cujQoVyCt9VqEQQB5XKZ+fn5vmsoKBQKKE8rVEpx8qSjKGba7bfffjt3f+Zu3n/T+/MJ7l+1uKgEbqVwjbBQkbi9PbGAGQMi6ZLYlJiURGqqIqKoXPNQ+4sRWBCLqqisQlJSQhgSFgsYLN3Yyc5244RuEoMf+sjxZPoSZQbV+OQNTnPEIEi95ZnxrBOnRusSXCwEpJpu0nIGC0L647Nu4cDkIjapFDSFc3C32JzWmH3ur7yz41JS5IuUBeSiUjnj02QSAiPVQULtxLRcBa6IkA7jts4YOmfj4ORmjd9paOOOVRuDto7ZMkPsJGlx5x4YBwul/nwcz1yghUT3H9hbJO93Un0swBrz5rXr+q9bt47bbruN2dlZDh8+7M4nTQmCgKNHj7J582Y++clPMjo6ukB06ZcZxhja7bb3PdzOtm3beP/738/TTz/NM888wyuvvMKJEyew1rJ8+QqSNEFKxyzJzi3ji3c6LnkPDg0ysXKCZcuXse3GbWy7aRsTExNueCuJ3Y5SZDK1Pdcmf8Vwzf1s1+O/2w+FCxCehtpoNLnssnX8yZ98iQ9/+A5+8uOf8Morr/Lqq68ileSVV17JKXPh/9/euT7bUZ3p/bfW6u59OXcJCQmEABsJLEi4CSNje8COneAbEyeeSTJVjuOquKbmw3zJX5FvqVQlf0Ay9jipyiQTz83lYLDH3DEYsLjYyMAIgUB3nevu3b3Wyod3re7e+5yjO7qgfqqOtvbefd/dT7/9rOd93yzl5MkTFEVBERPJnGVhYYFOp8OmTZv5d9/5DnfdfTf33nOvVFE0CXv27OHll1/m17/+NRP9CXq9HoPBgJdfeZnEJHztq1/jttt28u6773Hd1i0jx1caLfTZs+d+Xn/9NX74wz+vSvx2u10OHDhAt9vloYce4u677xb7YuCH2Aav6eufnZ3FWrH97dq1i927d/PUU0/xi1/8gtdff539+/czGAwqT/hI7RgPKyEKL4pC6rEvL3PLLbewe/dubrllB9/4xtcr19Di0uJl10MVQPlzvRKGA/7sT77Hy3/5l2w1KczPk2pLaWAhFSKZcNB3mgmfMmk6TJiU1Bh0lqCAxDl0IGIff6hoedKKMk1xRqOUpnSOYVkyyHMGw7zKXoyDiNZ7vBEC1F7cI6VSoSGDDk0RJKnGay0EjkI7QuNiT6q09L70Uq/bBAkDfIiqhBQVUCrFIKlvRuOIfvVI3hqFUboq0yjZkbWTJNZWl0xRT+o8N23aQhLGEBT1QKYMTIpTRho+yH4VIfmnDFmb84sLddNoDSeWl7Da44ysK7UK5bX0KiVhpfDkkxPs1yX/8YffZ/NnP4dNUpqOi/OVUJqn2/z8PN1utxoQA3j00Ud5/PHH2bt3L8vLy8zNzbFt2za+9a1v8cADD1TNaWN01lzeWqndp9uG+L5Kl24MIFprWVlZIUkSDh48GLTgN9m7dy/Hjh1nMJCU7KKQbM6TJ08yNTnF3IY5JvoT7Nq1iy1bt7Bjxw6233ADvX6PbrfD/Pwi09OTVfGs8e1Sqm42MnLM9SiRr4XBYEC322V5aZn+RJ/f/e5tXn/9dfbt28e7777L0aNHOXrkSFWYKQkumSRJuPPOO9Fas3PnTu677z42bdpckVZRFnS7UkFx3759/OhHP+Lpp5/m+LHjzMzMsGPnDh5++GEefPBBsizBljFFuD7WeZ6jlKLX63PkyBF+8IMf8Pzzz3PkyBHJpE5THnroIb73ve9VHu4om4yXSIDaAROtktFxAvDWW2/xyiuvMD8/zxtvvMGBAwf48MMPR46VMSkb5jawZesW5mbn2H3fbjZv3sz27dvZuHGO5aUBzjuyLCPLRCGIT/nNp9NLKaGcO4EPhvyvP/4TXviL/8M1/S7D+RN0E/CqxCUADm0dxnoSb8iUpmMMaaLpdDKM1lWKt1ahFKzWKHwo/qSI/mttEpyHopRWYSCEnReF1EQpC4l6K3061BkxRrrrEIpGaRO0c5FPYjKM9pFQdWOY0oW4XQhc4QN5+yoojcuWA1nHqQqJhleSujt9giLxGu0cw0GJHUKioZdpuqFkbk+npEqTKS2yidJVBqoLTxuyLimglaBIjCHrdFFpwqH54yzkAxaGA3JvGXoXmi+rqlu9V8GWAmhlME7TsQnWKo7lBfaaOVauv4b/8J//E9fueWAVgcPa5H2uJB7T50EuyDzPOXLkiEgPYWBrw4YNGGMq0o6R+elwum06lYulKWtEqSdG/vG7fW/+jvHj0p/oMzkhMs/U1JQk+jT1V7X6chtf73ounFNZIsf3p9r+RlGmpeXlKtFoeXll1UDc7OwsvV6vGhwed200byoAhw4dqrzn09PTbNi4gTRNqhuMc1WNUWBcHlIMhwXz8/McPXqU+fl5tm/fzuTkJJOTkyPukUjgax2PVfs7dgzKspRgryw5ePDgyPqnpqbo9fr0e30ZKNcqyJdmZPlrHnJ16hvpxcJ5SSjGCZEopYUolNgs1dcAAB1OSURBVER2xgarmjfEdPncWSwO4xUDV1YG/MQYkkRjlCbVQuZGi/0wc6JRe1tKBGslOvVK3BUmSch6PQqbVSP9Dk/hrWQoBqKq6owH4sb7urtPI0iIv4fo1tE6WO+vD+G0RMyj80AtNoRx1Gq6OHibIG6c1Bh0x9MxCb2sI0lGSpN68XLXBbBEw1ZGE1urRf+5SQwoGFrHiaWTDMqS+cESQy/p96UWGaSkvqlFi2WUjZyiarqsnKI3McGRouDwkSMcOXqEM0mkbxLOuUQi8bE4LiNNUzZt2sTGjRsrJ0jTUhcHpC4mlFJVinYTu3btIkoclcNoDM6CC02tV3+/9g2kPoxnYqf0a/5fhfNEmfo3mZ6eYnp6irm5OYbDIb1eN2wbaL1aqhlfj9K1Lqg0bNm6uRpUjp2EgMZNribvcSlOKYJUs4mNGzeEQWI5vk2JbK3WeWdynsVuPEqpSjqJNVCqbXQQG8Oc7uZ4ueI8rgQHpsSqHJV0UGoojYax4nVGIX0VtejQoSC6t6LLqlKi7iQxpNaQpgmQoHWQPbxCW0/i5MqwzoELTXdVrSEnRsrCDkNHk8KVqFIkBUK2m4st2RxIJBH3QW6j9TUSw+jREy7KNK5J1wrU2AXYHO7zSGs0Q5Q+PKlSdHRCJwtPJMrQMaaqlmhCoo6hlkZckIHqP/ks946iyMmLIXlRSJMH5fFG47Sh9D4MRKoqfnbV7yLPgSrsWIk8sWQTffKlBaw1THQnGI+818K5ROBrLaN5wZ5LGdBLAVU/S+OcrxJ1xo9F3XRhLbIdJ3GQmwKMH/vVx7hJkuPLimfh6t8nSaSSIvhYMVluQKq5nNH5xxHt35G4azu4PKmi4nEYJ3KZvigLyqKsJBJt5Knbe0bcRePnxno4kyAiTdPK2eSFQKp5T2epvFxx7gSuYGggN1I1Lw6gYT2pURAicxdriMTBxCAkeefQSmGdNONNS4vrK4wPCSQeuk5hnAJlg+QhEovzYgc0msqS19GGNDMUTpMmCYNyCLZAO4dVodM60vG+7rETTy05sUSBHr8o6unqKFY+8XF/4ifhK6VU1ZnI+Fq7zhR0lWYiyeiZhAyNtq6K1ONrVY0xDiyqkJ2pw/+VlNh96/1DmEyJhNJNK6ujV3JB+TVPZi+/iQcSQ4H027xp5628duA95p1Dd/ts3no9+Ej6Mp8aCyEvZLwybsMrigLnHEmSVLawyzlCUkrqzZ8d1ouux8/Bc5lmlHyb0k/t6PCniPDXJ2+QyyDPh3R7crMdDofB9jd+Q1l7+WmwwTpnKUuLLUu8Hr3RnHuWJyPnS/Ncik9vIqM2g7crE+fR0EFxYP4k7ywM6E5Nce312zixfz9TqUErTSdLKYtQAzxqxYrqOVMRmzCIplsWjsFCrK3gSS24tM+Ezuh0O1LW1UhbKGfLECjXMbFCoZUPCUKefjejxDMopetO6T1lqIFc037QhZHSVlHf9s3KWg2oRiuluJyK4OMFojxlKeUDMmAylWbN/axDRyfSI9PV5K68rlelol8dSDQqMXjvpCdmYTl29KS4RbS4afRkhlWwggPriQo+XlU3kTguID9ZjBjlJlCg6G+Y49Ch4+x/4zWOFiU333MPX/rDP6D/iU9KsF7tY4xwNN7X3YDg7KPv8enHSUQGjbI1p7+QJH6qZZ2RLKTU6Xm2Oe0ZoymFnPl8q6etnxCaPvZTz7P2/NWW+fo1y7LK671+DZdKVGTVtYJIGMKpivH1ne3v3ozWm79fJO1mdq4KjxzKB2XV+3Xb5lXDF5dh/HAeEbhh5317eOHpZ/nNh4dQW7cytXErfpiztLLCYFiQKSkKVd3tmxFBWEYItoUofBSkJRY+MVgh1yWZK8jSjDTtiG0ryVDOocsCFfzZUf4IyYuyc4nBGBlBHhRDSiuVAAtrQxQqxWUdqkqCkX2rtrDa2ti4OH4cW6x55yt5Qim5SDqJppMZpkiZTDr00qzugxnKC9SZngqMFjukloYPysiYgtx8pKVabktc+Dw2g7DRukijQqKvKzuWrMUvst9WK/I04f0jhzm4NGBiZpY7Hvw9/u2f/inX3/dp6Ih9c9TlUXtxV6uaLS5nfNRPL6fuGXr+6z7X7b84FRQvHc6DwBO+/u3vUpSav/qz7/POwQ+4eWaWzGZ4bcjckCRQSIziVHj1RLnBV5F5gyZQeKxWLHvIfYHJS1JXkjlLkmZkWUpXK/rakPiwBmll0oispYMPRpOgSTSSOVnC0EFRemypcFVdW3DjGniMMAN5Kxr3mGpF4cWKnphpQy/rMpF2mFApHTSpMqjSyiCsEzmFcAykTZqnVB6rnDR49gqH4uTyIsPCkhcFpXOoROONrgpqxY2IEk3qqW4OVU9SXZf68lEDR2OV5vBghePas+3O2/n6v/4jvvztb8PkJMOigLLApynN4k2ncwKcK8YjpxaXP5oDrcDo04oan2Z83vEv1i4Qdr4Zvmc+TzwHV39+uePcbYQO/OIKKsnY/+QzfP+//Fdef/JpZpRhKkmY8CW9fB5TDvDKo3DBzxzi7fB4XjVpAOp4ctTrHG1+JjgSsixjQhvmnKHrPcYktcUvLslILW6n5QYSE1uK4IYZljDIPcOyTnSxXqZ3yoeIulnn0IfHrfAc4ermxDiPcg5vYaKbMTczw2TWE5nEyenpS4uqqnXV5G01VXLNyeWlyrft8BRFyXBYkA8tSkOn160aO5QaCiPZnyZIMh2nSJ24gzyaXCUUWlfrEI+4ZF0upYapW2/mS3/4Le76zOeZ2HErTExQLCySTs+xMlhGm1DJLRwF3YjAw7j0WOLJueNUp+GlIvXTXxpnu13j+vDoZ+M2u9Mv/1Q6+Ecz//ghWbN3ZIhw6kHM02xFFVjAWgR+oaLvpoQyvi5YvS+ny768HAj+rAm80q+cR1mHsh4KB4XjvSef5Sf/+//y7OM/Z/7AP7DJ5Mymik6WhJ6SpbhUkNZhzpiKsOqoXDRxFYpfRUlAjYW+HafYQMJM2iHNxFee6OA2QW4OJfVouGyzq1tVKV0Vc1oqcnJnyb2l8CKxAHhrQ11b8A6sFdLqdHToeiO9NHtJRtck9HQaPNyKVMn3ADY0XC7xVSp7TPSxWlaRF5JpOgw1K8RAUluoirIkSWSQSAFD41nKoNTSoCK1Hrtsme2l+GHB8SXYZDbSndxI3tV8MFzkncVjbN11CzfcfhufeuDTfP4734bEACbIWRqnNF4brCcMQov2Hx9IVKMjd3wOqC60sz//1jy/rq4o/FQEevnOv14y1NrLrvXuteY93To/6vPhTCnwcjwvz4nAY2sh74XAk9JD6WFQwsIKbz73S1595ile/vmPWTlykKXjx5hIDbOdBOMK/DDH2RK0RidJVXGwHukMJE6dqShf1okBifX0raenZWQ5SyXLMwn9CRVS31sR0pNDBF4J5FrhExF5CuXInWXFitY8LC3OWry1VTd677zUZFBUdYYTpemYlP6Yj9vEe43WoYu8OD1KHQg7DEKuFENWhjnDYkhRlBRliW00Ao3e1HH3h/bi/FnMZJlSPdGLNTFNUc4xXIJioccCkJsUde0st3xuN7d/4TPc9YXP0d92HWQptoqq6/5EKCMOFq8CgZsGgdeDl1Fsl1+qJfCrCWdOG3XQFcdQzvahvyXw9XHWBB4LOtmY9ehCtqX1aCsXP4Mh5Cus/O4Nnv7pT3ji//2EI2+/jVpcYErBdJqQeg+2xJaS1BNbhUWlPEbkdecaj1I1gWvvpc54eG+0mAyNEQLvKsOkN/RNShLaVlH5SyUpwUOoVCjReuEdhbWUpcdaqdQWO7s766rEgE6ng9Hi366ibV+nucd7kW/IF0NvQ49LXzUonl9cCLq8FMOSQdHGw6SSMgLSoZyG9h36jOo6gnfaYzoZx+dPsrAi99Ost4ktN+3k7gc/y6ceuI+bH9wD013oZayU0kO0lkXkb5TAxccfMn8a21WdPfJyAQm8xZWJ9W+8TZmmPUsuNM6JwJsyQIxqjfUwKFCFpTM7A8dPwPQEfHCQ4ZHD/Pb5X/LiY4/xm+efY/79gwzynBv6XbrGgHOk2pC42kERW4uJRi46dpPAK2dI+LOlxVp5axKY0AkbfMakSelkaZVFp4MuF6UWLUcBlMIRPOYWrHOhSJEQnBC4RSkdCFxD6aTpArHvpNgM4zFSaVJF3qWGD44epsAJqRPqnYcbobVO9MVGlqgOBK6UCbVcdJXME1RGXLxBaMWR5XlWvGNq00Y2b/8E/+z3/4jtt93BtbfthA0zMNUFZVn0Jc57Ouiqcz3BwiO2fROEmtMQeDh2LYG3ODXW1pxbnD/OXkJBqt15kEqESBQea3Mo59HB2VGGru9JaaEo4dhxjr3yMj/7m79i7zNP89tXX2MG2DA5wXSvT2ahWB7grZWaCkZhcULgKhZyDX8KmoOWrvJny2eZ9cyUhq7XZGkSbIhS21krqiYJBlVp55GkvI8DGnXCT23loCJ/qdkdvlZCfmXQ0IeulFrmeAosubMMvWWIo8BXRbWiauRCoRycxwRboFFSC8ajsVqzVJb0Z2cZesfR4yeYnp2DNOG9Y0dYsAXJ3Ay7H/w8X/jqV7jj/gdg01boToiUY0vKRFEmktEJYmeUqt8q1J6RCDw+nVQkHutUV/s6dhKpNrZq0eJS4JwIvKqJHWpgR2miri0i0WIeysd2rKNbWkkPXJiHfAX33n6e/vHf8sxjP+XVF19iptMlP7HADRs3M5F1yJcWQ/svV5N3jMRXjZ7L95WdEEkE6heQhcxOrTVpmpJlKWkq+rVRStqReSFNKdNK1eXGhUG8hjRfa8GealplDGhFiSd3JYNySF6WFK5kaC25KyXyVqPVAr3RVXq+jCnIYKlBkXhIncS2VmlyYKAUrpOSe89iUWKTLiveM7v1Wj513z1849/8K7becTtsvQ6OH4e5a1iZX8ArTX9mlmGRVzXKVXDVaBUeQOrnkbokbqTlkLmn1rH6tQTeosWlwTnZCOMsLljqor0O6si10JplI0SVOOnC0/GOxBaoMmfhwwNMTXfx7x/grdfe4JlHH+fJHz/K4qGjdFHsuP4G7Il5UhdsIJUDZZzAY6VAcY7EcqyJB1P6uvyq0mijpShRImSeGCHyqvqfl9fYC7IMEalrspOnkTQjH0VHSY5jpRwyKIYMy1LShJ1UBIy6t21IKhKBh9ouY6m9qYW+lbrfhVYMNCziWLBDytTgJmeY3L6T+7/0T/nS177KzI03wPQkxdIiVhu6s7Mszy/Rn5kFD/nJeTqdXmDbuAMKt1bWaYPAfRiMrabwfpW9qpVQWrS4NDg3H3j0Mge9NryR6FyueEqtWQmkFXsz9rS8Ol+S2FzqqQ6XZODzvYOcfOcALzzxFI/+7d9x4NXX2N7p0Sst2ruqIa/4wgNp44PH3IbuJFKzW8UUexctiUHNDeVitZYyrIlJyJKUTOtQxtVIxiQSZbpq8LARhTci8DhY6RQU3rFsQ+ZkaMkk9WAa3YBCTROrZPwgNqNABT3by59HYZyma1NAkxvFSqJ49+RRpq6/ln+85z52feaz3PXlr5POXUMyOQFpIhmdxjAsCorCSss1J80b0iStx5OqRwgd5Kmx31fXt0e5H1cqObW/N0Tt/sLaCFu0aHHmOPdEnjDgBrU33FOb8h3N8qfI47cXQ7UK0kiCkHI9xqEhH3L4wHvse+5Znv+fP+TDV1/lxIeH2DqzkfzEAhv7k2ResbK0SKksaTch66Z4X2J9QWGHkryjQkeeMEinbOh96RWJDp3cUeL1DjeiqX6fLEnpZtLHMNYh9oBzNhTRCvusoLSlJNuUYj8snaP0Tp5C4s0mRtgonIn/l/3XKt6IFKgEn2TkhWdpZcjK0GHpkU7OsOAtMzdex56vfJmd993FznvuQs9Ow+Q0JKlo3D6sg9qupZRo20ohNzPk1YdDHfMnYlZsRcBaBqdD7mmD4GsJJZI3qAuWzNOiRYuzw7kTOFSReCwIBVT1hWvUJN98FYIZrfNsS7GRaK1JlhZJTh7n0LPP8tRPf8arz73Am3v3kmDZpGbYtvVajh7/AKUtRnuyVKG9xdohXrlgs9NhwE5VmZMxwUY7hyklsq+qtCmJVDtpJjq50YQcFnGhBJdKHAcorDQ0LkqLDYRX2cx9PcgpNBi1ZB+FGbRyITpXlMpgJqZZGFrml4fMF7CoOuy8Zzd7vvgQdz/4WeZu3IaZnYKZSVH900SshdG545rHdbS+83gJAKVkeh0IPOrYEFw/YTBYOLouhxCPk3wcl98KKC1aXAqcF4GvlY018t7V3rNY43c0jbW+6G1pKcpCfNZpSuY9+aHDdDpdMCnzr+xl369f46mf/oxfPvE0dmWB1C8zmSlmOhkd7+jYgtRZEifhZq4UZexGo5Bmxlrq/urS0S+kdVl9MORVK0WaJpikzjqMqfh1V3rZJynh6oKWHdPORbYx0UUeM0vj04D3oBzOQKEhN5pBYnj78ALda2aY27qNbNNmvv7d77Lxxpu4+fbbYWoKvDwFFN6BMaCDzRCCfi4kGwl1bQL3I583X+sDQVV1USJxP/LlaImBJoG3JN6ixcXER0vgjfenI3DpkOHRRmx/FfEvDIT2CgcqYf53b/H6y3v59fNP8ezjf4NfPAFLi8wawwzQK0s6ViJr64W8CxykhqGS9mKFdxgP/SImAzHmc5aBPqVCFxWlAoH7QGiy6SoUgQ/CQlV/26NQyqBcglYGbx06dJGXiFwGNYtEkSeKlUSznCT4mRl23b+HL3zjET65Zw9LCrpzGzBZl3yQE1ULD1IAP/jEx493/Oz8CdxXRN78cv0OKS2Jt2hxMXF+EkoD6/Wki1iLwEfJh5G0cZEpGoYJD8p6tIjb4Ics7X+DX/zdj/jrH/4PDr+5j2Ih53oFWyZ79KxnLu3hhmLrG3ohcWcUFknkSZwPA6JxI6g5qOF6ie66qPNHWGelTgijpkZhwASt+lgrxB4j99iMwmUJ7y+dZPr665i6bis77r2H33vkETZ98pMkn/gkoLHDEq90yFClkUlaD542B0LjN6saL1SSR9i1MY5VetUOiL6ifHiKihpNWI6ON6rR5bcE3qLFxcVFJ/DGqhm92FWVMg7CFTFdXzY02NUCCRlfojMLC8fJ33ufl//+F7z02GP89vnnOfjWQa7vavoDx7RJ6PZ7KGMY2hIbI0rvJU3Hj26JrwjbhYhXovB6gLaGO8WhK0tNWXRAd8kmeuhuRqHh/WOHGdiSztwMN955B5/+J1/k8w8/DDt2gk4gSUAbKTNrKx6tXTVxTAFCg+JGY7eqCtwFInDW7tiigmDeEniLFpcWF4zAYTXBrfVdNU0VNo5e8A16CjaJxsgbVRCIV458uARFztTkFKwsg7ccfuoJHvvrv+LFxx8nf/8Q3dKTGkM3yaScq3XSq9L78AdNS6BXDqVri2K1NWvw0qpylY23WnUxepaClBPFgHk/5PBwma07P8Gdn72fHXffxZ5v/nOYmobeBCznlCbDJR0wMj6sqscQWaZtHjYk+Sgm5ABV09z1iu6cC4Gvi5bAW7S45LjoBD7y2bo9RCOBuzDgV/kh6gFE5fEGEjTK5pSLi3RmpuHkMSgGHH/jN7zw6GP85sWX2PviS9jlAdNZj9RJkkzmHB1bkjgXXCGRtAOBB7kDpRukOXazGa8f3Pi/dSlDP0FhuhTdhJWu5ovfeoR7v/wg1+/ZDZNTDE8uoDt9kk4fTEbhNWUgbO8k3T/KOp5A4A2pJFFUdVMgJtisXVSoolhfSyA0iX9NAmf0rrTGrwTtIGaLFpcKF5TAx7EmaTclltMUUPcjsktkm5o4XIhJYzlVFcg4NM6EXh/eepvnfv4Ev3ryaV577gXe/c0+rpmYZkYpNlIwPHkMrWFuboqiHFCUQ4alLN+kMhiJNo0V19s4PT3N/Pw8g8EArTVTU9PkeU5ZlAx1ytHCcPdDX+AzX/4iuz53P9xyA6TgM02pEjQ98AlKxYzM8BqyMpv+6ubTQPNYAHUvzPBdJPLquI65RuLMa5ZvHvvMj0TiTdvg6uW1aNHi4uKiE3gT47r46Zrdji09FLBaS3OXiDpNO5APIC9YOfgh7772W17/5Yu8+stf8c4rL5EcO8QEJf1exux0j/njR0i01PtWXuGtxzqExH3djQbEu31ieZHe1CRZt0PpHPsPHsUBmzbNsm3nrXzz3/8xW3bcirl5u4zCTnawCQwTjVOG1HWDU6UpQZwZ4pOIVwSzYuM4jrUnXFdSOYMEnNUEvnZrtRYtWlx8fKQEvhbWG+Q83bRrfFslDekQubsgHHvlKcsS7x2ZMaRpJjXKrYKlFU6+8w77XvoVP/7zHzB/8AAfvPs2piy5bm6KzDuMdbh8SEZCqhK8DzX7Gv0hC62Yufl63jtxlA+OHWWxGDKxcZY7dt/Lw4/8Prc99BBsvAa6XcmWdA7vLIWiqoFiSFBejdXkJugkpyFJ5asB2RhhxyeYMyXYM5uuOQbRyiQtWlxOuOgEDquJeb1NONMIXod0SRfMzl6rysVibUmZ5/hhgS4cs/0pfD5AKUV54ABvvvQiTz3+KL968gnmD75PX0Ffa6aSjK7TaAt4A+gRrXdgFIdNyb6jh5nbcg13fuZ+vvoH/4JP3Xs3yU03S/+1NCG3VvpuWk+adWr/NlI/PL6eC4G7kGSj9bjv+0ISOIxLKC1atLg8cEkIPOL8IvCx74M+7RWBwBXNh/+q6UKoCaKtgzyXKRZOMr/vt/zFf/9vvPLsMxz/4H2ywrKx0ye1QrFKGbxTDIcFKysDTtgh+cYpPvfIV/jav/wmN/+jO2BmCjopZCml1pRoHA2vu3VSftaHwlrOVyQ+Yv1by/Iyjpje3pj0bKWNVgpp0eLKxseKwJXSkg2pgo8cceE1UVnuCjD5kASgk0BZwMoSvLefv3/0J7z6wgv8w6tvUCytsLi4zMrygF63z7ZtN3Dbrbex8aYbuf+RrzFx3RbYvBnKIXQynJH+l2F4VbIyCX5yD3hXlbeV5g1C3GsXhDrNT6NP/fXp0BJ4ixZXNj4WBF5LB9EIHayGYuaoSLxRmgVVgikkEtdGgS/B5lAMsEvzLJ08jrGWfHmFxYUF8pWcXqfL3OwcE1uuhQ2boYBCpyijMVkKVbXBsI6YwanAhm3x3omE4sfauo2h4T9Zf//Pk39bAm/R4srGx5LAIy85N+rWiK5FKTQlfyiqZvd2sIy3Q5KZGVYOvU9vaoK61B/yf+fBlnifUKQTOJ01NGip7hfdkHE74k3EBW953N44nVZVbk6YUf5f51iuM0ZwngTcEniLFlc2LimBnw5nS/AjZU0bvDv2UVXYSSvwllCkKgguPuY7+hGCDWuo141YASvfNs2biIcokzQi8ngjGS8mVRH++ns6tkNx5paAW7S4mpFc6g248AhkGkmxwX0q/FO1hAuaSuyoKTFvTEuUnphSlXDEZT22Lt94EtB4bJhMVck3ccrxueO7SP9r5NEwQt4jCxi/ubVk3qLF1YaPIYHDasJTo59X1fWCj1wRmgtHCh21463XcSb60NeWItYm3kasvmpqNToHde/P9Wx8LYm3aHE142NK4ONYR4oZCaZPJdesR4ynUZ/GZvOr3q0m8XrWsRvAadF6tVu0uNpwWRP4RzXIdrqU/SryHkuQGUf8fiSh6CNBS8otWrRYjY+KcT42kCYTbf2PFi1aXH64rCPwiwWlFMaYNSPxtch73L5ojLk4G9qiRYsWDbQEfhGxepBy9HX11HDmOnhrK2zR4mrDZe0D/6ixVmVEP9L098wI8UwPYW3hPrW7ZfVcZzJA2ZJ3ixZXG9oI/CLi1BH32S6lRYsWVztaAg9QSo1E32c7b4sWLVpcbLQEftljvSzQFi1aXO24qgn8yomcr5TtbNGixcVE6wNv0aJFiysULYG3aNGixRWKlsBbtGjR4grFVa2Bj+PK0cRbtGjRoo3AW7Ro0eKKRUvgLVq0aHGFoiXwFi1atLhC0RJ4ixYtWlyhaAm8RYsWLa5Q/H90ltQhEHpUuAAAAABJRU5ErkJggg==;" parent="1" vertex="1">
          <mxGeometry x="520" y="640" width="170.17" height="80" as="geometry" />
        </mxCell>
        <mxCell id="8MNoS9xD9SRCOR3BH1ym-65" style="edgeStyle=orthogonalEdgeStyle;rounded=0;orthogonalLoop=1;jettySize=auto;html=1;exitX=0;exitY=0.75;exitDx=0;exitDy=0;" parent="1" source="8MNoS9xD9SRCOR3BH1ym-58" target="8MNoS9xD9SRCOR3BH1ym-23" edge="1">
          <mxGeometry relative="1" as="geometry" />
        </mxCell>
        <mxCell id="8MNoS9xD9SRCOR3BH1ym-68" value="获取服务列表" style="edgeLabel;html=1;align=center;verticalAlign=middle;resizable=0;points=[];fontStyle=1" parent="8MNoS9xD9SRCOR3BH1ym-65" vertex="1" connectable="0">
          <mxGeometry x="0.5628" y="2" relative="1" as="geometry">
            <mxPoint as="offset" />
          </mxGeometry>
        </mxCell>
        <mxCell id="8MNoS9xD9SRCOR3BH1ym-114" style="edgeStyle=orthogonalEdgeStyle;rounded=0;orthogonalLoop=1;jettySize=auto;html=1;exitX=1;exitY=0.25;exitDx=0;exitDy=0;entryX=0;entryY=0.5;entryDx=0;entryDy=0;fontSize=10;dashed=1;" parent="1" source="8MNoS9xD9SRCOR3BH1ym-58" target="8MNoS9xD9SRCOR3BH1ym-112" edge="1">
          <mxGeometry relative="1" as="geometry" />
        </mxCell>
        <mxCell id="8MNoS9xD9SRCOR3BH1ym-58" value="" style="rounded=0;whiteSpace=wrap;html=1;labelBackgroundColor=default;labelBorderColor=none;dashed=1;" parent="1" vertex="1">
          <mxGeometry x="495" y="130" width="205" height="160" as="geometry" />
        </mxCell>
        <mxCell id="8MNoS9xD9SRCOR3BH1ym-59" value="" style="html=1;outlineConnect=0;fillColor=#CCCCCC;strokeColor=#6881B3;gradientColor=none;gradientDirection=north;strokeWidth=2;shape=mxgraph.networks.cloud;fontColor=#ffffff;labelBackgroundColor=default;labelBorderColor=none;" parent="1" vertex="1">
          <mxGeometry x="510" y="150" width="70" height="40" as="geometry" />
        </mxCell>
        <mxCell id="8MNoS9xD9SRCOR3BH1ym-61" value="配置中心" style="text;html=1;strokeColor=none;fillColor=none;align=center;verticalAlign=middle;whiteSpace=wrap;rounded=0;labelBackgroundColor=default;labelBorderColor=none;fontStyle=1" parent="1" vertex="1">
          <mxGeometry x="515" y="210" width="60" height="30" as="geometry" />
        </mxCell>
        <mxCell id="8MNoS9xD9SRCOR3BH1ym-62" value="注册中心" style="text;html=1;strokeColor=none;fillColor=none;align=center;verticalAlign=middle;whiteSpace=wrap;rounded=0;labelBackgroundColor=default;labelBorderColor=none;fontStyle=1" parent="1" vertex="1">
          <mxGeometry x="615" y="210" width="60" height="30" as="geometry" />
        </mxCell>
        <mxCell id="8MNoS9xD9SRCOR3BH1ym-63" value="" style="html=1;outlineConnect=0;fillColor=#CCCCCC;strokeColor=#6881B3;gradientColor=none;gradientDirection=north;strokeWidth=2;shape=mxgraph.networks.cloud;fontColor=#ffffff;labelBackgroundColor=default;labelBorderColor=none;" parent="1" vertex="1">
          <mxGeometry x="605" y="150" width="70" height="40" as="geometry" />
        </mxCell>
        <mxCell id="8MNoS9xD9SRCOR3BH1ym-79" value="" style="shape=image;verticalLabelPosition=bottom;labelBackgroundColor=default;verticalAlign=top;aspect=fixed;imageAspect=0;image=data:image/png,iVBORw0KGgoAAAANSUhEUgAAATQAAADrCAYAAADnnmrRAAAgAElEQVR4nOy92Xcc133v+9m7hp67AYIEKBIkOM/iIFkSRckarUiOLduxndhKjnNynJObdV/ycv2Ut+Q/uHf5rpXluzJ45Th27JM4seRBs6jBsiiRhESKE0iQhACSADH2XF1Ve9+H6io2QHAGJ6Q+XmVQQHf1ruqqb/32b9pCa62JiYmJmQfI2z2AmJiYmLkiFrSYmJh5QyxoMTEx84ZY0GJiYuYNsaDFxMTMG2JBi4mJmTfEghYTEzNviAUtJiZm3hALWkxMzLwhFrSYmJh5QyxoMTEx8wbzet70N3/zN2QyGQA8z8M0r203Qojr+diYmJj/AlQqFdLpNI1Gg7/+67++pvdel6ClUim+973v4ft+LGgxMTFziuu6mKbJ3/7t317ze69ryimlxPd9DMO4nrfHxMTEXJJEIoFhGBQKhWt+73VZaJ7n4bounuddz9tjYmJirojjONf8nusStEQiQSKRiKaO19pSLZ5yxsTEXInradUYRzljYmLmDbGgxcTEzBtiQYuJiZk3XJcPbSaxTywmJuZOILbQYmJi5g2xoMXExMwbYkGLiYmZN8SCFhMTM2+IBS0mJmbeEAtaTEzMvCEWtJiYmHlDLGgxMTHzhljQYmJi5g2xoMXExMwbYkGLiYmZN8SCFhMTM2+IBS0mJmbeEAtaTEzMvCEWtJiYmHlDLGgxMTHzhljQYmJi5g2xoMXExMwbYkGLiYmZN8SCFhMTM2+IBS0mJmbeEAtaTEzMvCEWtJiYmHlDLGgxMTHzhljQYmJi5g2xoMXExMwbYkGLiYmZN8SCFhMTM2+IBS0mJmbeEAtaTEzMvCEWtJiYmHlDLGgxMTHzhljQYmJi5g2xoMXExMwbYkGLiYmZN8SCFhMTM2+IBS0mJmbeEAtaTEzMvCEWtJiYmHlDLGgxMTHzhljQYmJi5g2xoMXExMwbYkGLiYmZN8SCFhMTM2+IBS0mJmbeEAtaTEzMvCEWtJiYmHlDLGgxMTHzhljQYmJi5g2xoMXExMwbYkGLiYmZN8SCFhMTM2+IBS0mJmbeEAtaTEzMvCEWtJiYmHlDLGgxMTHzhljQYmJi5g2xoMXExMwbYkGLiYmZN8SCFhMTM2+IBS0mJmbeEAtaTEzMvMG83QOYC7TW4b+m/V4IcYXXR6+87OtjYmLuDu56QQvFSWvVFCTd8jcFgBBy2munE75HRH+PhS0m5u7krhc0CIQqEKNwA9AtwjTdgrsgbBfELHh9PAOPibmbmReCdoFA0ET0c7qldUHeLojY7D9jYmLuRu5KQWudOmqtkVLSaHgYpgQBWhOIWdNCC4RNREKmtM90EQPQGMKYtv946hkTc3dxVwnaTB+Y1jqSIwXUaw7JVBKaYiabUuYqhee5aAWmYSCbU0vZMiUVgNKB7IVCFgtbTMzdxV0laCEXAgEahMBXGsMwydg2AnAAr/UNUqLtRPAeQCvA90KPWvP/NYaYvv9YyGJi7i7uSkFrJQwGGFKifJ+yC27S4NyE5tzZs4xPTOA4DmvWrGHJkjyWgrwESwdWGSL0qcXExNzt3JWCpqO8sXDaKWlowUTJZWiiwn/s/oizExUGhwYZHxsjn8+TSPyW7u5u1nYv5n98dSdaWBiyOcXER6CYnsc2/60zpRRSxpHdmWitY+u8Saub5244J3eVoAkRxC+VBkuCUppKpUYil+V8GQ4NlfnRL17n9JRL0QXHyWDk8zhCIFzB0MkivcfHGBuH//6NneQyoByXBVmJhUJpjdQCSTM4cAnL7W74Yq9EvV7HsqzbPYw7EiEESgU5jK2C7/s+nueRSCRu19AuGpfruliWhdYa13URQsz59zrXD76ZvvCZ99M0l9I1clcJWohSilK9gWUZ5PNZRl3Ye2yIf37xTY6cmcRNFFBmEplITfelAT6KN/edwEzk+MOvbaYtZVNXPoYhMLRGaA1CMl8stJkXR3hhJpPJ2zamuwEpJVprlAoStoUQGIaBYRi3fVwhWmssy4oEx7IsPM+bcwGaua8w73OmEN0JD/q7br4h0EhchPBpKM24D7394/zry2/z3qf9kO1A2slLfqG+kKh0np+/8Q4/fnEvk3WoewZKmUitkc3qAn37v5s5IbwZpZTROXEc5zaP6s7lQpI20Xm7E27UEKUUruteJCiNRgOlFJZlzamYhdePEGKakIXnpXW7E7gjLLRLmZaXOknCkCTMDOfKDsc/O8/3//nfOTnRYMmGrRRrfpB1dglrVQlBTQhSixbz+vt7UY0Sf/ntJ3B8g6S0AK/pl7t4B3drOsf+/fun/bdpmixfvpxCoXCbRnR7Ca2umYQ3puu6FItFJicnKZfLuK5LoVCgs7Pztp8zKSW+7yOEwHEcjh07RjqdZmRkBNu2WbZsGZ2dndPec6Up3szXXq4G2nVdDh06NO33O3bsuM6jmXtuu6C1TokuNZf2PA/TNPE8j6pTxzcEvm2w7/hn/OCnv+Rs1cRov4cqJlXlkZayWS1wMQqoaxdX+aSMFO/tPUzWlPzB0ztJ32OjMED5oC+Y7Ze6IO5kYVNKUa1W+fWvf80rr7xCJpMBoFKpYNs23/nOd7jvvvsAsG37dg51znEch0Qigeu6uK5LOp2eZtmEU8dLXW8ABw4c4Gc/+xlCCKrVKsuWLeMv//Ivb7ugAdG01/d9vv/972OaJlprisUif/Znf8YXvvCF6LWz+aPq9TqpVCqyuOr1OolE4qqm0++99x5/93d/R2dnJ0opbNtm7dq1ZLPZOT7K6+OOmHKGJ3bmFhKKmWmaFLI5SGXZvf9TfvTL1+gbKaJzHYzXXSarFeyEjTQuc1hCo4WHEj6+MHBFkpff/JBX3t7P6VEo+wJXi8h/0rqFpaIzx3en4fseWiscx+H48T5M08D3fXzfxzQN6vU6H374IY1Gg3q9fsnzfreSSCRQSmGa5rSHkmVZJJPJyD92qeO+3X6yuWbmcZpmYMeE08jQn1qr1e767/+OELQrEYqZUorxustHR07y8zd/x8cD56HQRU1YOGiE8LAMH+XPDAUEaAFCKgxRwxB1AHxsRHIBv3j9A/7x315mYMzF0xdf0KLlf3d62lrg4xCcPn2SgYHTmJaJ5zXwvAamZSKE4MCBA5w5c2aadXYnWprXSxjx01pTLpfxfT+aSv5XJgxuDA8PU6/XqdVqTExMYBjGvEhXue1TzploQIkgxmg06y1r9Qb5nMWkK9h77DQ/fOkNPh2awM4vQafaGau42IkcltS4TgOpBIaQmBIMGfgaNAJpmAgViJLUAAYKiUzlKdYVr394gkpD8X9994u0J2wsqTC0h9QKoQVCG0EO3KUcdHcEGikNarVK09ehMaSg3hT5RCKB53tkk1k++OB3dHV13tY0hJuB7/skEglqtRo/+MEPOHv2LFNTU3R2drJ161a+9rWvXfb9d/tNfSX279/Pf/7nf1Iul2k0Gixfvpw//uM/ZsmSJZc99kv9LUwlgdufw3fbBS00g8NQsy/AE0aQ8Op7oCCby3DehTcP9vOzl99lYFRBYglKJXCrBikjhVY2nqdQvoXQQaJsAh9LK3y3AcIAbSAME0EGoUFqAy0Mig0Dme3GE4p3D49R//uX+D//9EusapMkEUjlYigJygQMhBEUul9rMOPmE7ZPEgwOfsbhI4eQhkRpjWVaJBIJypUymXQK0PT399NoNKaNdz7czKG14bouk5OTnDt3DsMwGBkZwfMuWO/hzTebLy2cqtq2TbFYxDRN6vX6HZGMHAYFEolE9DCyLItKpTJNXEJmXqflcjk6J77vMz4+TiKRiPLvZkvHiO5P38e2bXzfp9FoRDOnViG7liDEXHNHTTnDL6MpF3iAZ1qUgPcODvCr9w/SN1zFETl80mhtI7WJVAbCA6FNDGEhtADlo90GyqmRlBoTFeSYaQOt7abcmXjCwJUGdWlQFxZ+ssD7B0/w9z97kZNljxoWjkziSRN9R/dLu9ALrlwpcvz4cUZHz2MYEqV8Vq1ayaOffxTLNHE9FyFhYmKcw0cOR40w5wu1Wg3P87Asi1QqFaWstKauALOKGQTTVdu2KZfLlEoltNbYto1hGFSr1Vt5KLMS5p65rkulUsFxHMbGxmg0Ghflqc2W6R8KYSKRIJlMXlXqRShm1Wo1+swwwNL6vtvtg7vtFtpMhFJYWuEBrmExUvXZ13eGn/xqN719Z+m4ZxU1JxQ+EATTQiEUUguECHxpeA6uV8X16kHSYSqHNiSeELgYLd3SNAI3Kn1SukYql+blt95HS8Gf/uHzLMtb5CQkNZiqtYnkncnU1CQf7f0Q121gmgaGYXLffTvYcu8WDh48wPG+EySTSSYmJzhy+DD3brmX9vYFwO2fMswFqVQKgGq1GvnPgCjp9EqEQtjd3Y3nefi+TzabJZFI3BHRvDCYUyqVWLFiRSRscHHEeqagCSGo1WrUarUoOJLJZKLvfLbvPrwmlFJ0dnaybNkystksruuSy+Vuu8Xaym0XtJnqHjndrUDMjo0U+f6//JzxukWibSnKyKCpBe9FI5vTS6OZqCG1j8RB+2VoFPGdKj5gm4qkbdCQBq4v8DFRysMwQAofdJCs6yuXuuPRsbiHt/ccplaHb33pKbatyGAIMKTfHPOde9OfPXOGEydO0NZWoFqtkkymWLd+PZ2L7mHZsmUc7zuBFEFi5LnhYU6ePEk2m4tKaGZyswTuZqW9hFMhKSWpVArDMC6y0C5nkUgp6erq4rvf/S5CCBqNBqlUikQicUcIvm3b2LZNo9HgW9/6FoZhRBbbokWLZk3VaB1zMpmM0jSuRuBDMTMMg02bNvFXf/VXGIbB5ORkFDFt5XZaaXeMoEkpg6ehAitpkwD2HBngn158jf6JBu2Ll2OJDCOjU2QTFhLVLCxXGFIgBaAUQtepFUdYv/IePv/ALjauXcnY2Dh7Pz7IR5/2ociQsjqYrDkgQRgGWvogfJTwwdcIw0JLi2whzXu/+5i2hEXPC8+RzWhcz8E2ktSrdQzDuKG6udmXarl2Lvg3PMrlMvv392KaFr6v0BqWLumms7OLhuuwZs1aDh8+QrFYJJVMMTg4SF9fH9u2bUdrje/7UdrCXOfbXepCn2ufS6swu64LNIMhnjctw/1ydHV13dAYbgYzhaq9vZ329vZLWlXANMsr/LfneZEv8WoELXIFCUEulyOXywHQ09Mz7fPCqHLrz9nGcjO57YIGwQkLEz5TyQRjHrxzYIB/e/k9Bsdd2hevodyQNJwKpm3T8H1MoTFQGEIjXA+Bj+fU8eoTvPAHT/Po5zazbGGChQmY7F7Kw9uX8uGBDfzo319j3KnTUApPKywSeFrhCY0vBL4QmIaN0hITwaplPQyeOsnk+AQ9mXaU9Kg7dZLJFNVq9fqSUls6fbeubjDzb1dLMKXS+L5ifGKc/v6TCCHRGkzDZPv27ShfkUym2XrvVvZ+tJex0TEy2QxOucKxvj7Gxsbo6Oi4qly0ubowb+aFHt5UMz/vaj7rdvuBbpSbNf4r7bdVcC8XPLmZwnZLJr9XStwMnbBSSsbqivcOfcYPX3ydIwMTSKuDcllRKtZAQNuCNqRlIgyJkAKJIp9JMjU6TEoqvvj4Tr782H08sDTBPQmgUabDqNJpKR7f1sN3vvwYGxdlWeDXyXkOKeVhag0Y+MJGGSk8bVKvOVRGR+jK2PyPb36FrkIClwp1r47Winq9TjabvWRd5GUTVbUGpS9ZYnWtBFMpA9tO8MHvfsfQmSFksz/ckqVL2bZ9exQNa2trZ+PGjVHpjBCCgdMDHDly5I4ovr5abiQR+HZPGW81t6rW8k54ENxib16zm0XLAk0a8IVBMpmkrGB/Xz8/ffltDpw8j5nuROk0CStLLpXHFJLJqTF8PHx8wEfgUZk8T0fWYOeOtfzBc4+yKK1pOBUyKAy3Qs5IIhslMtR5budavvjAJtZ3pkmLKqYI+ttqoUFLhJY0HId0wmDN0g6++dxjbF17D0vzaQw8+gb7GK6NoNNQ9cv4uEAY6m6uXXCLv9hQhEZHz9PffxLf85FNC2X16tW0FQrNioDAOd7d3U13dze+55NIJLFtm71791IqlaIi5+slfDrfaVzLTX09uVg3g8udxxv15V2rI/9K5yS0iMMAzO3ipk85L5ihLfktngIdLGjiGVDyoGTB3r4T/K+fv8KpSZvcguUonUZgQwMsIVFSooWPkh7pTArTdamPjZPWNX7/6Yf44tMPsrJDkNQKWxm4fp1kMouv6iRMO/C6+fCNJ1dQyFr88I3X+W3/aXIr1lEs1qlX62StBNqrsbxnCf/z+Se5f3WBtKzhU+Gjox/ym7dfZdHSpTz12NOsyfag8REi1TzYoFcbgsCnN+MchMy8NHRT2aN83eu4UGu1GidO9FMqlZvlPQaFtgLbt+9AaR1UC/geIFizZi2dnV2cGx7BdYMo3vDwMENDQ2zYsCHyO82cEl5t3t3MKUetViOVSkWvq9frUaQu/Bn6I03TxLIs2tvbp5UoeZ4XWZCXe2C4rovv+ySTSSzLwrIsqtUq2Ww2Cg7MHG+Yixf6Q1vFIhT4me2WWn2NYcRwLjtdzGZ9hqko4fltbR3U2hcNpn8nM4Uxm81Gjv6wTMyyrKjWdaZfuDWQcrnxhj8HBwfxPI+PP/6YrVu3MjAwwKJFi7j33nuj1I/XX3+dr371q5dsFHC93FIfWhDFhHBpJi0FvgSdtNj94WF+vfttDg+OIfOr8LQNmGgtETrwl0ntofEQQtMoTVArF0mqGs89tYunHt7B0gUmFmAqD6lDZ1SwhZUHQrt4JXhk+1KKyc9Tec3nwxN9JDKLaM+245cr5NKCb3/lSTauKuA0RpHJKh9+/B67D/yOgeo5pqYa5Pr34q9wWJHvxsdFoFFYaD1dzG4FYWLjJ598wujoWFQNsGzZMrqXdl/0+mQyyaZNm/nkkwOkUqkouXLfvn2sW7cuSri8npszLK1pHVsqlcJ1XQYGBujr6+P8+fNUKhWKxSK1Wu0iQSsUCixevJhcLsfmzZvp7u7GNM2owaKUclp0bXJykqGhIZLJJNVqNYrgjY2NUSqVIic2wNDQEIcPH542ZsMwaDQaJJNJli9fjhCCyclJRkZG0FpHSadLliwhkUjQ19cXRRkty6JWq7F69erm6mONOSn2D90wAMePH6der5NMJhkfH2f9+vVR+khvb29UiC+EYOXKleTz+WnvC7+XkEOHDkUi6Loupmmyb98+Vq9eTb1ev8iNsnDhQhYvXozWmrGxMU6fPh21EDIMg3vvvTd6rZSSdDrN2NgY5XK52S06QW9vb9StpK+vj6NHj05LYJ4rbomgtT5tlNZIAdo0aBiCkTJ8fOIMv3rjQz7uO4eZW4wrLHwhEEoR9MdQCDykbiC1i+FovEqR9qTPzm1beP6ph1nSLkgpSEiQWiLF7Oa6QFErTZDLLeape1dS8+rgvcOhvkEMUaS7rY0///ZX2bW+gIWDZ9V49/BuPjy1h88YQXQnmPQrfHB0H77rwhqBWUiQJNWsUDDQWqD0hSnObBZMNOvWIG5QAaWUDA8P09vbS7FYJJ/PYVkmmzZtIp9vw/cb084ACDZu3MiiRYsYGRkhkUhQr9c5cOAAzzzzDIsWLZqWUX+tNBqNKMkzmUzS19fHvn376O3tZXx8fJpFAxcy303TxDRNhoaG6O3tpdFokM1mefjhh9m1axerV6+mWq1elF7y9ttvs3v3bjKZTLTvRCKBlJJyuRzlTPm+z8DAAP/wD/8wbbzhvlasWMG3v/1tFixYwODgIC+++CL1ep2pqSmWLl3KX/zFX5BOp/nNb37DwMAArutGltsLL7zAli1b5qxzSTimwcFBfvrTn0YJvhMTE3z3u9/loYcewvd9fvzjH2OaJq7rUq/X+eY3v8kTTzxBqVTitdde49ixY1iWNe0aDFsiheexWCzy4osvks/nKZfLF43l6aef5plnnsFxHA4fPhx9ZiKRwLIsNmzYEKXEGIZBoVCgra2NgYEBFi5cCMCJEyeYmppi4cKFnD59mqVLl+I4zpw3Gr1lU85woqWEwJcGvoCRsubkSJEf/cdvOHx6BCO3lNSCLqqVGgqQEoTyMYTCEB6oOpZ2oeLQZgsee2gbX3n2MXoWCgwFCcAWgDRAzzaX12jfI1fIQMMhZyf4wo6NFFJp/uGH/0rSzPLfvvU1HtqyiDoVJvwzHBvq5dd7f0XdqqNzEm0ZGJiMjY6y5+g+XNfDuNdiaeYebCOBbEhSZhp5BfekYO7Scx3H4eOPP6ZYLNLW3obyfVavXs2KnhUED4SLp1jZbJZt27bx1ltvRRdWvV6nr6+PBQsWRBbR9TxBPc8jm80yNjbGO++8w6uvvkq1Wp2Wvd/q1G80GtMyzpVSNBoNVqxYwZkzZ3jppZc4cuQIn//853n22WdnjV4ODQ1FwmUYRiTI+Xw+Og7TNGe9YR3HodFokE6nIyGcmpris88+A4gsjdAq3Lx5Mx988AHZbBbP85iYmKCvr4+enh46Ojqu+XzNJLT8lFJ88MEHHD58GMMwcF2Xzs7O6DPC0i7HcXBdl1KpFFnHpmlSrVaZnJy8KOKYSCSiY8lms1QqlUi4C4XCRedofHwcpRTpdBrP8xgeHsa2bTKZTJQOY9t29P3Ztk2tVqNUKkUPlS1btmBZFr29vaxZs4Zjx46RTCbvzilnq7+h7irMBJyrwN7DA/zzv/2SkRoYbffgiBTlsosyLECilcZoOv4t6WKaPtTK4JR57KFdfPOLj7MgC4YGUwcRDu2HLqiZTuBguitMAwwJaLR2yQmLxzb00PXnf4rQFqvXdjClpyiqc3z62Uf85r3/RKccfNkABbrh0BAN7LyN4zfYd/oTGlrxhQefYoHRRspKYmkfg9mjhUIT+chuND83nE6dP3+ew4cPB5nsmWzToujmnnuW4ro+coYFKERg1W3atIne3l6mpqZoNBqUy2X27NnD/fffH01j4Orb6ZRKJTKZDJZlMTg4yC9+8Qvef/992tra8H2fXC5HsVjE9326urpoa2vDtm26u7splUqMj49TKpUolUp0dHQwMDCAZVmsWrWK0dFRXn75ZUZGRnj++edpb2+PbtRMJsOiRYuiqK1pmhiGQSqViqZqoRUIRK2UQgzDiN4TCqHWOnp/JpMhn88zNjZGe3s7zzzzDG+88UbTGg6md2fOnJkzh3hoUSmlOHDgAPl8Hsdx8DyPzZs3s3Llysi3J6Ukm81GPdFqtRpKKTzPi9wJrZUAwfcvIquuVCpFghR2Jpnpc8tkMpGgQuCy6OjoiKb/rutOa3AQTmWz2WzU0aO9vZ1qtcqePXv4xje+wd69e6PzPFvtaOvPa+GmC1robA0du1bCYqQOHx8b5V/+4zWGJh38dDt1mcSRNp40QGqk1sENLwO/lyFdhgaOsbwjz9NPfI7//q0nWZCGaj0QMtE0eRSBryzwoF3sfg8GFfwwNJiuC0qybcVi0FCsNfDMSU6P9vHaR68zIUpYNgjhYXsSqUFLFyU0rtD4Evae+oS69nhm59MslYtJaA9bW3P65GkltDjCi2hoaIjz58+Tz+ep1WosWrSIzZu3RIXVYXPHEMMIpntdXV3kcjlGRkYiq2lwcJCBgYHIJ3Q1FlrYUDGdTgPB9OKll15icHCQjo4OwiaJ1WqVHTt2sHHjRpYtW8aqVauQUuI4TiQoEAQN3n//ffbt29esSR0lk8lQqVR4++23EULw/PPPk8lkkFKyYMEC1qxZg2VZdHR0RA0LG40Gb731Fr7vR9ZgZ2cn69atmzb+8IbOZDLRMbQSdrFtFfYnnnicn/3sZ4xPeFQrFQYGTjM2NkahULjh7iWtfq0zZ86QTqejYvQ1a9ZEr7tUFDQU5a1b78UwZOQDDDlz5iwDAwNRVNI0g1zFsL4z9LuFLF++PLoWwoeBUip6SIQ+3HBMYXBk2bJlJJNJlixZglKKTCbDE088QSqVYuPGjVH1wczjuJH75iYJ2vRpZuj3ME0TBzh4pMhP/uMtzky4NGQWTyZwDAPHEPgi8LEZSgR+MKEQ2sdrVOloy/Dwg/fy9a88TXsainVoS4KvA0HzpdcshZJBaU9YrRmebILIarNICqEltiGxJfjBw4f2lM3+Q0f497d+ykSmBAsSVC0HiUQoieULTOXjC40rwZWCsl/hg/6PsQtZHl71OTYlV+N7/uxlIXPUfSj0gZRKJT799FNKpRKFQgHXdenu7mb16tUAs0b1QpFauHAhq1ev5rPPPovO0cTEBPv3748EAq6cTR7uzzAM+vr6+MUvfkFfXx/JZDKKTra3t/PVr36Vz3/+8xe9PxSA0Olv2zaPP/44u3bt4tVXX+XnP/85pVIp2t8HH3xAKpXi61//OgAbNmxg48aNpFKpaLomhKBYLDI0NMTJkyej72LJkiW88MIL0z4/zMm71BS71dmvVNBXbfPmzbz0y5dQvo80JGfOnGF/7z7WrF192XN1NYR+uMOHDzM5OUkymaRUKrFhw4ZpDvhLYRgCIWHXrod58KEHMacVkAv2fPghP/nxT6LuIcuWLeMb3/gGhUIhyF+cRWAul/PXmhIT/jQMg+XLlwPQ1taG67p4nkdnZyelUonPfe5z0Xmd7T65Xm5KHtqFNDONEqCMIHx+vg5v7R/kf734GgMTdRwzg1lYgGtauIbAkwrVvNslGkP7mNrB8Kro6gSP3b+Vb37pGTqyBrVGg/YkuD5IDUI319cUatZZnA5zxIRACYluLreiFWgPlOejvMCfU8jkWbJoKW5dkUzk0Vj4wqCBwpcaLVRzLU8XhIOVAtd0eGP/2/z2yEcURQXHaOCKRlBOhQ4+Rwm0uvE60DB9QSnF2bNnOX78OFJKarUaQgjWrFkTFSHPtM4gECjHcVBKsXHjRrq6uiJHfjqdpr+/P+qnfzWEwjc1NcWePXs4cOAAWmsmJycplUosX76c7/XF6iEAACAASURBVH3ve3zuc5+jVqtF73Ndl0ajEVlQ4VRoYmIishyeeOIJXnjhBWzbjnw3QgjeffddRkZGmJqawjTNqCA9/HuYEhIWp4c3Wlgq1LqF/dPS6fSspWxSCnzfwzQvNEFsay+wbu1ago6vCVLpJPv372NifJxpiZZcObF8JqEVVC6XKRQKeJ5HJpNh8+bNtLW1XeHdwf7Driq+5+I4TstWp9zMN5RSks6kGRoaiqzParV60flpLU+8GkKfZDabpdFoRN1KPC9YryOXy+E4DqVSadZp+o0kTc+5oGmg5tQJ4ok+5Xodz7b4zIfXD53l+z9/g96z5xkX4KSSVAQ0JPhCoYWPwCclLag5ZE0NlXFyosaXHrmf//b7v8eGBQnaDUG7JTG1T0YoEihsfEwlkEoGFtC0VtnNTrOIoLWQboqKUCihUNJHJgQyoZEGbOjZwu898mW29XyOxrBPRuWwlI0rfCYaRTwzOHM2HglVJ2N5pNIao2Cyp38/P3rtXzk60UdNVHH8KsrzEEqgFSgVFgo0vzR17V9a6JNUSrFv3z5GRkai9Iju7m62bduGlDLyi8xG6PRfvnw5PT09UStu3/cZGxvj5MmTUR7YFb/z5rH87ne/48MPP0QIQT6fJ5/Pc9999/HCCy/Q1dVFKpWKhAcCIQwrRCDstCtpb2+PggTpdJpdu3bxyCOPsHjxYqC5jGGpxE9+8hPy+fw0EWodr23b0RQy/IzZlmQLrZKo1frM86180pk0lWoFKQW2nSCbyfHAAw8EgmqYZLNZBgYG6O3tpV6vAUFRe+CrVReJ2uVuWiEEvb29fPrppySTSVKpFJlMhm3btl3anykgvPCDB4OBaRgYZrCZ0WZiWiaOUwc0lXI5KroPU1QuRdgy6ErjD2djYU5baOHl8/lIHFOpFLlcLspPnCme18tNsdCSiRTFepVyvYGdTGEK2L33JP/2+m8ZmHIw2xZCKkXV86g0HDzlgWgWmmufpFB05TOURobIW5pH79vCV555gtX3JEkAlvKxlIelXEztYmoPQyukJmghNIv3bJqoRY2DCC4CA1SzOF0DNmlWLVnLo/c+yqau9TCuEBWwjRSZXAFfGCghEE0rUuICLkp6NEyX/skB3jn0W46cO4Zn+ri6gdY+Qjejm2r2C+Fql87zPA/HcRgfH+f8+fMUCgVs22Z8fJxVq1bR3t6OaZpXzO4Ou1GsWbOGfD6PbdtUq1XGx8f5+OOPZ11I5FLjOXr0KMeOHcNxnKjZYCqV4sknn6S7u3tacu61PnlTqRSPP/44uVwu8u+EluTQ0NAV338jTmag+dC5IBYNN3hgr1y5gpWrVlKpNlv3WBYn+k9gWSal8hSmaRBWjrQe85XOgdaagwcPRtZNvV4nl8tFAYjLH2wYc9LMtBSbeyfK4hYz/3aZ3d7CConw/FxPxclNsdA8wBcmnkwwXPH5zUcneOWt33LwSB8YFhcSXoNzKhWYCiylsZWPrk0hnEkWZix23b+VP/mjJ+lZbKJcsKJPuT7EJf7d+ss6LmkybFm6nqe3P8q69uXk3TRWI4mlMwhtoTGDFBQBWmiEUE1x86nqKgcHjvDBkb30nz+FIxy0cJHax/A1Ql469+xqRM22bSzL4vjx45w6dSrKtcrn86xZs+aKYhYdalPUNm3axJIlSyiXy9H05uTJkwwPDzetjMsjpeTQoUMcO3YMz/PI5XLUajUeffRRduzYMS26GE47rgUhBAsXLuSRRx6hVCqRzWYZHx/H932OHz9+yfe0/pxLgl16dHUtZuvWLbgNB+V7pDNpjh/vY2hoCNMwp1meM6OMlxvX5OQkBw4ciB5cjuNw//33R8m0Yb5XuEkpMZpb4DOVSEMipcAwmr83RLC1vC6sAQ5ee3EDzKs/H5fOubzV3BRBq9Qb2Ambois4dPIs//TTX3Dk1FkSmTYyuQLFUgXX9bBNm6RlkzQspOtjNhQJ36Mxfg6/OMIXH9/JF598hIWJYMftFrg6kkIulqfZ/FMX/+7SXizR9HUFHreFtLG9czPP7HiSjZ3rSVaT1Mc8pJ8AYeEigi4dzbpSS3kY2qWhazhWg2Pn+nhj71sUVQlH1NGigaYBqGmSfK1BAiGC6Uxvby/VahXTNKPe8GGm+7XsK5VKsX79+shiCxfO+PTTT2dNFJ3ZyWJ0dJS9e/cyMTERZevv2LGDRx99NHpNOJ1zXfeab5pw2bUHH3yQVatWRf3JlFKcOXNm1ilQGH27GVhmklK5TN2psnnzZhZ0dNBwG+RyOVzX5cDBgySTyWagwb3m/YfnMpFI0NbWxuLFi3nyySej/Dy4sLL77RaQO42bImgYFg3g0/4z/P2//oKxmsCzcigjyWSxgpUIbhKtNFKBLQSG62M0PESlSpvh8ezD23n+qe2sXyYxgKSABhcKmYSQzc1objLapotb02fWurUQOTxFEBmVSBKYJDGRaFIkeGjJAzy++TE2dmwkVU9j+AkUZhAoEOARRBYM38VQDobl4Zl1ypTpGznOb373MqONUepU8EWjOb1ufv6Mn1dDrVajr6+P/v7+KBAwNTXF2rVrIz/TtZBMJlm5cmWUumHb9rRk3bB/VquIhaF7IQSnT5+mWCyyfPlytNY4jsOmTZtYuHDhtJB+KJgzmc0J3bolk8ko5WLDhg1A4M8pl8tRp9ZWMdNaX/UqRq2WxUxLQ8qgo4uQImqICQKlXDLpDIZhsXLFKtasWUu95nD+/CjlUpnDhw5F0dbrWaV+dHQ0CtrUajW6u7tJJBLTklfDYEZrvatqPQfNVRcjf/Es1/7N4lot0kt979djLc552obSIAzBaAV+/eZ7HB0YwWpbgiuT+BgoIVE0Lw4NEgGuj6lAKE3BtnjukV18+amdFCxIEkwzm354jCjtYTZL7HKEf7+8OWQiMZVGNy8EJQWWMFm/eANO2cf3NIfLJ1CWxEOidNDCSKIxtY/QAiU0WipcUyG15t1P3qNzQQdP3ft5LEBphdDyusQMLkzxXNeNBGLJkiVs2bLlGvd0gZUrV9LT08OpU6fwPA8hBBMTExw+fJiHHnoImL7ieJiT5Loup06dolQqRTfgihUrWLVqFXAhcfJGHL6tltbmzZsj0Q4XAL6o+P86b4arp5maIA2MZIqe5T188vEnUeb74cNH+Oyzz1i1ahXpdBalri7hVmvNwMAAR48ejZzzYYpIWF8bOttbz2ermE2zVNXFlTrAjNeqaT7dyz0E7gZr8Kbkofka9n58iKOnhiCZxzVSuCIBCJQQRCXqWqOVjyGCJ6ApJWu6F/PFJx5hzWJBtQK2booYoQ9z9qjQ5WThWlw2hqK5jp5AGUFNpicgR4HtS7cgheDUvkGqXg1tSZQOVmkPVpEKWoJLHfQ50wI8ExIdNvtPfkL34mWsXbSWlEhgXMOYZl5kZ86cYd++fVEyarFYZNeuXaxcuRK4ui6krfi+T1tbG9u3b6evry+y0iYnJzly5Ag7duyIopFh/lv478nJyaiuMbQqenp6ojy4uYhchdFXrTU7duyIctXCyoDZ9n8rfTo7duzgw48+ZPjcMMlUknwyzxtvvMHq1atRymuZNVya0KI7e/Ysg4ODUUH/woUL2b59O0CUiNoqPnOBkFfX8mouvsubzXU+xi4jHsDoVJ39nx7FNVJkOu6hIZO40saVJkoY6PBiCzelkb4iaZo8tnMna5cIGlXFggxYIlw9M1g74GIL62ots2s4qigQJIJCdyTSlyxItLF51UaWL10WLLjhgxQmsmk/6maFpkCBcPHMOo5Vg5zgTHmYKa9KA82NenbGx8ej0peJiQnS6TT33XffdV/goU9u7dq1FAqF6MaRUnL27FnOnj0bvTaMPoUXdrlcplgsYlkWhmGQTqdZunRpVAEwFzddOB7HcaZ12ginYZc7rrll9gdnV1cX27dtJ5lK4roeo6OjTE5NMTo6RqNxdT60sKpj//79eJ4XWWgrVqyY1i0Eprd1iiwtdWGbPt7LHcf047nS+bqTFkO5FNc1wmDRXXFxZLhZetTA4tDJIRxsyp6kIWxcYeEJE19IiHxeTd8EgfWVy2ToWpSnXIVMSuIrF0EDjYPAa2b4R6OI9hGFCaInyPQvK/h9EJ0S8nL+GoLeP4YAGawgJbXCAHzHoVqpYgubnhXLyeey+A0PAxOJhcBGSxMtg+WRfenRsMrU7TIj9RGqNJiqVhFYXIvIzua3euedd6KkRMuyWL9+fTQNC9vIXMvmOA62bdPW1sb69eunfd7IyAh9fX3Rf4dCB0G+0fDwMI7jRPWa6XSa9vb26LxfTwfcmeML00fCtIWZN9bMG3HWG/4atnAfSjWnYypwpQSr/emLxmfbdlDK4yt8zyORSDIxPtFMeDauOEMIH07nz5/n0KFDFJoNOQEefPDB6HWhkLcGZcKHS7CFPuRpZye6TyLfVIu/WQgZNQMNj/tSeWaRX3HG8V/p+7uVXJ+gXeHvSkOtHjhDQ30JM/RVZMlcEByruVip8n3S6RZ9FDrqCEvTOpth2116NLOl4FwVzSr3oPwAITVoHytpkcylsElQq1eZmpqkPd+GV/cQ2gAMtJD4QgTVEc2EXSU9lFDYiQTJRAaBeRVn8AKtF4Tv+xw9ejRKpA0jlGFNZhjZu9YtpFAosGHDBtra2qL6zMnJSfbt2xd1cmgVqNAKc103KpS2LIu2trY5jcBd740xpzfTZa4jIQSL71nMwoULKRTaSKXSDA2d4cyZs1fVTiisZOjv72diYoJisUi9Xuf++++Ppu7h50TD0ZfqJTZd3C4WuJbj0RfeczlaHxB3OnPuQ5NA2pZsXrOc3pMjlGseiWQ7gf8sWHk8eNQ1nwgETkrQVKoVBgbLrOrI4gkQmOio1bZCagVaIGec2JkneqZL7erX0W0JHAiNLzRKKvxmU0kXjzHGmZgaRfselpBoTyEtGVmngSXoo4VEKhOhTYRv0pbNk0vkMDBmTfu97Kha/EHvvvsuk5OTUaVAGAUcGBigWq3iOM41W0VhpnyYWDuTsbExhoeHpyW2hn2sqtVqlABqGEZk6d3KFcYvZaHdKpTyWdjRyZYtW3j77XeQhkGtVuPgwYM8++yzsxa8txJGlw8ePIjrurS3tzM1NcXmzZtvaFWxq2VmGs5M5iKwc6uYc0ETGhZkBV949AH6Tv4b56bK2HYSJSWOMEAYKN/DaDkvDbfRzK4u8sFHe3lk++M0AInExAoqCAiCCELrpmLNPUI0ow9aoGWQ8Obh4uLh4zHmnKd/8hSjk2Nk0mmqlSqmNKNwuCbIMBMCfKWRwsL0bQw3QU5myVlZLMwr5p3NFrXzfZ+zZ89GheShU1wpxa9+9St+/etfMzw8HK1DeS2k02kmJiYwTTOyKDKZTDSVdByHffv20dXVFeWZhYIWWmjhVNQ0zShKeiuE5dZH5cKn5YVjq9Udshmb7du389vf/pZKpUZbWxunT59m7969sxbktxJ+t2fPnqWrqysKBqxbty4qS5rJ5S3gyx33tZ+TW/2AuBFuioXWIWD72h4+t345xeKnVJwprKSFo2wczychmlHAqN5SIWQwfTp05Bj//FOLb31tF115MDHRqKD1drOknDBtIwpbB599qe/3Yqt7lhcKmr39g04FCIEPCAwq1KhTY7Byhtf3vM6wM4xunrmLnqBC4CgfgUDXNLqmyJNl8/JNdGTasAOPXMvLL7YuZopB6LQfHBzk/PnzQFCg3trtU2vNPffcM/sJuAKWZbFgwYIoNaDV+vI8j8nJSU6ePEm1WiWXy1EoFACivlthRns2myWbzUZtfcLC49kE+lpoTU+YjVt9wwXTuAufmU4FFti6detZs2YtBw4cJJfLMTExQW9vLw8++GCUXtNaKB9iGAZ79uxhbGwsmuY/8MAD0bKC1zHClq31d/OfubfQ0JQbDRakEnzlC49wenCIIyNVXK+OkcyhvWZtnHHhpAtpoLSPJGjx8/q7H4Bw+c63H6fDAtkUtXD/zRn9tQc8r+4AAqc+QcKsg4OLz6nJ07zy/isMTZ7FT1/4sJn3pjAMbCuJ8nz8msL2kzz24BNs7NlI1soEchYJ8OwDnq3Wz3XdqBd8SNjH7EYz4sME0FDQwkVDtNZR9vvg4CAnT54klUpFzvlQ/MLcqHCctVqNQqEQWYozfTBz5ZO5vb6d2cRCsHXrNo4cORpFZM+dO8fU1BRAZD3P/L7Onz/PsWPHMJu+5O7ubrZs2RI9FK7v+C4naPNX3K5T0EKP4sUnRmqfhFQ0GmU29HTxlWceQ717gIPnHJxaDWnlMFDQkmyokYFghYFTw+bXr+9Giirf/tpTLM6a2E25uxov/8WphFf/CqU1Sgtc4eNIlzJVhqpneHPPbkYqo9RwkNJGCYHUM/cXdGYQhkBok5RlcW/PVrau3UaHtQirWYkquHZfRFgZELaxBli1ahVLly694bU0ZwpaIpFgdHSUY8eOMTw8TD6fZ3h4mP3790dO6jAQELatDhv+hRn8/xUJ8+R2797NqVOnSCaTDA8Pc+jQoagMbDaL67PPPqO/vx/TNKO+Z1u3bgWIkmljro4bFLSLESgalUnS2SwIwTOP3EdNZpl4dQ9Tw2XS+Tbq1QayuQ8VWStB9M9H4gmNlVnAa+9+hMDnS48/wLruToQB0r+QA3WRdTTrv6ePU1/0u+ZEVunIWd9wfVzToybrnKsO8+r7rzJUHKKkSqQ7MlTcxgVJ1M0eHjIQQ0MZVMccskaWe9JL+NKu51nEItJkMDCDSooZU5ZLEaZJlEolDjXLacJyFyklzz77bHMhlKvownAZZgqaEILBwUF++ctfcujQIbQO2lGHKzYtWrQoSg8JLbTQYex53rSeZ3M1HWz1Gc1mkYYWZRjpDd9zNe1ubpTwO3Ech1wux4YNGzh9+nTUdeT48ePs3LkTIUTU0ruVkydPRiVi4cpT4bT/bvJf3QlcXxgqajsy26bIpJMI5aF9B0PDcw+v47tf/322daUwxk7SkRRkk02bK7SIMKmJJFWZxku04VgFHLODV987xC/f+pixumDKE5Q8iSeD1AgP8ETLRqt3iovGFvji1IzRNtfSRES+uGTSQEnoO3ucl3/3G06MHadiltBpRUVVUIZu5qkJTATVqTKmliTtBNQF6bE0D3U+zJ888R0W0kWKLAZW0BPNb9bZqdmnlkJcaPesddC2fGpqisOHD0crGpXLZXp6eli7di3t7e3Ytj1tC1spX80WBgHC7P9wEZOw0N3zgnU7w8z13t7e6MZLJpO0t7dHS5UJIRgdHaVUKkXHE96oV8r7uhytr2stbhdCRA0JZ/M93ipCCzl04O/cuTNaD1RrzdGjR6O0l1wuF3VqhSAH7ejRo1iWhe/7LFiwYFpX2js9qnincZ1x9SCtYdYt2q0MUiw0GMDOLQv4P/7wOXryguLZkxh+jXzaRjYXIFYIPGHREAnqwsYRaTyrDddq55dvfcQPfvQbahIcKXBVkKPW6kYTM8cXTU+nJ6TNzGALOt3qSMwUUKxVONT/Me/t382hgU9xbAfHdGmYPp5U+M38Ml/6KEOTbw8spGq5jFmHxzd+nme3PsOm9Ea6WEgCC9OXQVtxDVzhRg5FJlwq7MSJE9HalWEHhnXr1kU3x1wTZv5v3bqVFStWUK/Xoy6qp0+fjgITQgja29sj0Q2F58SJE8CFdkE3SutNffbsWV588UV+/vOf8+Mf/5jXXnuNoaGh6HPChTxuJTOFtFAosGLFCnzfp729ncnJSd58882oFVC9Xo+O6eTJkxw/fjxa5LdQKNDZ2QlcqJCIuXquX9AutUkDZBJtpFGGjZBBgbmsw/ZV7fz5H36J1fe045XH8CsTJISHof1mFYBCiaCXmm8kcEQSx8hQJsXrew7wf//j6xR9aPiBEEntY2gfK+h9gYmHidtSJtUqalEIokV/g8WLDe0iqSNEHS3LHDm9l/d6X+XE8CGSC0wapotrKBqGwDVACw8lGzRMl6rZwE8Jqm4VSwvuXbme53Y+weq2bhJobAQJDxJKYOiw8Xczl+4yxkQ43azVauzfvz9aEiy86Dds2DCngtbaCyufz0eLXCxYsCCyFF3Xpb+/n6NHj0avXbRoEUuWLIkspEajwalTpxgeHg7O+Rwm10KweO5LL73EK6+8wssvv0xvb++c7H8uyefzPPDAAzQajajN+P79+6PVkcIVy4UQ7N69O5qylstl1q5dGyUmX39A4L8u13U3XM6o14iguaMwg64aGhp1l7RUZCU8f99SvvtHX2Zx1mTq3Gksv46pXQztIVHBDS8NFAa+sHCFTaFzOSXf4tX3e/nh/96No8HVAiWCjqCgmkXhPkL7hEIWTC91NLLox3SjLeqs4guNLxQ1v8R4eZhSfYK6X8UXPr4M1kfQaJRyAR8tFFpApVwBFzZ0r+G5h59mdaoHs6bwSjXwPSwlglWstEKgEOLywY0wQhZOV44dO8bChQujXu1Lly5l0aJFN22KpZRicnKSRCLBjh07aGtrm2al9ff3R9nstm2zYcOGqBV2o9GgXq9z+PDhqA34XBDe2GFdabjIbVtbG0uXLo0c5zPTaKISppaft4JNmzaxfPlyKpUKuVwOpRTnzp2L1m2o1+sMDg5y4sSJaF3SlStXRqVOl64EmHvCcwOz+ydbf3en+/SuU9DCjhmX3oIZocZAkbElGVOTMTwaGnZuXsCf/9GX2bZ6CQm/QlK4SL+OhUfaNpullBKkREuLSkORbu/Cyi/klXc+5B//9ZdUlWh2xpVozMArL4LREX1BYcJrmPcWCokIHGeuj1ICx5dgJHFlijomWzffx/333097+4JgsQ23MX2Vb6WQSpMQFrZnUJA5Hlh3P09uf4LldjfK9bA8i6SZBi+MeqigNa9srurS7Fo72xM4rF0Mi5Wr1SpjY2PRSt1btmyZta/Y9TAz+ztMkM3n87iuy5YtW6JM90KhgGmaHD16lOHh4aiJ4dq1a6PAgmVZjI+Pc/z48ahX2WzpGleyPFrXzgxTSQCOHj2K7/tUKhXy+XzUpqi1miL8rDDtwTQvdI+9GTfkzNpFpRRdXV1s3LgxmkpOTk5y+PDhqD+alJJPPvmEYrFIR0cHSinWr19PT09P1FnkZo13Jq1CP7Mq4G6zEG/gETCbkAHNbhMSv2k1KQyCqaHUPqbW5Ax4eFsn//OPv87SjhzaKWMLhSU0vlNDKhepvcC/RpB062uBj4mZLvDORwf5f//xZ5RU0PSx6HiU6y71egO34eH5aloHgtYh+14D5VTB98Cy8YQJlskHh05z5LNJql4KjwSP3/sMzz31JZJGmoSw0a5PaWKKQiaLKUwKyTxWXaDGGmy9ZxOPrt/F+sx6kqQxGiaIJEGZl2jObxVIDy18tAjtxtkv1nB5sWKxyNmzZ8lms9GCJx0dHZFFcrNuTrjQ5jmdTtPd3U02m42Kz8OeXRBYSp2dnVHPrkQiQaVS4bPPPuPgwYPXlSMXRlxndtjYvXv3tCDAzAVuW4+h1cK5kejm9dzQYQS4p6cnamrpOA579uyJOmfYts25c+eijiQdHR088MADjI2NXdc4b4SZRfmz/T38ebO6AM8Vc2jTBnM4IRQSF4mLIXykUFGsQDdXE88BZgPuXdfGt/7gSyzIpagVJ8FrsLAti4WLTQMbF4vAx2YIhRTgIyl5Jm98+Cnf/6eXmFJQF2azRVECT5hRCfusB2wa1Lw62jaoA8NFh71Hz/P//ctL/D9//x/8bt8QhreAFB2s67yX33v0i+TNHCksOvMFapNFEkYKt+iTd9LsXLaDJ9c+wubcRlLkMBophEw19V1G8RFlhMXqfjARFlxynGHEsa+vjzNnzkT+rXB6F+aezaWghZ0Upp2rpqjt3LmTfD4fraqdTqc5duxYZDUmEgkefvjhaIXyhQsX0t/fz5tvvkmxWLzmsSQSiciBHv77/PnzfPTRR5w/f55kMkk2m2XhwoU8/PDDV9xfsViM1tW8mhSXG42YhtPfjRs30tPTw/DwMG1tbVFb83q9zsjICOfOnSOdTkcCuHz58mhlpLvVQrrd3JxJemSs6RbXVbAmpkBTa7h0pSBrwIPbOvnun3yDZZ05ps6dojYxjKUamNrD1B5SNQVRG8EEViYo6wSO3c57B07wgx+/xZkphbQFlm1j2SmEYYE00EKj8PCV2/SlSbQwsDM5hDAZV5qjE5P83X++yNFilT2nz/LDF19j75FhplybBfTw0JLHeO7+38eYNMmJPFYjQaJiw3nFuvY1fG3Xl9mwYB1plQr+JtIXpr+SZpcRUM1Irp7WbWR2LMtiYmKCAwcO4LputMRcMplk/fr1N806mw0pJWvWrKG7u5tkMkm9XieZTNLf38/Jkyejqea6devYsGFDlDrS1tbG0NAQr7766jV9XmgFhGklYTXC22+/TX9/P+l0GsMwqFQqPPzww7MK1ExhXrRoEalUinq9zujo6DUf/7ViGAau61IoFKI6ztBifPPNN7Esi08//ZTJyUkASqUS69atI5vN3vIk2qsVzNY8wKgN0YxWQncCcyho4U1qgLBB2iDNph/MQEsDhERIjW0pXO3+/+2dWYwc53Xvf19V9T77wm3IIUVSCylSzFCiBNukKIuSLFFiLFnXsgI4lmP5wQ+5gPOSF7/7wg/BTXCBi1zgxgkQA4rgOJYtRLZoSLkmaCkRQImSSC0kZZGyuWg4w1l7r6rvPlR/NdWtnpmeZs/C0fkRg252V3UtXfXvc853zvmIEYja/j/p5i+eepg7tvXilEbJ2D5+sUh+OofvgefZ+H4MnxRl0pDuo5DoZkK1c/SN0/zb0d8xnINsGQqlEqigJaSvfDxVxtUlfHw0FvmiplSKMQWcGhnj7/79F/zX5AiXOpMUNvRxrlTk/770/3jz7BhxEqxhM/ete4Cv3HYYe7qddLmb9vE0X77pSzz5pccZSG0koZPEZb2rngAAFyBJREFU/ThJlcDGCgYLbI1vabStwLJRxFAkUMRR85x2pRTnz58PC9G11kxNTbF9+/ZwEuFWMt8Faaa6A8JKAsuyOH78OPl8Hs/ziMfjPPbYY/T393P16tVwVvff/OY3vPrqq0xPT4fxuVoLpFwuV8WNTDdc8/zYsWMcO3YMrTXd3d1cuXKFXbt2cfDgwVDs6+W1mYmDR0dHSaVSJJNJstlsGOcy8S2TEGxm9zbnJBrzqzcD/WxEO8vu2bOH3t5ePM8jl8sxNjbG+Pg4H374IaOjo7iuy9q1a7n33nvDkrPZvp+5/qLndb7v1IhmPp/Htm2Gh4eZnp6uGoyK/pnzY9at/Q6jbaiWe9CgxRaasUBstPG1KhaJVqrSlEKbegBsfByCcoUv7B3ge898nbWdcSZGLxGzPLo60lhK42sfF0XJhxIOBZUgr1JkrQw5u52Xf/cm/+vHP2faBSceD+Lwyjal7GApLGw8FEXXpmAp/vPMCH//Ly9w+o8jZJ00eTtF0UpQtFK89u5H/OtLx3nrdJY04JQ62Lf1i+y/9QC9Xg87+m/j8D2PsD69gbhOYHsxlLZR2goShZXGt0HbCq2syLkI2icFDTJnt9Gmp6c5efIkU1NTKKVoa2ujq6uLTZs2haOGS33hmPk+U6kUExMTFItFxsbGuHjxIul0Osy5Onz4MB0dHVy9epW+vj5isRgvvPACzz33HGfOnKn6TBP4N5UGptgdCBNTjx49yvPPP8/ExATxeJzh4WHa29t5+OGHw5HOepibubOzk0wmw9TUFIVCgcnJSSYmJqpaiSulQsuyNu+rmR8Ps47jOPT09LB161amp6dDl/zXv/41ly9fDoXi9ttvp7e3d8lyzrTW5PN54vE4vu+HE+LEYrG659N0I47O3BX9ASiXy2Ep3HLkAUZpqX1rXKlgHHGmv2z1ZDMz7lYweGCRBsoKdt7cy9NPHuEnv3yF4alS0CXUAghqJ11sfBWkdGDZwZwElk2uNMmxNz8gFfsFf/nMV+mJB41nNQ5KgY2FIobrQrYE56+W+Zsf/5QPr40Q71uLX04Q03FiboyYr1mz5XZOvP8xxckXKH/9MAd2d9Mf38TB7Q5D/dvpSbbTkekiO12gr20trlVGa4uwC4ip1TSpZjp6zDNnajbGx8c5ffo0WmtKpRKWZbF27Vp27tw552zoi8mWLVu49dZbOX78eLj9K1eucPbsWbZu3Rq6iUNDQ1y+fJnf/va34b4Xi0VOnDjB5OQke/fuZd++fbS3t1fdwLXCcebMGY4ePco777yD67qha6mU4vHHH+e2226jUCjUvQGNWAGsWbOGcrlMOp0mmUzy8ccf89xzz3Hvvfeyc+fOcJ3oj4fpM9eK8+w4Dnv37uXUqVM4jsPIyEjo9prGArt27QqPb+62QK2hr6+P/v5+8vk8Wmv6+vp4+eWX6enpqVtK57puWIqVzWbDARutgx54juOEltty1502t3VlRGuGqJgF/yeyRG0umIWqDP7ZCvIedNqQA+67ayOu/TA/f/k/OHv+jxBLo20fbSXADixAL3Rtg23aqU6UjvOfpz6CH/+cv/7eE0Exg3LQOFgEJVFlBZfGivyPv/8Jl/OKWGodyVgPft7H8h3inoPSmmvTRaz2bs6NTfBPv3iRXPFL3L1rM5tSG9GpHlKkyJan6ci0kS8XcGwnUrWgzW41UK1pTmf1zWMqA0wr5lKpxE033RROE7fUmAk87rjjDt58801s2yaXy5HP5/noo4+4ePEiAwMDTExM0NHRwUMPPURbWxs/+9nPGB8fD/usvf3221y4cIE33niDwcFBNm7cSDqdDnu75fN5isUi586d4+zZs4yOjtLe3h4mmY6NjfHoo49y6NAhSqXSrPWO0f93dXXR3d3N9PR0mMz6+uuvc/bsWfr7+0kmkyiluHbtGtu3b+fBBx+kv78/XL8V4rJ3715efPFFRkdHw8EVM8iTTqerEpMbEbTrvQYGBwfZsWMHx48fD0V1enqaX/3qV7z++uufaUi5b98+hoaGQou4XthgpcTQmhI0jaqIWnU5+GynOdqhVQEoG1RlCjs0KTvI608BZeC+obUo/wA/e/HXXJ0qUnYssp6PbUO2VMKyEmCpimursBPtaN+m7PuceP88/+cnx/nCnXdwy60dpByYBkpleOety/zildcZKcXw4h3YyqKYtYj5MWzfJu4pXEsz7pZZs7Gf/ITHRxPj/MO//pQN676D05VkXVsbnq9J2m0oFE4scIl1oKCVg1TmRDVMsVgMLYgPPvggNOGVUvT29rJ79+7QHatNVr3efmPzYdySHTt2MDg4yOnTp7Ftm0wmw5kzZ/j973/Phg0bQnFIJBLs37+fNWvW8Mtf/pJPPvkEz/PYvHkzuVwunPHd3CDGnTEDAsZaSqfT4c2Sy+X49re/zf79+8Pjj07WEiU6J+ehQ4d45513OHfuHJ7nkclkcF2XqampsAypUCiEjSoPHz6MUiqM6aXTaaampnBdN0y/qJcqUkt0v9ra2jhw4ADPP/88nueFOX5Xrlzh0KFDrFu37jN5dI2Qz+cpl8u0t7dTKpUolUrhvs0ljo7jcOedd3Ly5MnwvHd2djI6OsrFixdJJBKh6xiLxeju7mZoaAitdfidGZdVKRWe7+WOn0HTgjZjkS10LaBq1ieLSlvtyiuWUrgeHLhjgJ7M1/jHf3mBD/7wKe1rNjGez5O0E0G/fu3iBV5dZSTRxlUOJZXk5y+/xoXLE+y5eBs9fZ0UCnnefed93nvvYyaKFsV0Ny7xmVpTX2H7lbpOCxLxJJeuXKbTKmEVsuzat5P+zm562mKBbWgmcbVMknGQhqEiFqmmcnE28B0bd61YLDI5Ocl7771HNpvFcRxSqRQDAwNs3bp11hjHYpNMJkOB3bp1K+fPnw/n5CwUCnz66adhoisQBtsHBwd55plnOHHiBMeOHePChQthuyGoTp6FmUB2PB4nk8mEuXi7du3i8OHDbNu27TO1ofVu2tok2m984xu8+uqrvPbaa4yMjISlRVNTU/T19XHt2rWwYaYZuDACl8vliMViZDIZJicnWbNmzYJ/QHzfZ9u2bdx8881cunQpLGPr6enhpptuCs9Ho4Jgjs+0TR8ZGQl/GEwL9bk+y3VdhoaG+Na3vsUrr7zCqVOn6O7upq2tLfyMtrY2IIjntre3E4/Hw+/bDB6Y78q4mbW5bMthtS2RwxsRs5p3grlIzEXtY2uHmGVjlWDopm5yjzzEvx39He9/8int7b1M5HMkUkk8ZeOqSk/ZsORJ4yqHzvU381/vX+HtT4ZJph2y2SyxeBqsbgoJG1fHKhObmEQKH5TGs8HHh0KONckEiVyWh/bdzZMH72R7e0VI8nmwU4ERpit5s5V2QCpyjAv5Ks2NbALrBw8eJJVKkc/nQ0GLx+NhR4ZWBK4XgrlAHcdhz5494SCACQr39/dXdcMw+5lMJslkMhw5coQHHniAkydPcuzYMSYnJ0PryJRzGbfUWGv5fJ7du3ezf/9+brnllrA8qF6DxPkYGBjg6aef5q677uLdd9/lrbfeQinFhg0bGBkZYePGjbiuG1o6Wms2b97Mk08+SSKRYHh4mE2bNrF+/fqqfnSNYlkWg4OD3H///ZRKpbAzbVtbW1Wp00LJZDIcOHAgtGTHxsbYsWPHvOsZC/fuu+9m165dvPfee7zxxhucPXuWzs5ONm3aFPa0GxgYoKOjI7T+du/ezRNPPBEmUTuOQywWWzEup9JNnMm/+dv/yfe///0qV3LOjUQLJzH2C5WEWw3an1lGK/IFl3gqw7QL5Tj8xxvD/PSlV3j7w49JdvWiUhnKlhMUsXsaW6lKcXoey7fx3DTxRJrR8U+xHUimkqBtPO1UBhQqMQB8FB620kHSru+i8Chmx0lbJQ7duZNvHrmfXWstLNfDUuVKmWgyzFAJcsyC0qoZQVPhv1oFrx0UiF4IJsfL1Eia0h3btsMbzZj5S8nk5GSYqmFa35gJUYAwa18pRT6fp6OjI+y0kUgkQvfEtEU6deoUuVyO8fFxstks+XyeWCxGMpkkkUjQ39/Pli1bwq4TuVyuKq5TK2jznQ/XdUMrODpgYJJtIRBiM9pqisXN89qk4/kstNr3C4VClZtqkpFNGdRC611Ns4B4PB62lDJF7/PVgEarLMz8DyaGab4j3/fDc2QmkDYWWzR9xSwbnV6v3uNCMefvhz/8IT/4wQ8WtO6iW2jGuVSfea32yYy7lkzZuJSIxeJo4N6714B9EO3nuDSeI69S2LaD6+pgWnsstJ2gTCwQy7hDzitidXSg0eQhHEBA66B6oVKipSr9jbQNxWKJNC5d7hT37b2VZ586xMYOhaaE5ZSCRGFlE3ReszETC8+0a4webeWYa77TyDtVGIvGxClMPMmkM5ibbanRWtPW1obruuGNEo1hGcz+mVFCCOIvRkiA8HHPnj1V25jtuMyFXRukXuh5iFp20QoLs38wM/NV7baj7mujN2r0fZMQHRU5x3GqOtEu1IXVWoftus05NfveyLpmfbMvRsDM61GX0aSzRD87arHXlk0tJF9vMViScv6ZiFm9A1Uzf9rYOD4KFws3zOC6Z2gD3/3m11jXnSY/dQ28Eu3pODELbNuq2FoxXBXDtYI2P65l4Vo2rmXjWRaeAt/SQecMyw/qKnUZr5zD8otk4oqrn5zjvqGd/Pdv/SmdMQ/Xy6EoonGZ6TvkoZUHymOm2WW9Y26M6M3SSHB1OQKwrcyRWomjY1FW4j5FWWn7d70WWStZOXO7V3K4lJrJ47JU0BwyRWBK7tjezVNffYTbt24kSRE/N07K9ivth7xKQkd9gTEpYr4Cz/JxLQ9tudiU6YxbxHJTFC99wlMPfJlnv/loIJQoYnYcXem45mOFpUxa6UqRuZm8pfqv4cOuiNNStYpplpUsQNfDXNn3y7HNG/n8roT9X5S7aOE3dnRp45QFvdRsoORqOixIWXDf3g38+ZOH2dyXoTw5TMzN4filoEmjNo0d6xNInUYrH5SHwsXRJdKUyPh5njy0n6ceuY+BLkjFIBW3CSY7dvCJYSRzJuLXGispap2thItCEBbKSrlmF2Eau+rHED3bGwTxrTCEplHKwddBgqqlfdKOFeapucBdN6cpPXyQF146yonT5+hatwWVSlHUNnkXSt4ck88SWFUOPj1tKQoj40xPjvPw/ns48uV72LbBwvIgVukdqTWVGd9B41dSTVRFcq+f2v1sJLlyKS+e2rhJve1H/19v/1u9v636vGhCc73PbMV2ouej3rmcbZ3FZKGfv5BrcSkqHeZiUQYFZhUz83zO41VV2mfhB+22KytZyiIB7Nu5Frf4JZRSfPCHUWJOAieeppDPYsXTn9lIVGiLuRy93W1MfHqZtC7wp1+5jwe/eCfbB2IkNNh+kMqhtY0OmnTgKzM3qDdrYP96WSm/cp9XGhWcG3V7nwdW3oR/yoxEzox6oipupNZY2gLl0BeHLwxtJZbI8I8/fYlPRkax2zW93V2MZ0v1P1qDrTXru7q5dukCTmmaxx7/Co/cv5dNXZUkXb+MUi5Kq8r4pUm0CKRMtdA6u5FYiNjeSMK8WJbZQra50s7XStufhdCS+3JhMbOFhs3N4GKQ51XJJCMFrI3DF/9kLd975im2bejh2h/PMTn8x0ovNV31Z/saW2ti2iVWniZDnicevpfHDu1lfReUCkVK2THidpCLZhJlldk+RLPL5vibexlBEBaP67bQZo2ZNbTWLO9WvR2JcwDgo3SBYCQ0QQa465YMiW8e4X//wz9z4eoENp0UfDuczTsej+OWXVy3TEeHw7U/vMt/e+wgRx68k+6kRxqIJ11ivsbxC2jiBMlpoJQOk3CDqZAt7JqE2epftNbEXVYS8yWOLvT9pWa1bX+pKkOWanutpGUWWnNrNWLDmNetiAvoY2sXW5eIAWlgz7YOnv2zr7JzsI9EeZJEaZK0l6Uvoemyy2R0jnVtDtOfnucvnj7C4S/fzYbeJB0JTYwiji7j4KK0F7YMV6qSfEswv4HtB3WfMxZbdI/FBhOE5WblxdCqmMlJg+gvhwpmLq8IiwPEgS/u3sjmwe/w45/8O3+4dDVoopdTOPE4yVKJnnQfz373z9h/zybaHHDLLvGYabhoBZ+iKr9Ipiwr8iAELCRTXrjxuJG/vxUoaHO5b9HxTzNpr0e24NKTTHAx59Hu2PzVs49y8VKO4eFhLpy/QF9fH+s3rGfbth4ScXAq6RiOFTTF1loFtU8Vg1UrFQTOtG5gNFMsM0FYKSyeoM1l1UTfq6sFs+SQhfWYgQVlKXDw6UjGKAP9aTuoHfehd3Maa/MW2LclXN+yZ/p+KAXKtlH4lY62gSsbGGaBaxt00RCxEoQbhRVooc1GtKQpGrnycQgK1IPuFjPFsYrqVXQl+yNox2gGGjRaz4xLBl0zrMh2RNAE4UZh8QQtqgO11tp1akTQMdc8CwL3aI/KvHGVR2NdqXAfTMqurf1wfQ2BywlBWyFmYgiBhSaJj4Jwo9ASQWsg+X/u0qeGmFkxmN+zZgeq9qTSFUPXW8j0XQsWVeErxkq7rp0UBGEZuW5Bi0hIyHxhsebtHeNK2kQ7xAYvq88+rzvAoGd8z8gO1evYVjWqWruCIAgrjpZZaAYjbrPZOLrmceEYUVORbhezT9BSb+2FtsgGWmBhCoKw2LQ8hlbPYqu3TGu2o1r2eYIg3Pg0JWhhfeMs1spCBSbiDC6IxRey2cyx+SRbEITloDlBi4auamjEQqv6rJrnSyETVl0lrnkt6pfWbX8kvqcgrDSadjlbabs0a6EtOrPt0LwjIIIgLAeft7ZegiCsYhYtsbbZ1LO58nHrLbNwau3BWWxKsbwE4Yaj6RiaqtUAVf20NjWiEX2oFbN6UtOa1NfqPbuRuwsIgjBDUy5n3dtfz75MM3Ix1zqtkR+p0xSE1YbE0ARBWDXcEN02xI4SBKERmnc560XsFyHvIhozEydREIS5WBkuZ7TVWR1ExARBaISmBE1DfZUR5REEYRlpXtBqqVM5NOfyteuKGAqCcJ00NSigK2395ytOnyd1NWSuMipBEIRGaXqUc7aeYvX6nTUjZoIgCAulaQsNGqvdFgRBWCqaEzRmRK0e81ldIniCICwGLU+sna/WcqH90qpWnOuDBUH43LMoeWgtr8Nc0JCpIAifV1ZGYq0gCEILaInL2epuGnUXFpdTEIR5uG5Ba7g/WUSQmtIkETJBEOahJS5nw2JW+1wQBKGFSAxNEIRVgwiaIAirhsVr8Njo1OkSGxMEoUWIhSYIwqph8Sy0ueajE6tMEIRFoCUWWkP9zuo9FwRBaCHXbaHVq82sq1kiZIIgLDIts9Ci0wJIqpkgCMtBy2NojXTTEGNNEITFoClBU4DS87fgnm1dQRCExaA5Qaso1mwtuJvqdyYIgnCdNB1Dk4lNBEFYaUhirSAIq4ZFEzSx1ARBWGqaEjSlK3G02nwN837NoyAIwlLQnKDVe3EWURMEQVgqJIYmCMKqQQRNEIRVQ/MuZ71EM0k+EwRhGRELTRCEVUNTgqahftRfRgIEQVhGmhe0WlQDywiCICwiTdVyahX8zVecLqImCMJS0nQMbTaxEjETBGG5aNpCg/lFTRAEYSlpTtCYEbV6yNiAIAjLQcs71kodpyAIy8Wi5KGJmAmCsBxIYq0gCKuGlricYpEJgrASuG5BazhmZoY+Rf0EQVgkWuJyNixmtc8FQRBaSHOlT1pUSRCExUXNVoo0ByJogiCsGpqKofmex49+9CNgZtLhKLX90mp1tmpxJV6oIAifpRkLTWkxtwRBWCVIHpogCKsGETRBEFYNImiCIKwaRNAEQVg1iKAJgrBqEEETBGHVIIImCMKqQQRNEIRVgwiaIAirhv8POjzONXEv9XoAAAAASUVORK5CYII=;" parent="1" vertex="1">
          <mxGeometry x="1040" y="480" width="104.85" height="80" as="geometry" />
        </mxCell>
        <mxCell id="8MNoS9xD9SRCOR3BH1ym-80" value="" style="shape=image;verticalLabelPosition=bottom;labelBackgroundColor=default;verticalAlign=top;aspect=fixed;imageAspect=0;image=data:image/png,iVBORw0KGgoAAAANSUhEUgAAApQAAADcCAYAAADOWzEUAAAgAElEQVR4nOy9aZMk23nf93vOycxaepl97twd4AUugYv1ggAJkuIicRNpS5QUloJ2OKzwC9tv/B0coe/hUJhSKCTKpihaohWEQAgkRJAACIK4uMDdN9xl9p6Z7tpyOY9fnMysrOrqmZ7pme4e4PlF1HRNVVbuec7/PNsRVVUMwzAMwzAM4x5xR70DhmEYhmEYxsONCUrDMAzDMAzjQJigNAzDMAzDMA6ECUrDMAzDMAzjQJigNAzDMAzDMA6ECUrDMAzDMAzjQJigNAzDMAzDMA6ECUrDMAzDMAzjQJigNAzDMAzDMA6ECUrDMAzDMAzjQJigNAzDMAzDMA6ECUrDMAzDMAzjQJigNAzDMAzDMA6ECUrDMAzDMAzjQJigNAzDMAzDMA6ECUrDMAzDMAzjQJigNAzDMAzDMA6ECUrDMAzDMAzjQJigNAzDMAzDMA6ECUrDMAzDMAzjQJigNAzDMAzDMA6ECUrDMAzDMAzjQJigNAzDMAzDMA6ECUrDMAzDMAzjQJigNAzDMAzDMA6ECUrDMAzDMAzjQJigNAzDMAzDMA6ECUrDMAzDMAzjQJigNAzDMAzDMA6ECUrDMAzDMAzjQJigNAzDMAzDMA6ECUrDMAzDMAzjQJigNAzDMAzDMA6ECUrDMAzDMAzjQJigNAzDMAzDMA6ECUrDMAzDMAzjQJigNAzDMAzDMA6ECUrDMAzDMAzjQJigNAzDMAzDMA6ECUrDMAzDMAzjQJigNAzDMAzDMA6ECUrDMAzDMAzjQJigNAzDMAzDMA6ECUrDMAzDMAzjQJigNAzDMAzDMA6ECUrDMAzDMAzjQCRHvQOGYRiGYRj3C1Vt/4oIQPv3dsuv4na/MxYRvd2ZNAzDMAzD+BFBVdvXeDy+rZh0zrUv7z0igojgnDOhuQKzUBqGYRiG8SNDCAFVJYRAVVVUVUVZlpRlSQiBsiypqgpoBGZgla4UkdbKuSwksyxjOBwyHA4P89CONWahNAzDMAzjoaCqKlSVJFm0hzUiUVWpqorpdEqe5xRF0QrLRmh2ZU8jFveyODYitFm2wXtPlmWsra0xGAzw3rfiM03T1qLZZXm7P2qYoDQMwzAM46GgkSyNIFNVRqMR4/GYoija5YqiaEVk97ddQdkVdfsReI3VsxuX6b1fEI9JktDr9VhbWyPLsoXvTFAahmEYhmEcIt2EmlUURUGe562YXHRhr5Y1zeddi+PdCLvbrbtBREiShCzLGAwG9Pt9er3eLouqCUrDMAzDMIwHTGMJ7AqvEAJ5nrO9vb3gzu5mdd9O0nSXg7sXdfuVS81+e+9J05Rer0eWZe3fVUk997pPxwkTlIZhGIZhHBsa1zLEWEWIsYzT6ZTRaMRoNGrFY9cFvd91NzwoQbm8/ia5p3GFDwaDhTjLe3XBHzdMUBqGYRiGcaxosrHLsiTPc6bTKdPplLIsF2ISuzGS+42DvJvl9/rt7bjdekWEXq/HcDhkMBi0Fsvl35mgNAzDMAzDOCBVVTGZTBiNRgsZ2xATX5xzKzO278RhSJ797EeSJKRp2pYeaiyWDzNWh9IwDMMwjCOnW9ZnNpuxs7PDeDxmNpstJNJ0rZJ3S1fsHZU9TVXbMkdNjczhcEiWZWRZdiT7dD8wQWkYhmEYxpETQmA2mzGdTpnNZkwmE2azGVVV7arreKcs8ONM12XfWF3LsiTLMk6fPt26wB+2YzRBaRiGYRjGkdKIq8Yq2S1I3uVhElj7pamXWZYlm5ubJEnyUB6nxVAahmEYhnHoNEk1jWXy2rVr5Hm+y6W9nHizV/3IB521/aBRVdI05dSpU6ytreG9f6jmDTcLpWEYhmEYR0Ke54zHY3Z2dphOp8DqbOfjJv4eBE3s6PXr11FV1tfXAR4aUWmC0jAMwzCMQ6ObnT0ajbh58yaTyQSANE3b5bp1HJvf3e3sNg8LXStsnudsbW1RVRXr6+skSdJaK48z5vI2DMMwDONQUFWqqmqTbnZ2dsjz/LbFve9H/ce99uW40WS6iwhpmrK+vs5gMGhn2TnOYtoslEfIXrfy8b1dDMMwDOPeUdWFQuUhhIWs5lUirzubzI8DjWhsMty700umaXpsLZUmKI8IZbWglPpzE5WGYRjGjwqN1a2qKqbTKePxuE3A2Y8l8scllnJZPDeZ793Pjqul0gTlIXOnR6ERk81yx++WMQzDMIz90Vgdm2Leo9GI7e3tBTf3KrqxkgeZLvFho3vMzrm2nNB4PF6IKU3T9NidCxOUh8heVslVy4GJScMwDOPhphE9jaWtEZPLdDOZl4Vk1+X740JjqWzc21VVMRqNAPDeH8talSYojxCLoTQMwzB+1AkhLLi5m5lvuojIQt3FRkRWVbVLODXictV83nvFYD5MrJoesjkXk8kE7z1Zlh07K6VleR8iyxbKOwlKwcSlYRiG8fBSliVlWVIUBXmeIyL0er02uaR5LbNKJDaiKoRAURRMp9N2PuzGNdy87879vaoYenedDxOqSpZlnDhxgvX19WMlKk1Q3jXd03Xni9h1X9+LoFQNCIqgIH5f2zQMwzCM40RXwDXWx8YaeSdBuer/jWhsXk1R8Ol0Sp7nlGXZ/q5xH/+oCMomhnJzc5PNzc2F2p1HybF1eSvAionR97r0e2VM3wuytEZFlzaggGM/gwIFqvpvYP+Csnk5Aa8VogHEYYLSMAzDeFhYZWlcVWvyTiwv55zb5TZP05Rer8dsNqMoila8FkVBWZYLVsuHlW5M6q1bt0iShBMnThzxXkWO1kKpOn9Bq6AqHAGgAKfgs/h1Bcw0UCqocwjgAUcUZ2X9qgDR+AKikiNuxzvoeUdSf1xUFeIcSRMMDMQ9yEEroEJxgENI4hZVcLJ7RLXqJs0VbhbwXy7Dl783YZKX6C7J2l2JUsy2+chTj/BLn/U8n8GpMMFrDm6IcvwCcQ3DMAxjvzSlgrpJJ3diWarcrh9sXN+NoGyKqM9ms10JPsvzhj9srK+vc/78eZLk6O2DR7wHnShBAUQJKIEQbYCpI1QwDTBysKVwdeq4MYJJCUGhLOuXQllBXiqhFpMCeCekEtjMwDtIE8cgrd97WFv3aA5VBYM+eIFEPCfcgDXpuqoDgiNVSFRR2Z+tUAXevV7wh98c8ZXXR8wqRXG3yfYO9PvKn732AhdvfYSP/eo6myJ4DaABhF2me8MwDMN4WHjQhbmTJFkQWP1+n+FwyHQ6bYVlWZYLpXkeVppkp83NzaPelaMRlG3sAoLWmjIIzKMFSwIledHng6vw8rWSv75c8Pqkx/u54/J2yc4sr+taVRRFiTqhAsoqIL62W6oQVOmFKReyKWjAO6GXOBIHiVNOn9gg847Mw+mTmzgRPBU/uT7hmXNDTp9wnFqHFIcHNgCvgmgUvXcSdhXwwfUdXnnrfQrOUjpXWyj3+l2gkIoiV37w+tsUv/oJShxZ5zcmJg3DMIyHnbvpyw7S7znnyLKMJEno9XpMp1Nmsxl5nreJQg9bLCXQ1vYcj8cMh8Mjt1Ie2dZjqn+I3m6B4D23gIvAe7OE77w15i//4nWu3XCMSsetMmNCnyIZUIhQoihKUCUERZ3EGEOXgiZtvGEACunxxqzP/H5RPIqnIt0q8JQ4rRBuIgKeivM64ZQvGCQlP/HoaT7y5CN8/CeGfO4c9J1GC2Pn/t7rXi+BSUgp/ZCSAdNCkXrfRKKZUxZWFKjKCdngBIUo79+EcycyglccyeKyhmEYhmHckW5ZojRNGQ6HzGYzRqPRQrb4w4aqtlbKtbW1XXGlh8mhC8qmZlQTx6DiuJo7tjP43sWCL734Di/fyHlzu2B7Z4Oy3EBIEF8LRfVUBILUL5QgoNJY/nw8LI3CK1C/db16B+ikXitOSxwBL0rQmDbjCIzLiouzKX3d4YPRlG+99D2+8Iln+NBvnGFzoPMZbVbou+5HUdCmVC6jqFIKCa2gRNyuUZcQEAKOguCUWdUk8/RsSkbDMAzDOACNsPTek6Yp/X6f6XTKzs4O4/H4oRKVjX5orJS9Xm+hQPxhc6iCsjsFU0OB4/tT4Uvf3uLbb/yQ13dK3hkVVINNSE+CrOHV4yuPDzHGMUAbaxkIqEQZpuJAZGHqwvnGOx+2XwpBUgJQyuL3sxRSB4OQk1c32NCUt68rt6YQBnVRVQRRbc2T2pF80tlUJa59BeeQWvw2+9tFUHyAQBGtr9C+rC6lYRiGYdwfmvI7jeUSYDKZtPGV3eWOMyEEJpMJg8GAJEmOzEp5KIIyWiIDlcxQKoI4tqo+kzThyy+X/F9/dpF3th2TcJbcpVFjlSnIIFok1aEuxlmWNFbBKMhUJeaqiCAIbsX8hs1HKruFptM2H2j37zyMkoxQrcd99j0mQNWta0WnzI9IrBcJdKWfSoW6+IoViAIqPrrll+5TVYHQw4UcpyWi1DnmJiYNwzAM437jnGtjEJu5xrsZ4Udp9dsvVVUxHo/JsozBYHAk+3BoFkrVCpUpFcpUBowSz394NfBvvvk+L1xfZyaxjpLUPmRXAk5aERjd2strlWjhk5ih5YgCsf1W5yIyLNeVpM4CV4libVlpSk7hPJVLGJNBNWMHTwEEDTgE1abSkW8OsrU4dndVJJYfgqp2kzcub3arRJW65FGCaMBpIybN4W0YhmEYD4JmBp8sy+j3+9y6dYvxeNzWszyOgnJ5n2azGbPZjCzLjsRKeWiC0gOumlH4ATsM+f3vXOff/tVFXrgxQH2/FZL3xuFdaO28ZMni2ZV83fei2uavO5GYTCRaF0zfZTNFEKQRljSvEmmrbhqGYRh3jY3LjX3Q6/U4efIkg8GAnZ0dRqNRWzvzOArLhrIsmU6n9Pv9I7GqPhBBufzMiggBz06VctOf5Muv7/Bv//x1XpmdYNY7gy8SJMythtHKd3flBKTZ8F7LNBbBhc9u/5tVNK7z7k/nFs+m9IDU5lGgFpDx88UM78Z1v2JP53OP0gjK43sTG4bxYLjT9KzG/mj7JInvTFcat0NE2ljExtLXiMrm++NAd+ah5n2e58xms121OA+D+27uWhGKCECFZ5yd4btX4fe+/gZvF5uMs7Pg+oQ6llDRVqzJgmjb++LJ0uu2C95+VftDYv3MIILWr+UpFRuJ2Z6LVnnGOE+50x53vzoe961hGKvQsCvR8L5vYo/XgdaoTarfca29d3+OdK81G8ZeNGKxMer0ej1OnDjB+vr6kdd53A9lWa5MLDoMHtzZaduCmJ9cOuHtQvjjl67zjXdnbK9doMRDmOGlX1vuFn+sIoBbFFdH3BrUdsZ2+kSAcEcLaRMA2rU3rlaKzSHGxJ3QxoB24z4NwzgGhKqOm95dreFuOPT4LA2gRWyTxKF42uoUx8LyEqPe5w3qfP8OskZZeGMYe9MVlRBn2mn+PxqN2tJCx+N5WaSqKvI8pygKer3eoW77vgrK3ZMXBagqihLyQcp/uQz/6ZXLFMMnCOEEEtJYejzs9kXv0mau1mSBerJu8E5xVYFUOYloTOJR5jPRqEJovM9SZ1jPM8K7f5tGJmakC1Pfaz9Lqh2S8hYUAwjDeurERZd03G+db0PnLm9wtWCus9LbXPAVrZtqtIASYqwlTdmggLP4ScM4FqhqfMZDQDRhlsIOkIWKgfMr2sL6d8wrNsyYMCwLpASyIVqXLWkGm6vHp3F4mYeCzPXIqcgrwCfUw298/epSAVOgpxW9MEG0AKlr9jIXxMenVErT0CsVwgwf95/dx7aMaj2FLrCjUJSwmTbuOFOUxt3jnGMwGLTPxHGvV1lVFdPplOFweKjJOfdVUDZGyXnpnjjKrILjJvDV93Z4pxwQ3AkoengFVQfSSKfOeqTzv6BQutgi9KGXgs9n+GLMehJY7ymzyTZFXlC5OOJuLIhSJ7k4HNI05Rq/ia7rejysSlUFVAMVDvQMOE8WRpxixGYy45HBgJ6HpmlqGvBGVGodpymq81wbpd5unautRMvrLn949zwKKkqQ0HH8PLxzjRrGjyQaIAQIMM3gMtDLlc0+5KsWJ7aIKVEUVXgGvkDyKn7TxvvsdvYu1qioyMVRIOQk7LhYTg3aaR1IWJRNOVFQnhNPzymUeS0oQcngWGWxNmcqWg5yhJvA96/C2R7423mp6u4iTaA/ABykaZwyd9HXY7LSuD3d56F5PxgMWo/CeDymLMu9fn6khBDI87wVlYf1bN9XQSndN02MTpqBhw924NXXfojIScoizMv01LUZV68vxCkSJdDLBK8l+c1tHk+3+Ym1nPUNx9mNHhdOrbM+PEV/OMD1em2JIVWoopE0/g1KVSmXLl1CJTZZH1y9TIVSViX5LKdEqcQzqxxVkeFljGxf5lQWeG5wglO+kaKtPN2H3bCRnI2gFZoC7KuWjG7uULu9582gja0N45ghwtTB5QJeuAGzi9v4dMBO0t+1aAAqgV4FmSpPfiiDXsaFIXV7eed4Hqlbm1viefkWXLwG0xAnZgjURSNqr0y3rfAopzeEzz8KJ2QDZBIX1rplkXlw/3Eg7o2jIuFG5fjTV7b48vcv8/IHJYXsPrfdX4agpGlCv9/ntz97gd/5rMSO7iGcq9k4GvZ6Dpp6lc33k8mEoigOc9f2haqS5zmTyYR+v39oVsoHIyihLiQZrWo7Dl56b8r2dsD7QXT7akBEQXLoWg876/IiZBJI8m2y0Rans5JnnzrLL37kQ3zqkYRHTsGpYXSDaBUH3C6ZzywD80ic2M7WM+rwaDv+LXmkXWZn0lSLhO1tuHIJxjuetEo52U94+rHTPLIGiVQ4aWyfcxfVPNRzueHaSzquoP5pG3LZfmSN4fHA7BtGpBKYKmwDX/rrEb//3dcoru1QyoCbyfqu5YMIhXMMy8CgmvD88xf4R58+z+AMrCcOp3MXWrclbO64gOIQSpTvfAD/6r9e4QevvUUhfapkQCWeQAmUiEZ3cUNfpzxzdsDkp5/it5/bJJM+CQHBtfV0uxmjR4kiVPXe5TjeH8MffeMVvvlBxTUuUMjtizarapxWb5ry+Evv8CvPPM3GBvREagFtGPeOiLSFw7uWysNOgLkdzfTWZVmS5zn9fv9QnusHICgDgQooUBxTYEvh26+9Q9AhZdFE+FQgcTmcQ9WDznfHieCdoLMRbnyVZ04G/s4nH+cXP3WCZ0/CKYGegz4VojNIagEbQMXXCT3R/VFXgJzHVgIqjoBQO5tiIzPQdtkwcOh5EDbxbJCgeErQKq5Jqd3ojZiUNg5pURbv8f6hNTc+TILqfp7k7roe2otn3CdEhMIJI++5NIX/+splXrm1TsY5cobc0uGu3wQJzFzBBsJ6mPKdt6d88RkYnYEhuz0d8xzEJqayLgtSBV56H/76g4Rr1eNUyYBpkVD5BHUKPiBu0eLZL7aZXL3OuRff42ee2+S8DMm0wDdB38xd3o1L76gEpiKUsbVlAlyt4L18yPVkwIiTlOyRaCBLbkp1XNu+jE9gnEOWxdb9+HT7xsNG95loEnWA27q/j5PQfNA8gCxvReJ8MgRcG7vz5sVrIB+mmMXO2Dmp4wL3CD0PiqOgGN3giY2E3/7Fj/D3PgtPAYVCIk3un2ceql0Sm11P23QoiEZrIjoXgEicurGJoezWVRddnECxyeqOa1GaYPHlGbZjFmFXdDBfS2tydAu/ebho7LfxOEIdHn/wo2nuA+H+npuK+cSV+2PVwy/S7F93PY0N/GG9lsZBEUnoJcLNCi5NE276EyS6SaUwW3FLVAKFF2aS0iNhOs0pckj26Y3qhGVz9WbOTNcJaZ9CMkr1lA6CB22mDFsYwybMXMKl6S1ulHDOJ9HiqeEgCeoPhG4EZQmMHez4E+wkQ6ZhSCDd87fLcW+lJLtmWbPhoHE/cM61orIsS6qqOnbi8UGXNFvmgZUNUlybl7wT4L1tR56kaPDEAuBV/VRL3QLufsS9VqwnOb/8k6f42x+FkxNQX7KWJW2jEIgO8yYMvS47yjz5pjYc6vxvu4QuJgI1bxYtjJ2s7LZY+fzb+a+ljQvVpW+7zvDuR6smB1IgUXDB4YLrzOXt76oR1M6L+iiiHKoDAjR0jqVzJPUhOnF10H48aaG2G8TBgqAk1BNQoiHERCTfnonaduuX9obFE90GJ9RiTe7T7dgedEGT6Q9ZTP2kOd7OGWqDz7SdLz64GHeWVfUFaAYD8jAPCIz7iSBMgfEU1Au5yyh9Hbu9YnkFCBkBoZAUTROm+QxCb/6o1WvubqX7vhn8SiqERAniCXiC0A6O2991+pEiZNyo+lRMSXzUm067ATvHBwf00HoQTz0jmVDRo5ImpamLLv2V1hAQoI2XD4AXrfsMw7h7upb75v+9Xo+NjY22XE9VVcdiRp1GTIYQCCEcShzlAxCUAvhaJiR44NJNGPtHyctedGtHU15cXH3dSe9+xDNRzvVyfu7xCc9mcCoESl+BximQXCv4Ygym1g1Nc727Wqmp6zhnD+uorPx0qa2XWpMsC4u93u9G91xEiF6rBBcqfFVPW4nfd9PfSKWuPVEIJJS42m0fX0v7rwCu/q3DS0K8lkqO4slJyetllAqPC4qE2FyXhFbQexxpHaPV7lEj7kK9d1LGpCzxKGm8F5qzcD8eRi0hzOq4h/qaOaUZeCiKU42zNIU4kqgcTD2UKCmBTCvQFBWPEGJoBg5pFcBx646Nw0KAPrA2AGGMUlD5AtUECSusaOpJCkED5E6Z+hKSQM83d9Lugecqf4fiwM8owhiVjfkA1+XECmgpbrl5U08h6/hwi6yCRLRuV5pQneNzH4sqPhQMfMWEHhmOVKf4UO/nrl2N7YsQB7YLM6dpFR9/Var6hDR+JcO4F7qhITBP1AG4ceMGk8nkWMz93YjJ5u9hTMX4wAQlHQvV9asxJpJSESft4w++HnM3RSYXmY5HuAQuXLjQccvEsWdbfgfqtXVdHfWnD9LSu1CoHO5nE9VkaDZeq7tt7hsB2USOBpRCYRIcgRTnEhIXWgk/b44b9z7MLb1aW5t9HVhQ4ogJAgXgxYN4KhEK5jGpcR+q2m7cWPcUnI9aUiF1SsoUJwWiIYYaHPSGb9S0QBBH6YaU0qOsfNSz9XfNVrxEQ6w46shfKOoshUDFyFUkTvAac07nMx3ddthh/Bgwb+lWoKtsYN0ltU6GkX1byxa8Do2IrGvoSvv+zsNOAVLVeli4YteOEIWYrEnAEXaVP7rn9co8dMkw7icigveefr9Pv99v3d/HgUZMHhYPyOU9d2EXReDWzXFdCHjuNdZ2FLm3XBoOBvQkZX2td8c4nztqx9ZcuT+VKZ1/d2+rKyJvt+S907jPd5+dpdjM262DgFKSkzIiYauErVksM1I58J2eTIlecKAVXs196AU2e/DYMCOhpEdZJzQJN8RxZQaTKsbKlrUwCwoEj+9OIiLgckhzGDq4sCmcdAP6KIkosioG4F4IABVFknCLHiOFrUk89hngXHyJxL+tAVUal7/gBNYk4an1hA2iOO6L4utSK8cu8Mw4dNpnc1eTsp97oxszvM/tMHd5t9/IfteyuD7XDh1316Q4TPbcdlPG6LYL3ZmuhffuV9ONtrTIS2Nvmrm/e70es9mstQweJV2X92Hty6FMTJllGVVZ1XE7c+8jtcDc6zn1SYJonHrRO3Z14nfK11tc/O4aA0FWChzdtc6uOfRBX7S7sYo5AiUVjjEJ75fwn1/Y4c9efIsr+SbXq/OgEkcvVV3jUl0d9erqNcRIyIxtPrb+Av/r3/8c7kzCadcIc+ErF+Hf/OlbbO2U3Jw4ptonuAEqGZDWJvZ5ofeNcsI5mfDY+oR/8isf5nNPQkIPT74ypvSuzk79ALkQZxmakXBd4RtvwJe/8QEvXavYdmtxf+qoKhVFHaiL7u9U6rlDVHl6sMP//mtP8uxjA4biSVESKWrl3b/NuTeMPVh4hGXpo73vp/nUCLQm9flMX/Wvmxm/jrYf2zd7tZhzEXnwA2k8PQtJl+znydWl9yYojUWWqyI0STqz2YyyLI+86LmItHGdvV6PJEkeRpd3k1sb3YM+9Zw6kxFChde6oLn62kndbVJ2Nx6TWY72PNs7M3RtdakIoXYRy+Jo+yFpU3ejTaex3Nzu84iahliEiaZMRfggwJdfhn/9rYu8cElYO3eSvJwhOELVzPYhtfvNgzbv49+e5pz2ypSM1HkCs/r6Bt744BavXbnOtOyRs0nBkLwcUlJQEmNJ4i7F/c8KYctt8MHWNR594QofPneOzf58ZqODIiJR8IlQ4blZwJe+9Sp/+UbFODvPdkhBQp0U5lBfJxO5GLCfVIG0rEhCQHZGvPLBJR47/yE2kxgTrHU1U8O4PXdwZN9uJL0vtH625oO1pqrFykawKTbZbF6a0I34OlbtZeMi8QElPqf32qI34UNzP9LxS0IyHm6aRB0RIcsyer1em5xz1FbKRlAeVp3M+y4oA0IJpG1pHc+JE+B0iqPA0WcxSy/Urtnd5JUylR7vbXt2HoG+E1KJ5X0rbeau1c5oto5u27PFuL3c7ERhrmh2ZOHdndawervtbsZ1rFhJ44aK010sJxEtZ8Nr+6uF/6qCBkrnuQx87TX4/a+/xZvjDfTUk2xt7cBGVkv6Jr6RKCSFKLRUyAhkOmPdjfnNX/g8j2x6YpGEGEXpgCfOnmTQG/DBJKPQjCA9gstQ7+L8wk6iO7neUukSpt6zMxryrbeu8vPXzvHY49CnhL3qy+2TtosuC8hiWZQrM+G9POWarCO9U1Sd8xdUqSRQSJw5PQkTEoE0S8lCQSUxgSFdcCu6eTyCYaxCly2PS183/y41VLcLZtm1rqbNa0I1OquUtk28E9L+OWyZpSvezf/XiblxJU5TfFXRrwIzX1LW3VZzlttkHIjVJqoK72LKppMCBZKkEc1u/izvqen36ifMSmnsTSMq+/1+K+KOuuC5qraicn1992QL95sHICghR+qM4ooZkKZ9+tmYZDrDyXpnXAwijhpv5CIAACAASURBVDiP7AoHdjbgra2b/MfvzXjqfMLnT8CpcorokCCuYwMou6bKlfslC43BkhBr92fJGdKNVdJ5vFKzhoUOoBMMv1A8V+auWA3aluVRpVPGZhX7tVA2nUdHVCpQTcmzNf7iffh337zFq1t9dmQdqUp8f0AVGjGp82G8auzjfA8qpdIJ53oz/vFPP8X/8BlY1ypmf6PEvHP4mSfh/9zZYZY8RxUyIIm7VAg6i5ejKaHgxOFDYFqU6MZZLrmbvDWFL1IQIzDX9nUm9kTima9CRZJ4KrZ55Uqfl7cmbCen0KAUgShyaa5ZLLuCgGeGJo7t3pC+zhj6IZ8/c47TMnc5av2vrLiHDEO7oS+6e9DYPPtKqGc+jG1FWLjL2zS2hd81Q8rW6v+Qsdt4urvQuDYnrYoWSlyFo8KNtjkTlDIpyH1MeGibfGIJJNE4RA4aqGYF3jv6yRRkG89G28Yvn9vVe9j9bPm9PfNGpOtCboRjmqYMh0NCCO3UjEclKrtljppM7wfJA6xDWbtSFE5m8OSJjCvTKUKBuH6nod27uHmJQ5MhL7+/xbdeX+PRT0GlJ9kkJ9PJXDwKtDUM7/is3+7C3q+GYn+BTKsMXfPP6sZNlv5/uxUFUBHUOWa6xqtb8NVvT3jxzYuM3ElCmuApcKpU7axEnWPOerEy8nTMYCicml7iV569wG9+AgYKqcbYxGgnFRDhNPDTzz3DX//NBOebmnhSa/u5pbeJR41FhpXgPKMSrt4syEk5qHWyczLwgwwkY5IXvP72FUalp0qTNv+rGVosnE2txaIKTHK8u8mTT/R55NwafTfvvPYbgWX8GNOYDPdqAtqb7+6j+eYfNoPTuTWy6TjatnX5Bu/uQjur1/FyeTenTcQTy4gJm4njucdOMHnzGjvTNbzPgLmYjO9d/f9aMDrBiXDuxAbey0KpIHuCjQeFqraxlEVRkOf5kc/13cR3Hgb3VVA2jVLc9RTF4dRzysGT654XLk5wUixk1q4uARwFaRGUpL/O5Z0x/+KP/gIfvsDPfczz8WHGmepmnaLroLYw3d6S1bTiq1zGdzqww2t+pP5Hm5R4Om6gPQjEOEhBKaTHGLio8Cc/mPE3b1xkO2S4tU1C5fB6m2jFWQGJx69lJDde59MXSv77L67x0WEsNOy7JpfaItsDnnvqNKdevsaoCkxCY3Fo6oQu7aso6gJBHOMCrm2XTDUFWVs5/r+Xjk6S6ECfln22tm9SyoDqNg+UtH2yi0lK0236/hqPnzjDcG0eoNGNwzKMRe72voht0b0KuejiXnJ50zyeujgWbX+wjLQNTut5uQ+WlL3Wocyb0rmFcjdBBO8SgigOx5me8OtfeJZy+gYndibkrqJbAKhpb5rzuXNrm/W1NZ548nF+6bM/ySAtiWl48yfYMB4k3QSdJuv7qOpSHuZsOfddUAoQx48pSkoKbCj82mee5Y9ffYFQjUgGm+RlAqEAcuIc3vMOX0XqCD2lkoRpcoJLec4//8qrvDX+GP/ks/DcYECGkLhYpDdpGsXOedud5b0sVXTF+87yy/N1dVf1ANHOq50aco/NqiqhrgqZaAFEQfnVi/DlV65xcZygw9NMQxIth4HdptHmRCVRmK/n17gQLvK//Oov8alN6E22yfoDYnD8wsYZCHziMXj69BovX5wiEouAO3Gg1a7aeMEplQ+AZ6Yp718eM60GVImbz1wki8d6L/FdY+DSlnLxekUhGzG8IMzPorb/xE88FYpQKaAljw8Lnv/QGbxfde5Xz+xk/DjTMX/f5t5on22JUcVRDD6cLuwud+qw2hZ2adTYPfaYCOhQgTKNUdoJwkkPn/+Q8OzZZ0gz6PXi1LuNiSCw2GYKj7bbjFMzJAvi0zVj9V02hm4f0Z0Odj+u7m4rbW3DjyPL7u8kSVhfXyfPcyaTyZHsU1M2aDqdcurUqQe+vfvu8u7GpyiQOhiW8PHHejzxyGkuX55RhSlKgkiF04JQR+Utr0dFKFVQ10c2HuW92Yg/+PZlLl+p+G8+vcnnPrrGCWCDwJAZKQmyYp7XvR7vOzbi3VZIlj47IMvit0szku96zuJr3ljNd00JVKgUBJ1xpcx5pcz4/W9e58WrBTN/gpn06hLjShBHzH+uqPBRTDYT3mvJMIMn/Ih/+ltf5PknICsD/dTHwvSdbTYMNOfcMOPDj/Z5/YNtHGF+cCvOVZzsIh5HGRxXtia8dxGefBzWVix/L6dbgQmwtRO4NYKgfRB/mwuu9TmPU0m6fspTJ1M+dNbbFG0LNN33otxf/b7zkyPqXw93090B6OqtzsVkTAhT6Uzr+pCwqp3etcxe4nLlaVkMPol3mBAcgMcD68S24dQ6bem5ptJCkEb6ufbuhMVJXeOa5nfD/nLqlhfaz920bJjoisvu3jWfH7x1aZIdfxRF7L1Y1fZrBbybocLd0lgEm2kZh8Nha6U8CkIIlGV5KG7v+yoom4sSc4Aby098nenBx59+hFe33ud6PoZkvROXtmpd8ZLH+RJSilkANhhVji+//h4v/fCH/MKnPsR/+zPn+ei6IzBgDaXfcQG19adVFwQRrNIWcucmY8Fdc3BWbasZOTezOnTF5LKgjA+EwwmUClOXcXHk+N0v/YBvvD1k4k+joUfZxJeq1MlMAacVQRy4OFuRVAW9MOHsZJu//3NP8lufTzkHVJMJvt9f2u95IymUrLmMp05B5mY4CTQ1OVdbFuuGVB1lBVe2RrxzOfCpRxzDpD54WWyG7+Vhnwb4YFsY5R4kvcNFm59bL7CWeZ46mfDU5vJiHZf/j0gDvvdpaTqq7hKBpihYRDovOp911r3kd11MZpI7XuA72b2W91EXtn+IXa3O07Zuu9jCIHGxcNpeyD6WOQz22tfls7y/Tr0ZxDY6fO4E79oGXYBES4QCCBCaubyl3XgQRSWmNQU3P6/NrF1NT9IUQtsfq67lHm4qbUyeXVtpIxibZ6WZCLdJraoDaZZnVNplaYjbCaFzhtqfdG27Dwt3cScvtLf7pXs+d5+VVT7JB3HummegmUGn1+sd6ZSMh7XNByIoofM4KiDKwAu//NE1XnwlIYyE62UvWia1qudXnt840mRKSnQtKgJpClWJIkzcOd7N1/n337jJy28V/PrnH+dvfQaeRniSgrxy5KpI4si0wquizN3q8dwuSpbbjli6bUf7d3m0cX9cHYrUoVFJtDzS3PwJoR6FL3TjIiSacuXaiOtnzvIvvn2V/+91KAdPMZtom9E8F8OeaAMoAMU5IXEOmV3nUbb4p599hN/6TMppoNAxqfdo5aGOW1qc2k1Q6eMUnjs95fzpkhujEm6NcNlg5U0s6mJdcIV+2sfpgB9cvMkvP3+KM/Fwdp3FPZrxPREqZjPPX14WtiqQZAaadS5e/Ubqcy2AODwlKQVZuc0vf/ophlQs2jaWyzg9fO4tXXq/urmO3bpSRYvzwnE3T8mylaWbr9sdCM234eqiYrFzT0ATFgIAlwx8MQVsb3ew1Pvp6jjs5n+xgz3EsIRWOXe2t6uOLDTluZp7rvVE7P71/P1DMH5ZHhOsLIe2y2Eh7e3TVCTufDOXZAKiJXGOq4q2EkR9woI0iX7Nvabt10nn7onT0Fbz7XZL160yuy7M4BY613NZigjz8m6NjFW6dSHiq4RGFCPE4rcpaK/7gNSrrdrfqXpCiNPGVlBbtZtnKbbmze+Peu7ohtXP63JgAkvv91jPXZdo6/ZO3TaqTSVduF8fhLDsZlY3ru9uKaGj4KFMyoHFPiFo82wqDuHp0/DTz57k+nevMy16TGWzFpWhfoiWmU8PBqDOoThmMqRyfUoZ8INrIy7/yTt87Xsn+O0vnuCLT6Sc6UFP41wmZd0lOp2Lle4tt2jd2A9NI7XKtHJ/7AjdeWfnDWXc804T1+5FkAROnuXPX4Y/f/EmY04zLWb4rE+oltftCbVQcFT4akpfS3rlNT79RI+/9zOnuTAEqilOFO8dGhQJ2j7cC7EiOFIHHzrtuHDC8+qNHSgzXK+PrkhmEpVoRsCBJGxPAy++fZmLt07xZMcieLcissusglsz+GDiqFwW930fpiCngTSM+dD5lLPrPdboXuVmkNOs53g03vfK3o3oYqMfu7947+22kCuLvojFiQWWbTaKr38X8PhdHeByiEdg0Uq/TFyXwyNIu3Rou43unh4uWosMXdrxVdaoh4fFa94cWH3d2wHr4vLth3uO1ucfRfetLNgGm8Ee1JbJTgej3R+3GwoL+9od4iwMhOlYijo73Y5vFr6K7VVzf3W31X1KmoGMtM+Dq5dsvm9KjjWidsXTJ9F40Ipjif0nWvdhoS6RVBd7l1pMHzltQ9n1GiwOX5ef4TtPZqH7WGaZ7lVePaictyhtDZL71HN3ttERld57BoMB0+n0SOb4buYaPwweSNmg5hI66lgC4qN0dg2+8Ow633/jHW5ecwTXYyI9VrYwUFsqYT72nD+opUCFR3wPcSUX37rO995+k7/16dP8gy88xRceqZsBjfkYCbS5J57mVp+PZpe7ndvfYKvGNauGufdA13Kx1ME2t0RjM2qcKDeAF67Cn373Kld3hvTXzrEzuUq8h/oLexjq8+dEcZSkVUF/usUnz3n+p9/4CI9vgisrEufq7SkqJbBiKsr6hCYEzvaVp8+u8c23bjGRFMfq/H1Xt9YBIUjCdi68d7Pgyg7ICamtFUpoGt57YKKe6zlcHZdUkqJBOq61vXFakZY7fOz8eR45BVMCg7ojWehEj0MDfo80/Xpg1cOvdG2COreB1NZxRzPDlaOKJaiABRcei9ZJR7TN0H4Wg2Da/mfpHl8UlLttGss4BEeCBxJKEkoW4zw77tEHznILois3rUt/V/36eNJtdeZDrYCv5XzN0sC9re624iLOtWY8XzFcanHgXLoMqSeyEN8RGdq0kc1UqvOQinmb3vzbOevS3fIicV+q+pjmRwrxXvN4Gqe81jb00A5t4uDGsxivrSJUJK1NMfaHDifJHe7/Wu44cJLjq4BXQapsfoRJLY+Pxc3THHT3ye0yvyrz/nfvHe/20ftnPuLQjqDsmkCgAm2ubEzbehDW3WadzjnSNCXLsnYGncOk2f5h8EDn8u5epBTlDCWffCThH//iM7zxr/+CYi1lO5xB8G1js9JNCnVd8cWRhIpnEiAvFZ+eoiz7/PG3bvDNl17jV37qw/zW5zwfHcJJyRkkGUI9o5c03UzX9tI86kfPQsPSGYn75jn1saGbAjerGZe0x7/8s9f4yksF4/7jjMYFUKJVAczjH+en1lORkmhBv7zFY8kt/uHnP87PnoeTulOfkx6VJm1DrxLr3kmgLtcUCRLoo5xLcz791Gl+77+8wdraI0yrgCS7by8hFrGvRBgHj082uVrkvPp+IHs8OqUKwspop/1enbGDv3mr5IMbOblkddRSRVBXN7yhPhl156PgVUm04JSf8ZlHEmKT3YjJ+V13GyPLsWOXtUgBaSTj0hAqVJShAieIm7uIuvFoM6LTDgQfPBsuxtDG7PzQPk2Iq6Vn7BYToKrDB3zd5ATmTkxfr3dcxeczSRalS9D5xClAXSy/NlyF+PuhgyEJngqhrN0jAnI4I3OaGqZd89YSXatbO8GBzLvVXb+632aT+8J8qFDimdQSvhkAxCG/dmYwq49N6ztKFSe1JVLmkm858q2Jw2+GB1UdK96d03zenunCE1pVBWt+jZI4U0maZCy6n/cYomgFmuOY4ZwHBoxJyNsj7todhUBCAcyaK6gVm+IY0DGG1BVLpjhmJPWxVHiEfh3CVNbHUwKzvB74OpqIr/pYM7IENoFcR/QlISUDQu0JOtoWae5Vi4PG6OAvCXX+gquLyCkaZzOql9zLo63aTCkaLcniHE6iBThoRQhhIcnFOYeIw7tm2uC4vUBsW/Iq9vt9J6R4oATNY/vwAMVkQ5Ik9Ho9xuPxoQnKJl7Te0+WZYeyzQcqKLs4hXXxPJoKn//QOr/zW8/z+9+7yuWtCjgDevsDjjE4TcJHd+QRs4orEvLeJkW2xrS8yb/72ou89FLFb3z2cX72I6f5+Lm4nqAVqcRyFI3NxaFtc3MshELTAi83erVp0gE7Vck0E3IP//6r7/Pnb07JNx8jJAOqosTTB/U4ZUGUQv3gS4LXnFM94e/99Cf51U8OOMsMH66CrkOVgfgY7O6qzki/c4ZUURW8VJyk4Kkz8NEnz/P9qwEnyR794dxyE3BotsasKnjpnYvs/NQZei5tHaMwvx57XZeuG0qBUh1jFV548wNG4Qw5jiDasa527UP1CBLwGki05PxGwsfOZySwVC/gfvbuu6TeXf96v79aJYAboTYGLk9hOgGpi9KXGhO8ylCLuY4FxTvIBM6uwzknFCQ4LfA636N5OyoUCNsEAh6pO9PpDKYF3Ezhxgxu7MCshKKCvIDrN7bJiwrFcXNnxGSWE1QIQVENBFV6WcZgMEQFemnCmVObnN+A80N4fLPHRtrjpIcToYhd9m1PVpRBiw7Re2H3fbUXcx2krevymLQ8HeIgMtJKOARPhWcM3ELYBi6NYKrg697EaWwn2nm0O38dc0vlSYFn1wPN0E7q7cah3NwTMwVygYvXYSvEiJmFoubdirca6CUZ/T70ewnnk4STNDaxO3TkzlEFR+l6KAOuBOW97YqJxuciHlu0LjZ7CjDIBMkDZ9cSBj3oUyBuAtqDdmgauQVcVM+VMYxuwdb1KbduzShKz3iSMxpNUZEY++4ceMUlgUcunOT8iYwTacFzj66xCfQInAqBnvN3n7uyD+6llSqAmzQDzziZRE4cPI526FiVua1VNdQbXy7SH4uSuJW2z0Z8Nx+4zmBtkMJmBkNgU4UBKfNhwoNHRBgMBly7dm0hC7z7/f2mKbL+I2Oh7CIqZEHYdFE7/spPneGir7j04jW2rq6hmrG7++s28nFk4zQG9jc3pFNFNKDOk/uEKumxXvWQdJP3bo343a9e5Bvfv8Rvf0L4zHMf4fRmv23AEhaN7/H2apyuR1XOo3kElMXhW+hqMXpZwgh46Z13+PpLO2wlTzBKPCUzKqe40MdrgtNAuVQ/smncszDl+Wcv8EufGvBoAj5sgY5oAsW9c1SuimZJTebN4kIMpRAdOjMurMGHz5/k9VsZqinFyjIJHaEsoElK4de5eOsi12+OOLexTj9JqWgiYPa+CvFMNXaMeEwhJIzU8/qlbaZ6LsbQSjvJ5EpE69AIrTjRUx5dVxaHNw/iTrg3W2d3mHEvUjRoFIkFyhsIf/AdeOF7r6Auzr0exBGcJ4hDxREkxsdFa/YOJ2WHL/7ko/zt5x/jbCL02o560anUuLrfJ+HSGK5fUy6+d4NbN0uubBW8LJ6rlWOWC3lZMc1LxpMZIQgqHnEJ4hPwG8SC80qoa6rFBrmsG8yKJL3OybTiXK/ko+cHPLqZ8cyw4JfOBx49e5J+vzsfuy7tacxa144b/p4FZRs3uVogtq1aI4ZU8a2lvLv8wQTm/eia4n0Wr6vS9eV4cmALeGcM335zi6+98BY3igQ3PEkuCYqbe5xomjGJ7TfU824rn14b8c9+9XHSrOns5kYCkblILIA3L8P//Sff5vvFBmM/iMvpfEDp6nU6DaRpioaK8+fP8z8/v8bPnqH1Pt3u3ASEmetxC/jhFL7y3Xf5q9cvM3Gb5DIkkCE6N2b4AGmoOJNMkJvv8JknN/mHf/sTDPszHLdAThMQpsDFCl6+NOFv3nqPb133vDoasLW1w2Sidd/XQ0lRHdT3f7TKxdnGFP9SzonkJmeyER85Lzz/7Hk+8cgazw8STmexOkVzJx3sPl5k3i92BX/3u8UQlxx4KYf3b824dmObG9tjbuzssHVrxPbNc6icpHL1YMFBtcdOqoZ2JqgQAqEKVCEaNsRJK5SaHQkaB5zxt3GaY3GCUyXTikc3Mn7lp87zM09CT0Dw9EK/FqgPNvO6WXdSe+y6CTvLyzyIbTvnHu4Yyi7tiartz55otv+cwIXnzvNFF/hn/2nMjfQUaQKTMidHKFwd26CCb0obElAXs0+bMhGVc6h6cNHJRlAKWeOWyxgnJxGUa9cD3/9T5anv7fBrP9Pn73wq5gquM2OzHCNuSHB9RCGpzTKS1DUTeSAW8X2wOCWlotFkVledKImWgf/nT2/yxvYG2+mAotVvQsz+npEwopR1VGKj7bTkRLHF2fwiv/DRlP/t157go714I1RyAe/XwPl6+NhE8Th81//SRQToQVjnaQdfuDDkj9+II0yth5m6ZG1ty4TUZSFm3vPuyPFX7/X4zU9meKAKcbDgCFR+PiLt2kjj4VbQOKUUyhD42rsDXstPURIIPjqpdCl6XTp9tgAEpRxt8+HPnWOwUbGBqx1K826uY4fjbpvsvUSgsjriaHntq7a0SoYsf79gN9NYYiWWwYdvvQt/9L0tXn87J+lvoOmASqLTeD7Pe33E6vGhJCsn/OD6+6ydf4xffbreAQ1ULoYNoFCUJVWa8GoB/8cfb/PmtSk3rm8zm1WoJigZ09RRSoLiERevr8ZqUqB1J1UqWjYJCPV5kPgsKBrd84AUyqSouDzyvHwtJ5EJw6riX2QpP/1x4e/+HDzShxNJyYbssEmfjKp2eaUo/dZ2dU/2iuZ+XnjtccHoWO0UFhOIVix4F8Fx2lEUB2qyJNTtazeadu5uTohWwz/6AfzB17e5On2UpKwofELhXGtVUiCIo5R6gKIBV07Iyh2yakx2epuqukCiSTuMb5oYqTt5BcZT+P1vXuIPP9jkchhQuM7Ui7U11AVXtw0BJwV5vsPG9Vs829/hsz93joGLIQkJTVx/PFFt6lZ9wjyQBvjSd7b53a9d5wYnyWVIKU1r0HhrIgmOHqdYnylvXr/CE4+X/Oan1knVc9MNeHEG3/1hyR9+/fu8dlO5wRoj1pjqGqobcSC36Mivr6FCNQ9MSUgZlSmXJ31e2Zrw5Vdvss67/M7PPcE/+Mw6Hx/EWctyYg3eDZY9LPdGczeX7V5WVNWMvCyRXkbJgEvAe1N49wb8wVff4KVbfW6MK6Z5HgcjMkBlDQ2DuDbXMRM4Waq6Um9XYwWOAG1xbg2+nSjDSROas7S/2gzoIkI0FKRvbXHxxi3Wfusj/K3zsdcokbZA/oOkEY4iQpZlC3N7N/qo674XkfsiMBsxqao/OoKyi9aWoiTEIj7P9hwnf+I0V34941/91/d5/8aMdHCK4PpogEo6NxWAuFiYW+qoqzqurw2qIlqaKkkI4ik8gDASz3WFrZ2SV//jm7zy7il+/hMn+ciZPk9nnjU8Wf3bXaXEjox6Z9p9qKNBXEoJvHQR/vmXX+aFqye4wUYtwOuf1Y9rkBjnFCRth6+J5pyUEb/8zCn+u194jI/0YMiMQI9CwOsGSNku7yRajOog1l3EBs8BPYYBPvVEwiMn4M2rM+bxa1332dyqqbWorFC2y4T3J0Muj+CRNLrPXN1D7pVQo60ci5aUgGOG52/egh1ZoypLcGm9H/UKNLTXthu36zRwbt3zsQ+dYY0ZachxFVRp2hGxd5J4t0M7/85/373Nlte+/P+5KNVd61ncyuqtN7qnEqVEefMDz6URVMNzFMmQ0sWapVVbnirMjeQCSA+P5wwjptI8Ks1xzO36ZVEyThK+9UrON9+ecjnPKItTSOLxPgWJvoGYfD9vPNujkqYR1nrHOwMBaY4+it3G2hUko2h/B9sizMqU6y9P+eqL7/LLnzvNFz99mudOnyQAJyjoSVNuKN5Bya6zeRdIp+GYz+W5ezFWWSj3suQzv/HvYscO2mw1EeVdL0136sKrwNdeLfnSX1/m3ckmhTtJX2aUNEWh5gdfNUWdBHCOxPcRUZ44lfGLP/UMrq4i0dzwrVhTEIm1I0MFOzrkWtJjp8rq+4f6dAtoHJSI1mWGJKdwHuf6TMgpJVb6aIzBew0FW9GsMA5r3NAz7LgNchcHWk2pteVfJfQIg4T3JgUX0x7vCqxPBvzxZfijFy/yF997nW1/itngHBO3hoYeqL/DhVLQ0F6DGEuaUsgA8ZuMgZGe4F/+2Vu89JLyjz7/YX7+2XU2s/vnxO2W3W+eEcXj/BrOw3sKr1yGv3jlMl975SovvreNO/U0VybrlKTRMuYcbam5vXZsxbMStG5NaitljCutn3kBEYdzu0/gqmLoXisSF7h46wo3pwUlKT3YNfHbg0ZVWV9fZzabkef5Ay/z1AjK+yVQ98OhCsoGVaWqKpIk4cxGxv/4PJxcP8vv/eVlXrg4pgoZmQbGAoV0zOL1E68ISAZNOHjnJlLVhU5a1VE6RTPhUl5wsn+KP/rrq/zNa7f4/DNn+fXPDPn4aXiiV8Xwcu+oSI9WTDa9DkozsNA23zDl0hT+83cv8VeXlDer08yywa7fq8LM9QE/f5AD9MKUC0P49S88wcfiDGUx4B3w7YnrznVUy6k9bsi5TvRogCfPw1Ob8MNLE/JkfdfysQ+oGyppsjNhUgR+8MNr/MYnzsYg9dbQ01zfVYK263Dx5JIyIuPi1S1UmyDwpX1f0XjFB67i0ZOOTz4dnU+ujW87KM3+NRmh0b3aSIhoh++WYF61n9G6Oh/J1/YcuTsrabPiuEfC1es3KMuCfr/PVOP1mxeZXtFYi6dyaczwVjrn1y3Y2IbDPhPg4geXyXPBuQFp5uvz6dqO4kERY/hgnE8JZcHm4Bz/+uvv8Y2LFV/85Dl++1l4Jks5QUqPWRs0kUCdMMA9NMDd0egez0q92PzxbiZceIAn415QX1sX5+KrpKTEM0P4qyvwB19/hdcveareZn0f+IVhTkOMTc7RkFP4PkmYcmHN83c/fZ5f+kSCc9O4SV0MS2li5hfiI++BOKjulr/aG9E9m7nbbQHlFlNy/KDHywFuvgWvfec9vvL2hItlH02fQdIBQVOSyqFa1S7deiC14mFoBhzSJC7Vz3/3iQ9kXJucFbrcaQAAIABJREFU4K8ub3Hla9/lRvUT/PrHLvDh3v0SlQFHWbfRnkDGFLgyynn7luc/fOcmf/mDH/LB2DEZPMJW+hjFdB3vo+VveTKRe2VeZunenxTvPUVRkM9mQErMAT/cgvDOOXq9Hr1ej7Isd1klHwTLNTEf9PYOVVA2B9Eo5xBitm1fhN/4aMYnnniC//frl/nK997m5esppzYfpZA+o9IxQ+b1fpbPRbNeukq8ttK5ULs7gaTHduEge5QfTgLvfvP/Z+/Nnyy5rju/z7k3M99We/W+YAdIAARIEOICUiJFSlwkUdRoNHRIE9LY4d8mHOHxD/b/4Aj/AfYPDjsctsZhW9RI8khDaYKkKJAUSRFcABB7o4EGeu/aX70t897jH+7N5VW96m5A6G6K49ORXa9evZd513O/Z7/Ca5ccn3l0ld96coklLL2QyYEOkOzLXX77PStLrb5D2XUZfeBrLwz4xms7vO1WGKSLeAtoTM5Sgo5Yuqwcq8QXzOVXub+9w1c++gAfOx1KmoV7h7QrAVA2+jcFxGYvQBs1RV5CmbQ0h0dW4Mc6YsJ+QNmcvNDU0MHCtDlzbcJGDie7UDgCkFRXD0Jj7hUwVVstnjYjSTk/gMsbuyCLWBvNt1NrxmCkTHISJngyHmJ1l/tPWFaTMC6pD5rJWXUXKqy7t0f7lReo+qiNzXF4nCQUdBgRgmLmgaWYbOSAYUIVRqMRWZYGjU559OqelhzAJKa0oMbgcUxwbG5tIzKPF4tzsV96nVPVpKjpcmTFsdQpPTAsTqad5CutlhK0T4ZQ272E/3FCZA8gbjK/0tw5NRyNfd6sclgfCxJ9zuLhmyZMNGGzgLE5zbPn4Y0r17h2zvCvPrvCA21YpEVKgeAgmtma7Sjbckuo1FTeYUC5b+4isioILDfDM/COgUk4k8Mff/8Cf3/ZMEhXwLQQwBsbtbQ+WDUa90xQtBiSjta5awE+fe8hPvdIwl09II9gMqgWr3vEByDe8IINja1AVj2WU2r16pWq4qOFoiky731IuUa1DLeeasHeURMgZYShkIyvfneIUcd4kLIjy0yyNs4rNgrtZUYECNkugv/ejM7Wyvr4y/52OCzaOcSGzdjtw//+ty+z3F3h2IMZHWaDyuuttP3NMDgfeMaIjDVgzcMPz8FXv/EMZ3YW2PELjNM5dv0CedoKGUgkKBNV3bveO1O8QYOVyhNBatQR1Hxk7/f29kuqPT2ZTOJozlJQ3BpqtskYQ5ZlDAaD2/Js7z2rq6u3rULPHdFQlqHsQUpzZOJZxLDYSTj12SN87PEj/Om3z/HdZ1+m75ZY6CwzThbo+6jZuW4RjOnkQhWDjMzHm4z+GIaF59jhe3hu6xJnn36Tr//4Rf71V57i1FKoT313kmFLP56oKZN3nLX/3ZE0/ECagPLaKOXMNnzztR3ODDr00xWcIVSeEYnMKurtGujHqmM+v8ZJucrvfPAUv/dLhpMEX5sYzlJ58ZTj1DjtylYd0Nra3JwayHL4wDE41EvYnITvSeyTnwIQ0X8pNtTbNud3tnl7E+6ag1411L4aC5HmcVOaYgLsG5OyC7xyKWdn5BGTYKLur/p4Ze6Sxhsea5VuK+GhuzPmgK4jmqQEqy5qUqfHYDrl7vU3apiVMSG/Xbsy0g8JXauySDQZY2P4EwtJ1PqJg5bUke2GOvn9LCphc3msOldgrLBTDNgdjHB+nrF35L6M6I6eczO6pGLBtlmcc6zOQRZHwU1VE1KKQnFGqsMZSod5U+lHr6fF26uc3Tc4B36jzl2qYnAiiCY4BS/zeA9b4zbPnN8k/eYa/+rTqzzYDYdfojmqIeEN3EIQ+XNGwWIw/Xs5P2WRTcMEMa0gzP5wg6+/NuKaPYmxbYwmWE+Ybw2Az0dVbC3DWbI0YXGyzkcOL/K7H1zivoUgtFdBFjdpDRAE1RoOikrlj1r1QKiFIjX1covru16C++d4eh9N86v9v0Pw8o65kRUu70ZFhvbwuQdryFrhW6F8Ykw8VFXDmUHa6EfZkinfk3LeBGdTcpljYoVLheWPv/EcR3pP8skTwaeSqZ15MJ/Yu+9Kj/FCLZ6EEXB2AF/93jbf+OlZLu528NkcLuswkRa51B6b4TnTlsJ3StL8qaU7zSza/5Syn80V5b3ixYdsERw8Dr9IVILogLV0Wli/RQDzjgDKmsJ2bKtnIiEarg08eSjnwS9avnbsXr7zkueVC9fYGI8gWWKoHXKBMjHBjcioIPGwFPVY9WTtkIvqwsYmLB7hajLPG7tXWPvLF/n8o3P87pPHZno1XX9LvlcUxiRIs4KNSkaPsibw589s8oMLji27wkQiM49aySQCShejc43PyXxB2/c5olf5zQ+s8gcfWeGEU4zPaaUxYIVy49JgsuGpFR209qKUqITF1Ba4dwVW5lJYF9TXOT+9MZG/79fvFaTs0OHMBXjiKMxV5TIOBiD1X0xISwE8/8Zl+hMXavqaGQBl6uAJ2oIkExYX2jz6QJceI3AFSDtkEYj+XSqEiOeq1U2IeTCr8xKKpCVMMExwJJzdusLFoWFjkpCOoePMvls0AaW1CfPzXRYXYbUdDmL1PkgSklXtO6gl5SxaA248wdg213a2GIwmKIZcY1ro8j7VYthLAjZlcb7HapeYgVAoS4KWE1JWpZq9h8rBOXhO3xVFf0qjHsVWc2Uoo3GjxUEMa26Bbz73Aic6Occ+cYxOIhh17NMS32ISkVhN7M6C1/0aysBvwogMgTGGNs++Ct/6aZ9rnIJOhi/iEpSaX0HgtUYEdUFD5UyKmxg+fbLDv/z4KT5+JCc3adR+3RhMlppu1fIZMxZ7pTQIi9DE4CBfBt7H3gX/u5sY7+o5DeGzlpAIHCAIIK4xiAbBasgqkCYW1JPvFnibYZLAq0P5xITgI6/sNXlXWDiCqLCf4mouA9YEVDyeMUYt6hYZ24zn1t7gqy9c5bEThwmZ8lwQjpEqyLTuQaO7jau2JQjeJqwDL27CHz99ib9+ZZeL/iQs9OjpBl4meAqQnFBKNUFIpufpXVIZ01DVwRJ/Q/6gQuWzK352CyrnIuWg0IBbRtba6vIzs6C8t3S7BeM7pqHUykctJCHNkAra5MBK+xC//5EWH70fvvdqyn98/jKv7Yy5XPTwRRulhYoJWpMpw0Ct3YOwMWon+LA4c68UqqS9OTwGpxliD/Pa2jYb38958eKA//ZXF3l/R1g2IF5xMmGCklGWeoNbsRQDA4kqfiOMEtgBRn6J/+c5+NpZz5qbo7AJxvswliKAIS21miqMSVAD+cRzNN/g8w+v8C+eOMnJFkg+hjQgtoSyJo1Gka7B3Gfstr0bWvaMf8/C3SnctzTkua0x/Xweo4bEWibEfGmyfyM5oLCGZy9s8ttPLWFyCNnLJICFfRujrNvsQyQ4cGUXXl+fMPRJYNy+DAbSCnEFbWn8L2Zqn/M7PL4yx4NtmCMDxhQR0CYuLJ6QqqLOy3jzFBjrxfEiW77Dd5+/yrdeuMT5UcIGBu8z8Mm+nH2GIWJ2Y5l7pZW1OH3yFI+dXuI3HxYOqWHFDLFmgNLB0aq82PauzVIX4oHUGHYxXF5bZs0XbJmQAxIjjWj88i7BGb4ECsbnzIvnniMt2oSxcVZjXsskfM1pAOFWKNQTAijqLM1KGYxTChaN0dznE1qvRZ2ya5U/Fckn9PIcEoMaQ64hKEQl+Jh6wnnqDDHZGIwnwpBV/vSnV+jMZfzeL62wUkyYMynJu0G0SjhMScIvOhsglYDdaQAW3gq5hpybd1Jj0ny2r7a8Jw1whQFLPLMJ/9PXn+Pt4b2kNgtrpvy+CE48iYa96K2Q2zjvBSy4Le5e3ORLHznNE6d6LMiAiaYU/uYOPFVw3kUPjwYv0HJFhV9EPBLdkowNmknvJGgGLQguKi9DfaUDVWilNrBKOxAfNjWvjTKMxlQKxVL496rkKIhiWybCTsVUqK6s5EL0+/fRPSv4U4eApOBDWsXW710kKiAZKkJuhXVtkXTu4q9eGfOph+GzJwmgUvqE+OzeDB1rs0cN4I0ijJjQ5seX4H/5uyv83esjNrJTZBngCgrmIzgWLCb6rRuMGkRtjcGFqXrrlTygJXiNLidAEQNqkeA+1fZh72oUBMrvz9JLqkQrWDSLOwHrHanbZrm9gdtdJ2k9VuXhLQdgqgznLaYmoMzz/JY+t6wjfjtB5R3WUIblLQT/PQuoerK4iTLrWDhsuevwAvfct8Cffuct/uHMeTZ1hd1iCbUZuViawpAyXcGz0iQ1d49pVChwMSRFOkykw/mx59JLY9pbb/JvfvNuHpiHnvFYKQjb3mKiOfSWTJMSAgNEyY2w5eGSgRdfdfz5Mxu8XSxXwdNGiCCgHMOSEXgKhcRAYgyPHmrx5Q+f5AMrkBYem2YxWXnpSh/BA0wx671eOLP1s3U6HQVaFg6nEx44YmmfvcaADuLT4PtS8ZjIXRrphFQME4XXr+3wdn+Ju1pDvHjMAZUMSoAkscc5cG0XroxTJpLEvGShC02FmzR/xuf3dJeHFjv0gHYEqYXE3jtCiYV9Evc7m/0d2+EvvneNv/neRc7nC2ylS/RbCbnJcKRBC1GCSQUjA4zfxgD5eMLgap/F7R1euzrk8MpxPnvKkkkL/BqQ4mlV+rW9zLYJE5M0YTSGK1sdtoqEsYmqxHKMG4NVTVGk1E84lMHJ5RYJQXvrjA8HBkRVklRVQlRLg2CYrSo/YdQcqTZWTnUO1BPW1HipSgVKm9TOWnQloT8aMPE50mpHt9wYJRr3iEZtECpQGHyyzIVCefrVNR69b4UPLSZ0pcxCG59f/X8zsx3BR9Wn5j6iGs+qP4CaALr1NmtGm7TXK7y5xw2OHTLOOPgf/t0PuOBPsDlOMS2HaEjFVY6LFwhSoMPTgqLAdDLmXMEJGfH7n3iQzzwKy+IgnyC2G6wvN5kWKeQfLROmz/qOUoI8EcUQNJQualGDw0UpyMb5OfDRMTfbPt+qvV/QCIRcvF2DnxkqQUEjnzWlYgML2kzGHkRIoyGSvj67ynUUSm+UHqaNUA6k3F0GClpAi0k+4v995gofOHmEeZQ2OUEA710nWKcWRsPZaLAknN+Fp18Y8LO1hDV7DEwLLcYk6ilMpwosCq2M7dU66K5W5MTfpdb3hBHOsTpBxAV5tIyMilprozWvL2/YXK/1jGjj//qPiQ5ouzXyzZc5eqRFp5VVH5dymm8f3qryZ96OND7WWrrd7nTOzltMdxhQXo/C8jaEwIWPH4PTv3maHzzX4s9+vM5zmwljzRCrjG2nloaqb747MsYgZPzdy2NSc4F/9tQqT92TsYyji2/479wikuA47oySG8vIwPOX4GvffYHNwSFI66pyikS/RAANpiZ1GDwtBTuBB49kfOWjd/PoEejomCIL6YFCcpimRHp9aoKSve9DzYgM0Gpl3H98mdboZbrpXeQFVJUzDniQIozVcnVrlzfPw1P3ZTjxwXTP7LQHoT2B2Y48rA9hbRT8ZEvwIRWjrzlR0FIoIS1HwXzmuH81C2kJM0AsvkxUaZKq0TcMySoHYc+YeeDCNvzw1W0u9TuM26vkMofToK2rfDQj9w3grAV6CO8VxNHtrTIplMsbfZ47u8uTx3qMUkM7ph8pyynOVLjQ3A/CuIArO0NGeYlgZ9S7llojI/HXVHMOtROOL1Gl2QrR8GWlqTDeGnPLWVVSzUn9mPL4ULWoMzi1eF8eRiFIKtQszqkDpoJxKgAwG66oxQxjaxk5YagJaWceawgV1SgIh3xDBxqRcRjiBMhQ7fDq2Qs8/9oyDz15KOqQfFwtNSB957ykqY653qeipea2nGiz9rhEDdOsTwfd/4YzfPU7a/zscpv2/AKZ32Xku4jJKsEhTKPgzRhDgeg8xind4YDV5BKfe/Qov/EQHJOoNEgMg9iY9DpjVK7bivfsc5Mo96XumyRrzZQgGXtLGbDFnr9NUxNpND88+3Xtk122KbhelDBIEQqTomLrRzZBFoAXjCYYDZpIlWgej58pwajiZ8ZHytTQGL79oxc498tHOLYotCOYCCbjgwKfgvAnKKGkpLBNwt+/tsN3XrrITnEYY5JGVr39SMxjagtO3DdBT61YcoyGMq2lZlc0RJELBYiPYDqnkBxISDBBmK9Gae+cNCloiQ1xPSqkfpe54irH2n0++NB9fPShU9x3OPiWpkzP5u2kZnDye01N9wlrLe12+7aBSbiDgPJ6g1keAyFRgceQhDjYFhx54gh3nT7CN16CH738Juc2NtlmDuktMyYhD+qMsOXf5XypWIadE3zz1fOMTJ/uwoM8sbLAktsiMUEzeKtIgYk6rFWGiXB5CD/60SbPXzJMslYMbqhZrRA2kBdlJIbEeTKd0NEt7p7L+OcfPMxH7obFFHDBnzTghBtoXt5lHz3BAvTAkYS7ugUv5zl59DUKkX+No63BGZ0aRj4hl4xzl3bhfb1Q8VZLL8/YLKnbXcIdR4Iz8MK5AZfHGUWZLom6BFyzW4JgxZIXI5SCoyuWBxY83UqDlARAYYRRYsgLDakwoKFlaAgvJehoIm4Jm9uLohhevgxvjVPyhUPsujYTKxSGCrjWR1Jp1jGVhjW8HbjlTjHhmdcu8flH7ue+QykhhjaMQvCVajw/3jmL/bbxOMgJZQ8n3hDURFEbUzli1i1pJuDuUHCs5TnWI4YWRZM4QlZqOa2CNaiHY0tLpPlbZEkInBKSaA0AMQ61DrzD+5xQR1mZK5SWKsYIJjZNm4ASwViLV2WnP2C7aDNMjmB8SrfXYeDyxneaQL0eGKsALRxzuOww3//ZRX75kUMcm2Pf6XJjUeufBgnEKmM1yEFKIamc7zBLIfG9sIXlJ2/DN3+yySS7j+Ewo23H4Tt7/b9EcBHsJ97R8QN6wws89UiLf/5LPe5KSvDoKcQSzJwhcMrojFGW+odOv3UARV1gzHU8CyWUwoJGF5Pq/X1CQ/yjllrKhnZ7XyOjCq1xw1LkyRJLMR4y2t0ha7XI0gTxniwJHkfqCrwLKYSM86FalxiMbUHaY2Ja9HPPxAtiktkKk0q50Gy9ME4W+N7P1njkY6ssSkJCEbWAJqZmn+b/Bh99ogscIZ/vS2P4y2cvc7afsQloEgG82GoVTY1cWeI2YulMJsxlAzp2gORbzKtnrpXSbrVIkhRjgoZXxDOcjNnsD+jnkEsGSRtvO0w0wXmDaoZKCzXpPiVGc9ytDwoXy5D7Dxvev7LCU/ffxWMnE071gnKqC4FfabPC1+3b561WCJc6CAO9W6BZBt6UoDJJEtI0/U/J5D2bgsAbS2pVWyDBmoSegSeOwPuOw9tP3s1Xv7nG0y+cZ21rC22vUiSLe+8EBCAjU28fzKZUhLw1x445yrffOE/6jZdY+tLDPNruoupoxaWsUZJtan/eE1KHs8qOK/irp+HsSzsM5Bi5tPfwyZqJqolJhIdD8nyLo0vCZx5a4bcegKMZwTdMQm3voOq/dYtMgGMd+Mj9hzjzwoQSfhiCGdpNLfDw2qvBeUth2rx5aZ3+pMdCFvz70iQICXufUd7FYxkDL769xo49gscipUmp+l6zgBxVjsnEWu5enePeOcdiCo6iGqexgrPQsjG5sK8l271ny77RVI3O6oaxn/DKlT4XHYyTlKEJSfedLUCD2ao6w+LNmsf1dK79hDPXRlzYhsEhmMOClv5cpjJB1QeyJ20gXV9qcwcOp5aQWipq1PZpYEqHAsWo0LOe+1e7LAhkVZLnYIJMYw7LsqyaAR69e4kT9jlGEnxhVxZXYwUUz2OP3o81DpGcY0fbxKpknMhgXmJ2gybWbYzBOIetbdjehpcvK3/zk6ts9DeZWzhOTk5OGjnHfs0VWutnHF0mdplz60N+9hY8/P49kznrAL9pmvGNvUqu20pazaVMvVOC5tAgA7QQUuCH2/AX332LrckhJjIXhF0xwUe1Emxr8iQIkOiQrlvj4/fN84efOsGjCzBXgJAHP0EMaYxy1phy6noJNPbIOfuHrgKEjXC/kuE3mlgKeCF4q3HvfYrPev3XH4gP2rcYhFnhZ94r490+LeM4Op+Quj7JZJf5FJZacHx1jlMnjnHkcIduF4yHYgJrV5VzF9c5d/Uq5zbHdNuL5K0lNvOU3Acht8wVW7rIND1HSiHBLhzlubNX2HxilcNJitGgta9nudl+qEvY5igdNoCvPVvw02uGzeQIzmSU5nXE4qdWUcldg8+nG8GRJaFjJvj+WU4fhk986F4+etcS8wbSDNI07HFjQrDgBFjfhQtr8Nq5DX7y0qu8emXMjl/A2S5qFwiBTJEDq9+vNPKhqp5VJZMBn/voKr/6YIdHCeqFeUJAYwfFRAG2qZxpjsetpDLq+lZpKEvfyW63+57f/0b0cwkogWhO0QgsA7MaE8I0DlmwozEr7RZHvrDKvYd7PP38m5wZ5Zxx17lp5dsFmCAZqQal/PTkKpghmmXsTO7iB2fe4t8/c43WkykPtHu0UdRH84GJYGdfQMG7I+d8yBNjcvqTMT966Qr5qEuRzKOSUleHqR+n4gJHwoCFTOCJ9x3nNx7v8HAS4uEnBrxY2i6YHW6139Yi8OknHuJPXriGTQQnRIYze4zUh4jlwmZcXL/E5Y1j9I6mjHKYT2ZLbXE28QgXdoK5e2JaiA8JlYEqL2F1GMTvOQVsysJij9OHc071xiQ4chfkdxvLb749yumv9VnK5jm+kGAjA6zzIAamVJ0z5QujFJMRSdZmZ2eH1y69Tb+9xO6gD1kQkdSMwadoCP0MeTWlbmNZXcjhKBPAT7xnp+jw+sU+w3vnqnOzoXSeMUhljtKQDa+fw8X1bZym1xcsYkqWMkishePu1S6Zgi0PXTUIAYD7mLtw7B0plkeOwP/x3/wKhQ+a3aVWUyMCYDHYWglbPreMzmxE6TcvD/jF4N66+Yjw6UeO8I0f5XzrubfIdInctIJjvxbVnpdmP6OyyQn0i4yWdnn2zDpffmiloah9p+lFohYLbRxU09TUhVTXDMx7K6jUmh3coVrYGuBYzy1/+t23+fGZbSQ9RiKB9+5KQiEKMmaq2osBp11Ec4y5xr3Hld/65AkeWYHUAclO4LVqsN5GvbpnCrzNbPP++dfmB6bIUGlgvUeMvS1jGwRlxZvAhoWQ3UGAlngOtzx3deBDp4/xqccPc/cKdAUyU5qEI08CRvcJW26VK6NVvvdyn6efeZHnL76JzD2JmCRErlMGn0ZQLxL3X7wRhl2fcmXguLJVcG8vxeu4PlOpgVi9JrVqhcdwdRf+8vsvcT4/zLjdDUeiErMoBC1lMJoEoCqEtiXqONJLyK+8wcOPrPDF336Ch07BYYGHCK4yOTXP0vj7GGXUE57owe5dy1x+/KN8/VzOn/z0EheuDhiMxyA9KjAsJW+vSQjjryboWM+9dBF/9Dj5wg6HSegipEjDdT9aS6TkKs0deuuoqUW8VdTpdOh0Oret5GJJPxeAcmpopfyv9JcIYTYJIaVQAlivdDKDNcEf4l8+1eZTD76Pf//MFb71xlUub08YSpdt3w5ls0yKajD5GQnpWwJvLSPtJDh8S92IiemEg6sNO9zL135ykaNLJzn1aMIiI1zpT6m1iaU0/910v/faXSJzgAR8Bz9pMZQUOgm5WvAxepGySgpUNsnos7PSnvDYkuUrH5znsWVoFUoRD3oVaDd0EvvGvp6AA+fnZnvXQnnkeMaJnmFrMGSUCtY3UhTte2oIoZ64OTbdMi+sJ9xzFOa0j2ivlh8rf0bweFzMlnf2Muw6E9SITBcnDK9NlQhdRVAj+DznqAx54NAK1iTgHIlC6U10dQD/5/eu8aOfvcH9q3P8d7/5AbKekNlKN1yNyV5p2aOIcUywnNmwrA3mKfwhCq9Ya/DqqvO01Bxp1bPS7B37WgajKDhtockKr14esOnnOIVgNfomHggOy3taJsCOhytFj3zq8/uRTQ18PNb0mU/WOd3ukhbzaBp8S0Mt5WYkrGJC+j1a8QIiMI27WogpPWKC5wrnlLAn7sWbUA2mEvKenv5cygOn7uPffvslnt320D6E5o2vh1MQdDpv58gbdrIlntuyXPSwbEMN9717ZNYBoI21qJXWLrg4lPxl1lRUQFJrLnfrSaP/WrkHqDSDLQVnlIKcAseZHeFrz13lz394lUF6Fw5DIQGwOANqcsIBHJOZmxzMiO4Y5kZ9Tizt8OvvP8UTx2FRoeUcNlZTCpy94YYSNWpTGv+GDbo8DkRCKqJpU1P1CapdGO/rvcZSjOFeQg1AKnPvXoRfvZTqvTCvcf5Lf9eGFSBo70u3I0/bjjFblzhux9x9zPCB+1Z57N6TPHIMjmTQ8dBRaDHBEKKiS4eXAqWDp20T5nrCymNz3Dt/F//X353j+zuGPlE01HKVOcpIRxVp+FEKO7mwu7DKa7sJjwm0xcY9JftGDYiifrCWbCF89yy8uW7IuwuNFRSArK+cjeK6Ehf5j0P8gOXxJr/zxXv52GPwvvlgYl6kLKSRY3we97iAKCmWTnRpcfGzhxfg0AdSHjx8mv/wvbf4zovrbNJlQBcXfVrqZRBeOQO7GRgTWnjmwg6vvt3joUfmsRSY0j9aqwXBLxKVJRbTNKXT6dxW38mSfi4AJTRBS7lQmmVxhASNZtugbfCkJMAiyjzK0WXHPZ89wicuwTd+fJnvn1nnAkuseWHXGbzEeq+AkWBqVMqAhtCC0sAHAYCVuHaHDm9sL/LDcy0+fy8c7fiKyUh0dNOYB68uEHp9CWRfLsZqh0cVicvAC+OyHUKsbV2/UR2MCuAxqpzsGv7zX3uATx+Gee9DOpioxSvPVGmcqHv9b/Yeb+9MS1OTYcwibT78wDFee+EiPklQl2G8nWneSiQcwuOizYZd4oUN4bMOjiYjopFizzfKqMSEvocX37zK1rAALYLZV+v2R51BGAXRkBtShbl2ynGu8siJFbylUrWuAAAgAElEQVQkWF8GhISxXRvDDy4u8UL+INv9AZvjPqvzbUpfvuYYlT+bIMQmhk0vvLxu2BotMx73sALehYT+eBuZuFaHV/llLW29cTSj8ymKIXcJ5zYGvLUFDy8GjY+JMayz5yqcyB5hAGyMYEvmKcxk6iNT3y4PnqiVMGaH1d6A+xZzWqJ4TSiEfRo2GyJrMNGfqpSP49nRGB1XMfXKdBdN7+W5V2kSpBYx6++HPJyppHSBuQQ+9QC8cHbAm8WIq4UG5Ws1OVqhqGb6Ek1StgXOji1vDODuxSC4Bqhw/TxxU3ujEYRBBCEzqTFmFbBk7667NbS3NnO5Xo0DEUchjk1yvv3GgD9/ccBGei9jMx+FOF+bW2USv92KkkEBps+CH3HcbfGlD9zDl59Y5lQGcy64lXjNKMMuasG5qS2TZkMpq+bUmvfr19CpkwdpzD8ZczjOysYhjbtN/2j8PXwmpPSJOzNaopqfFQl+6WEiPXn/Eh89bvnSqSN85EMd7jpqWSVo5hKUxIB4RTShiaJFTMg4okJiClp4FluW4+9b5tJ6zk++W7Drs9I1PFKVDymA3QYz17TL1fGQCx5GEDSKRINEJU1MA8oQrZCwCby4DkXraIjY33cIxG8pYOryuciYVDb59ceW+e0Pw93tsJd6eLLCoDZHxQfhfWrVl689aeP9rsu552jKyadOM1rv84OrAyYsVdrfeuzCTycEXYwoE2fZcvM8+/omH71vgVPtFK95JQSKIa5rbWgDbtdOvHVkjKHdbt/2YJzq+e8OLtxqCprDcJVbW6Y2QPOzRgxpktJJ4YET8AdfOsof/fb7efjQJovDnyLrPyElxwlMTJuhWWZo5smljatSO5S5skLktKneBJ3ApHD85NUrvHBe2XFtilI7qZ793kn/CFKo7G57EYJUSpaqzRqBpvUW6y3Ot9AWbAFDDM6UWcw8CUphQr6+W03lgfr4Q9CTIcaPA2OuzAs6dRlC4uncKYPCc2VrwlYBpPMzx7U8blKEtV3PC29cYeCifKR+tlkhMn1Q8AXdTLjv6BKHeyU/CfaqwhhGBrYdXN4aIjZhOJ7w9saIwiaM/aiS5/fX7inJYEjpF8ob/ZydSYErq0h6AWcxPgUfAhw0JmecykfZ+D1mZA5JoFW5ujngpXNjxtIOvmvXTb8S4JgHcoVrm6GU44216fWhLgpz3R5LS0uItVUMdtnm8tA3KnUKpD39uRXUYswyY5ac50QbPvbgEU73Cti9At7tWwdTydtL4dR7dgcD1tdg1+0XDG6q6dJc09f52N75bTzrVpI0uFRJNbAuEHIKOjyzvcDXXhrx4uURTvboG2JaMiRE5aIWcS3MZJFktMqSGr748Uf4wseOciyL5WtLwCYSAk4q4Bd4bZnH8CY6ULWZA64yHy+EPVUGk91SquZQEXXMJZ7f/dwD/M6vHeOJo4scZY4UqpOs7EOVOop6xQhCIkKihlQsGZYWCY8/fIpONqEoBiRp+II2edyetSQEP73JZMzGRpkVzOxpbx1gGGBVqHjlSBjksLU1wTuHzDgrmt8NPD1wl5YbcGre8xu/ssRykMpqIdDozOj065FISMp0chU+8uj9LKQumtiptHFNVyiBeLQoTgxb2xPOvHmVjf70rvRSX4gN1220FdxKKiO7syy7U4Dy54/qjTbNbGovn/0keNoUHLKOExY+8yD8V7/9fv7wl0/xK/cI88VbdO0YiiBllln9q9Jc8cFl1UMhAJzMgXVjJMk431e+9fzbbFvDxIf0DgbFGYufkSNvb3/2CWUzO3KdI2YWE1IwGsGJttjsC1/9D1f48TnYKkIyZ4NSxgN7kVB7uXzOPg493W72/HXWNYt89CU6sQjHe5COhlBM8K6IOeWmL9QHfyIjDJ1wYXPEtTEMpIUXM9XvZv8dcGHbsTbJyG13f8OrN7RaUwZHSwo6OuLJh1ZpAcaMwRR4C7kV+gbObcL6KIzXqFDO95UCYVy4fe2oKC6DUJ27w05heHMkDHyoelSvr4Z0UI2lVkh85hhLCQ0NA0159dI2fUmZaNQKGlPizj1U3R3nYXu7j3c3TlfTBD2JMfTaHVIbAi/KjjeBVzUEUj4taolm9KXp2xoOBrO/PTdCWyIkODrs0tMhPfW879QqR+csGZMS4974nBCDKzwXL23j/HSIxTvDwdcHlHu3fnMcbzlpPSeNt3ACIxmzIx3OjuFP/mHCs1dbTNpHcNJMrrK35UGz3BVo5RPmXMGH7z7Ml5+a5742MSPiODACXyBlNvv66+jUPfc1t/rrdAamgzhBvcaBKETojef+pumAe0m5ysHgODLf5rG7YIEwBh2Cli6AyloJsO+KPTA+JErIQj4EDMrKIhw+miFmN6QZaz686iv7hsU5z9bWIJZ8bCJvZqy7cqcadvuwubk1fWbJ9AOEUH0KApA3GgpE/Oojx7hvAVYIUf2lT6magnpnxfXDfqG8Od6CoLmjp/D4PRl3LbcwfhLSg80gWz5PDaIZTjtsDSyvv7UZU+3ViqnpYfinCSSbUd3OOZxzJElyx8AkVG7v/7QpHpW0dMKy3+WQ3+UkjidX4Y8+fhf/+osf4Km7DQuyAflu+JKCdVJF+1Gar6PEZwiR0S0/CekUbMogXeH7Zze4lMOgCMlJRepKJObAXIlMaRVvWG3lhlNSf8CgwYzsU1QT1naEMxcnfPOZa7y5BiMtSJCq9Fx5iHiRGlReBx7eCFQeSCq0gONLcP+hLnPOg8/BFajzUSvnoyZBgxkoPqgg5fJ2zvkdGBCFTpkeQ4WQOgZ4/eqITd9moFnki6YBWOqelAKK0ZBaaUHGPHFviP5DxmAchQgT4GoB//DqVXalQ+6FXIWLA8MIprTae3lzhc/j+Xl1F84OhIlJEAkpLShrrjcPAsrvaM30SnYnjTGPTohj6fDKpW2ujGGspj6tZiNKyl3iPWxtbYOUgWgHzWo8giI4TIzl6JEjZDYy7hvNf7yHEaa0lTWVJv0m5Nx/0xtAXoLjSgFSkFLQywy91NCyZQ7Sgw6s5j1ClY9r6+vYJFbRoBn7/ItA0YdS634pwSdvYIU3cvhfv36Rp18tuDheYpcuamwdvFHlxpJyEWJxpJqT5es8cqrLlz+5zH096AEL7JLku+BH4Iuw8FVn7pn9La2pOQcBXCr71ff7Kay1Gz3pnZJSOz7XQmosPIlVhx9sMg8sA90cklxJCiWJgWkVHJuR6aLc8saH9DcWJUHIBJZXwSYDCrcDUoRne6l8O3XP5VwI3RkOx6H8ZGzjQTuhCfGGQxgMhlQVNKb6X1uZMh8CGH10uFm2Qz58ussSwW+yq8HULwqegtJJqd6Ts/dm6bZgEDJjWDRwogcnFhIyKSoWt/eyQNtB5gSrGTZZYFR0We8bnAZBvPz3i4B7IJwhQUETyo22Wi2S5M55Mv5caijfKQWWYYLpd6K0csfceMTRwvHwnOHz92X8l79+D48fN3SzETjoFEqvGMUEtDUFY7uvpDND8PvITcLYplzcNfzoNVBrEJNBTFZ7XQZZAiHhBmr/kkl6ZpUnrOJvKMGgR8gp9biqQLrA2Czyo5cu8ewr59gdj0J+Mw0A2RErBOk0uD3oejekgJiEhMBY7z++zOG5ueBf1/T1iZdGIFWaT5xAP8+5uBX8f/YbyMNlReg7uLA5YtfZ4IZg7EwzTdmywP4cnUR54v1HOZ1RBWGAJccyAi7twI9fOcvEZmHMVLiwNaYPiE3DfDDNljwhYrE0Be+M4cL6hNc3hxQmbHLvHaFYYTQaawg501h02JimjKf158RR1h4XcRRqubg+4q01xRlCyd6DZkzC3zwhun19cyNETXKdyS9fmlge0DseuLdHKiHgZhqz1gfsrDF/p6HMzT1y4zWY4OiB7eFshmm3sN1lbHue6z506jyvtVtV1Z/49F+MY6chLuzhKzmwTZu/eGGHP3t+l43tAi0UY2wMYvNh3UgpjAGkUSAZocXb3HNqyBc+0+KxU7DoYYEhmY4RPGgAPx6dMjX6G/LCd9fDZsJtYa8Q84+l2Zyo9MuzHlKd0AY6rgjWsIKpPXX9LkhU75fZFQJISoGl1Ywsc3g/ihk9Qg/LNbvnRsHErRJcaeJ7NWxs/DZje5ZcR6zUIQFl/+OaCKvBxXkM7jRLLbhnSegypKXjSitbcvd3pJCI42FFaZGz3IJjCy2yWNhj5schAndB1OBJcaZHrt0KysbRmYK1vwikqqRpSrfbve25J5v0CwEoqSCVBROMu0hIISHAEvDEMfgvvnCETz3YpjdaI3WbqAzCMRu1kqFcn6d0MlY8XoKZ2Mcd4BeO8/TLV7jmoe8E1eQGrvv7tWv7d1OT42iQQCWnneQs6jYLrk82mZBETFEqUsMGH0fNQ/i2SVPWR8JGcphvvdrn+fUuayo4a1AZR72QmW6XzGjjrGYyzRevyyPFYIFVHHfPW+bTIvpTlZop27hMOMiNwxvwUtDPR7y1MWCbgwGlAldH8PK2YdeXJRrlwJQMZVlKRViQIZ+4P9zcRnZTYEMOS+DslZw31sdMCIfuiJS3+ynbE7A22we6y9dVnVij7BRw4ZoyGGSoJjhfAkmtfooXjBraqWGlO+SBI2NabogUBSo+5BiVRkoa8WAcSsLId3llU+hX2piZnYa4EwrgigkJ1p2frZusjuV4O28g6ShHep6TS+Vs1cqqWltTCkHlYTOjqF+p7WoGI2jdTAOV8LP3mmZUca9XrXFoLN0mQNbr4M30/NSz5Gcs6tDrcZ5XUB9ClLBttPFACsi70abZzLzcY/uA1Q1u/16Qs4bdxCLWhBzyETiPgG9cGPDXz13jcjHPgA551sUnrZB0X4JqzUmsh24FbBuco+c2OZWs8+VHl/i1Y6FudIjqV6qk4GKiS7jM7GuT7xxE2nhx/bmQqVfvvd9uY6030kS5WLzAqiHxsQKZSL2gGw6O+8Bc4/fpxtd7ogOcSsd0KeK+K7WkAXxWY9u4IBRGKAofz4p4t8YzmXp+WbJYUA/O+xAYWG08jzb4lkp5NgISgl6TtMdcFyTy0Lpf1e7mgB43YG79l5IXpbpLL4Hl+RwTBRVtnINVNiRlSpxQFcTYKvvmLxo1fUiTJKHT6dxRMAm/MIASwOBsiss6uKyNS1v4NMUTkqYuA48twR88Ncfjh5RO2mecjvC4SkNWQslgRvAojkIshbGoUURytuhxdtzjWgrjJNQ8LWlmapHmdV2xrAQMCpKTZgUL7QmffnCOY8UVFoshraIIwmn8qMYjQXAV3yoURqbD236RH1xb4n/+1gYvDWEDjzcDEi8k/mDNZJP2bv29YHIWoKpBs2BQlt02HzqZMJeOsDjEpKAJQn2hCYqJdaFzvCkY+YIXz7/FNa1dCvZeOfDmDvx43TAiO6AXNRlcDKIyHG1NeKgNCwbyYoQnpYhV5FH43nMXGLeP40TJBYbS5sJ4jms77Mvg2WxT0ACPKdhilMKrb4xJx4toYVCN+SQrgOgJefmgYzwPHy/4/c/McSRzJM5NgUkRjeeHohLyvo2Z4yfXYF1plCibRVK17dkRnJFlsk4HkGnrYbzKkooKeOPxZkhr+AZ3deu8eUHbRXVolmYwqa46bfZUS3R6C1QHf4n1ynaUUT+ucZXvNT4PYNlFGFYO+1nmyfNB9M1tBOVI40tTLQiH3fbOzp4Wh6o6N8eeE1AbLoSgUZ6+yv3vJAD1EqSV6/tWUiHCqNNikOe00pibFjhfwL/9+01+8laB6S6Tt1KiwzXOKBiPlvmebHjftKCryiG3we994Bi//8ASn9Qhh90w9NW3gDZqMry1OGMqV/W92ueaX7yDzhzEtG56rt4NzeJAYX86E7JoGJ9iNWh0h9YyzoQiK4WIulb2FJgshaVyEKKWMpQvDUmFesCp0Sbd8ZDMZpTBgyEpQsz2YeJaihcieA9F4eqBv84BFHZBrGWvwZJRAUqFOotB2KCKRn4tIAYlIZcFRgIFGT7afcp7CyloKDgxC0w2zeAlmg5JjEBkQEKfXquP6i7GhPLEwbxPqQ+qflYzpoqxitdJOVsz/v3Tp9LUXead/P8B5XtEQsPBv6GrN+rp4jgBPHkUvvLpQxxrD2gXQ0QbodRK/ZqgpC/EUkgZdBOO5q2NDQb96mPvoUeGBn8jmZBoQqvo8JXfMDx2d8rhdEyL0fSEqYkb1Fep26pyfSJs+Iyn39zmf/v6G5wZGoYsYaTAUhwIIg96/x30oPquj7nqVhfgoeMLdClI2V8hoAKsEqv+WKGwlvObA9YGJY4oYUqNJYYKa9swHks0c1ArDmaQBLZHyw+5/9gSR+bBFWCTjBgSRA6c34EzFzcpJAP11bNH4zE7O5HZHjBOYX5SCrpcGsOLl66wtduncEUUABoayuh3YICun3DfUpv3HYJHTy/QS3KmnxJQVnAJMKgkeE24srHLsIAiIry9/8r4UkeImFzbhJ3+Lg4TA2HYfzUOHqHATTb58PvvpkWtE5xO4bMXqM0SNeLrJqAQKu2/j4di8+Kga0rS0dAqBz0cC75gZTxibjzCzogEDTQjIlulelcafykFtetShZRiAys+chDyuQPkLTJOyVs9NgVG+YBLDv7s7zd45dxVxk4wSQQBEcAHLZQPK0d9BfDtEJZ0m199cI5/9omT3LNiGEuH3LQbrDSYHD22muO9PtDvhu7cUXkdigtkFlhSauG9ApIHdT6u6WYUOI3v4UMRgVBiJiLKAzCiMRYRi/PS2JkHj14T0HmNZmUxIStFifEakp9KyBgSOikYH8rrFlWMa8kTfBybJmC8OQraWIMzHcb0GJlOTDzVYMAzVlOlSVUfeEAzIOznhN6roBkRqSK771SqoCb9QgHKWaTxOE39kB45x4AHluH0Uop1Rb289y240oHc0Iw2994z2B2w2w+grF6rB6/YUvi8qTUtgFNSJ/S8cCKBL/3yaY4ma7Skj01c7Svty+huqfPeNQTRYdLmMvP8/bmC756Fq1hySVFTamMPltJmvbdPs8RB7KGR784kZMBDh9ucWMhImVHKqGKyJWCy5EmHy7vKha0mQA2GFxcKJDLyAVDuDsH4hNQJ1utUOozmZRDaiWFOhhyfMyylpSbOoFgMygT48Ru79M0cPus1xkLI84LRCIpi/7g0x8JjKMj48Tm44hRppSGHn+5lfATE4hzL1nH/YosHLTx4SOjaIbNAiUcoTIqTjIKMq1sDtscxBcYBc1Imas+Brb5nOJlQ+OBjNUtDWY2WgtExJt/kg/cfpcteTNfQQs4a8Ouu+PIOcV51jxJSGmZhw0x/u3B3A8yD74DLSNSSKaQzrAWVVrX6dvPINrNNr3rQGp919+avMwf2jpFFaKngkoxdgS2FH5yDP/+H8+xqB7LutDwtRYVkrDra1pFJTuonLOZXef+S5z/75D2cnguBXgOCcFCrm2OMchn4FX8GkDC7jTfjUyn7t8Tto3JNN4JyAsVForOP07JfUwCxeUum3ziY90bDdDMf8YFjZiKgNORFzcMO/sK0jtAr5IWrXatKq0PstxfIbbxntHo51aog66y7TyHmqewi1yNhRJddhD5tCu9B6ywbe9dBfRaHy+WhWtYdxllT5P2NnORuTM2zJE3TCkzeSe0k/CcAKAUJ0dfG0dKCHnDXMhxf7WJtSNpaVUKA+Pt0xFyTvAuLYTKZTL1fsZaZFTUaSowb7SMVsqSLjHJ6OoExfOgUfPnjJ1ldcCRpEWraFwSJtWiDtzUwLPerEXzaQnsrnMuP8H9/5xLfPhfyUw4wFZSs+ln14wAzgJbjSbVfZ5+R4Y+x3glOWnSAJ063mXNbyGRnZteFUINVEbykjE2PHeb422fOMYzdDYBDI6gMQS9nzvXpDwziM1IvdJwPzuAi+y5BaIlwvAePnlpkQUL1JO+jyUpzRgovXsu5OLAharwyq0RG6qe6uY97Sq5Mdj1jBz96a4utrEMRfXHrr5TBAyYUutARJ3opHzyachp4YAW6sjtzbFUEZzJyI+S2xVp/xBsXa9//WVRajvtM2NzZBmuZxMDbWTiwnD0LpG7I4bby+OkWczQ8X6VUksgBV0OBch1cpSghb2iB+hzBx7TxDu8n5PmIohiS+xG5jsmZMPIjhsWIQT5gszBcch22ihbrThggTKSNmnR6Xg7UVkYwGUF3qUm6PcawG6dueq9I8Fgt6A/HKPDKpuF//KvnuWiOMU4XMK158tK9VCego+C/ipCIZ6ktLNkxC8U6H1ot+KNP382jqzE9jql1vrUuDmiMedCtRciioUJMkwlWe+PnUgVZ0ixv7ncGDppCyz7+GSWeMkPFlCE4jmEzpbeWEtIBmR2MTRlOHNc2btzKev8b0hTStEVeuMjvSq4VhHKJ/qHehndaTkgKGI3HXNm5GYw/C1jO+FRU1gxpsQa8fm2A8+DyyYHR7SWv1ljVqEyl0/QIutOGbufcAbzo5qiM7AZotVp0u11ardYdB5Pwc1Qp51aSx5LTJZHgU2ky6C0fY8RV1CQVU7+ZZabqg7QTo8ON1JvxIJpK7nzDhwgpbcSvkdgxXXeCo8CvfGiBv7mU8+Lr2+AWQycIAQvBKdwTVJd1KcjE5BSijKTH6zueP/3+LscP93ioYzmiUVOoAcghDQY1JUu/Wwr3cAgpITnt8aU2P7s6CXykofkRUUQLglE2aFxzMmy2wHOvnWFjc4V0vkPbWrzW2s/+GN66sIbXFSyK0VDDxmtITr+XvHPkbsjR1RanVyDzjlLgD4DWsTOEF97eZmJ7qLexJwmFpIzzEVevrWHfv3rAzAWG22kJl3fg5csbbCcdSgf5mXNvlCyFHgWn5mGBgkfuSji+2uWV9abaQlGVyq8pl1CVZlQo17Z2cfT2uV6UQLKcDQUuXbmCsa2KGc9iQmVKqZDOacyJ5R6LSUgFMotUwnPKfWBoHJbaABj7vhgEPlVBfRijDROFnonFeQsGCgeTMUxcqKyZa3A78L72ReyNQxuuqucMlsHCITSfkdvyJuhWseWmVqrkBabab7f2MFA8u6Mdsp5yaQD/7m8v81rf0p9LCWEkKfhG9ikfNdCxeMPu2mVaknOol/DFR4/w2fsh0yDIGEKuxcq3OKohD9JGltaem+e6Py+0d4fdjIbtH09CWCdSAsebOEeCa2Os6BWbeb1kC1Wdb1E6Lcvi3DxmvQiAUnR6T1fdlsoa5BX6owHPvXiFz334CHPvUQlpJfj6XujD65c28aaL87P51l6BRFFarRYrK51qbWq1+u4cFUVxYODozVDZdxGh2+3S6/WqYJw7DSp/bgDlrRyGEOGakmgAgOrAZmCzxXAyvZMGeE+aGtQVDX+y6y/SSktzUw8QvIPECuiQTgJGHcsM+BefWOWt9SucGaVMxmCcYtXjjMSgiPpSCQeBVY8Xy/ok5QdvDZh/WvivP99lQYSMkHzWNsqL+YNOAbjpc688KII2MUT8dQTuW8xZyQYMyHGSBK0gHtEYtFDdIUQq5KbLdtHhrS1Pp2Vod6BwjtSEdBZXBrA+KhAT01JIzElYRRBMk1fIJ0OOz/U4Og8JgjOCU8U7h0k6bI6gX1jWd4awtAoUIAmFZBQ64crmLoVZraxce8lYKAxcHsNmLmDaJE4pvAOzf7upeJKWp2u2OdpbpMWY1Szh2FIbXVNEDD53WIkRESIh2AQTAi0K5epOnyE9etRMXyQAyiL2O/hkZRRFG+9TKnX2rGkOJxjeCabwnFjs0TUhVmPPJ+M8Q4FEPV953gQJRWMN55BYOM4DwedzAowJ4PhqHy5egxc2tnh7Z4O1a5tsbPcZ5Z7cp0x8xsQlFGrJVSlU8aoB+eBo5yEdk+ulXE7uoy9L4RBFbx6zyNSPUlX53jKnhlYY1ZBK6zYASgSybhvT6/AX34a/O6uYlXvJ81KbE/KkBgAJisEJiFHEOdrWc6xT8IVfOskXHk+ZrO1yaLUWYrLwjSCcRSGi7JFONaMJJtn3+nbgS9n34iZJS0DXXChxkezTvO/96s2JNtft/jtobznKKqZublNXANPgowy6Eei2Lcs9QyrKuPAhS1SlK9WadzTSbeUoG5OEZ85s8cKpQzx+wtCSwDMy9YgWUSHZTNZT/yxPLuc9xtgQGCQwkZCJ4PwavH11RCEr4UyRPXrGOBeqUEgrBAwxpt0VVpduB+y/OfLeV3kj3y2VGtiyZner1brjvpMl/VwAyls92SUDTzRWv5lMYJJhrQ1RGeXnbgLdq3oSa9CYHqKsChKUe/snVaD26dsjWQYQVD+zNBWqanCKNm28QlssSy3Lry/A+KNH+O+/M2Zbx3gF4z1iWqjYEAQjZR5NRdSSuAQYQ8ty1bX5qzMpvX+Af/MRxz2kgfl7RWLARwjsMBG4aKMfUjZ6unONl3uPxfK1x5Oo41fvdXz3Z5e4pMcopBvyl6limQAeF2Td0maPLzqM5SjffHXM6VMLIRrWC5gQz/vXP73COoKxHrXhOd5PoqZ2/1yaJEXGjsdOd1nOQJypTEHOC+vACxeV9fUN0tYR8rK/kuAQCh3wxvqYKznMp1SpQqeeZGANePriRXZyT2tsmNt1bLUSRjP2vHNjbLfgIx9aioBNWbFwYrmFGIt4D5OQWN9I8FXq+An9tI23wVT/4ttv8dL6YZ5aMRivYfxMyE85IeSiUytcuwKb17qMR60AbveeMI0+YAII7EiX9x2Zx0oAp2n1cY0AMeyugjJhTlmez6Bi6iBtoQKV/SFsAM+ec7x4qc+Pzo94bUO5OEqwmiMaEk4ph2KVpPpyIjHIo/TPs6AJWBv8LXPwuYnG5LgvtTbGBqg0W33SVMDcElzTkF2n8//deq2JIhTO8J2LglwYo+kJfL9M6QOl/19ohwmOB5knd56OKxgPtvnkE0f5ww87TqUprdVeI4VUgcRwiamk/GWgHGXeXBrPmCaZ4osHk5g92QOlTk4lIogGs7CKIGXgyv7BuFkkKnYAACAASURBVOFzZjw5XLr3ntIwvZZe6dECI00AXQPp0hVk70DsVTzuhV3V66YwO0sWiQ1QVZzWgNJA5O//H3lv/mzJcd35fU5mVd39vv31631DYyEaJECC4i5o4YwkS6PRjEae8czIjpDDEf7FDvsf8H/g3+xwTNhhW/aEPfYsHo1EURyNKIriTogASYDYGmh0N3p7r/st9727VVVm+ofMqlv3Ld2NpRsN6SAe3tJ1s7Kycjnne875ntDWlELpglIptOrQlDWa0gwJiJOQIUGCEeRDRFBCbkFiGKnjfPedLf6X72/xHz83xyPzsOxgzjq06+MiVc6SMuSHgrAomCZKkWb+TM6iiJ6DC+vw1T97lWE2Sxq1Iarv8a748C0/F3IBtCJtQKOds7Lw8CiU1TC696JUFp9ptVrMzMy8a2XyfiOYD4VCeb/FVylNcSohR9N3Obe3NhBqiNSQMAz38nojJYxHQ5J4IbR99yzv8gDh7oeVw4HyMXdFsSqvlDpadsSXztZ58VLKV1/dYVPPkCMYKfBAhQR0sizvVzyZgOiIzf6Y7/34Fr98dIXaYVgQQ0dGQANPe2L8tXcbjDs8cGG3FvmFOQolmjNHVjixvMVLN0akEmNIwmHmN+JcoskIhd3VSMz1XsZOBlZDPYnJHPRyeOWtdxiaLlaDVV45FaUOHN+6zXj8yAInDrcQRRkPqUSIE81NBz+7vMrmCHQ9IbM+qq5QREZpynYmbI7BxgfTB22mcLVnyPKIPIe8VH72imZEI9/h6fOnwpBa6gKnlxscao65tTHEqgRPuUGoOhFiuZwB0ayPhSu9jE/N13wyisMbCcpvsHUtDIHRGHrbA7I8hkSDuPI9T9v7/klEhE4D5tsxyV32oaoKP1HMLJFzWNGMgdsCl3rw7Z/0+cnFm1zbSrndz+mrFgNpMVZ1oB7O7UprU6dsNRbVJ1M5YpzoPaTk71UtvJ9bblWZxBYI5T6Jah/0fZ3nOLAlsuTFWVCqMBbDmDlBo2CcoUmJozFPn4Df/uwiR5PdTJu2st6rSmP1PsJBo/phxLO99/db7PZBppDKO8v7xaBLPgYpFFgmWut+9ytiipS+x26q0E/DjILHjszSfXkNVZ+h5xRVTtmC6qgwg4wQirZH5K7BN3/8Ctqe4Fc/s8S5WRjGmlk9S2IdWmwZI7pfjyKAOGIwHHN5FPH8Tfja81e4sF1jWy+Qa58oKfneNVMk8nmoE9qux+mFGscaRX8f/FzbLdZajDHvKTGnUEYbjQazs7O0Wq0pZfLDdnfD3xCF0h89GQbFEE3PxWwNehhTQ1h8Vys9iiOGvT5xHPkaqRY8OaTsG5NWWJRQOUiY7EUH9dcyydwt2mnGihWB3/tch59euk1/bBkrHbjIHFPHqVQ3+GAdixBpxdqm5d998xqLv3YU6jm1JEcbT2iLk4P2qANl9+XVrUJwGARthdlmnUPdNvHVAfWkQ98CqEDJ5DBF+rqbIDYWxY1exiD3TxcDI4GtFG7tjMkkwukYoyOMVSiblxRPu6VhRjx+aIFjh3z/bFCcizjYzTFcuNFjIC2QCOUsCkeO8e3mGb0xbGVMVWuoKlIW2M7hei9inHmXf6qLDNi9fZqvwROH26gMbGwwytvuKx04UhuxNtik3j7GOAfldX2/gRecmqJZH0dc3vauoYa4kqtUOV/6MEYYAIORJc0zRGvvm69GWe722jnvZu80DAtdTQPCQ1dgtiAKv5G48A/eIe9VcSXCGOgBX3kZ/vW3L3EtbXJjU+OiWVQUg2isaAz+uxUdEIyQHiRFyUA/wiIFDiRUZ9sHdVzseU0fkEd6L7rk388D8fMiU4Ty1T5NjMeJKaCc0MwNIjkrh9v8Z798jJNNSHLQ0URdd64INyk+v/9A3WW7+4jIbiXowRzg5V2LPaTwQtxh4IyxwdGj93Z5v4+JwvNJ+n/8hadn+Of/7ifY+izb0Uz5UZgglaqADAo924FD06PF8xdvc+XGLb745HE+frrNqUWYj4V6pIlkGoSpds8AvT7cvp3x1Vdv88dvDLhwY5u0dZhho1MJ8t3vQXx/YgeJ2eFwvMMnTpwk4eHJPn6vCmWBTBbKZLPZfCiyunfL3xCF0ltPIyKGwLVezOrmmCyz3g/+LkSJYn5+nsOHWxO2/g/c9glbSLWiiGgiHTOj4ONz8I9//hT//Vfe5Go+R54kEEe+F1NugOIQm550A9fm2xc2ePy1jGM/V8dRI4tAcnx8Ylir0y6RXd3b++P030IGnxJPV2KdkBo4e2SFzhs3kEjoj71rNJcaB6E0RiIubYx57ZLh8Sd9hOTIwX/4/hWGtkaeNMl0A4vy7hLqKOf2RVgbaZ8Fm9CVLhoPyEaBYm8AvLMOlzcyhvESRuKADFtiNyZyKbUIBi7mag9sd++GKAJjMtZHMRdWITcNHAnjxHmS6H0Gy2xe53M//xQtFcAHIiIsZ5cVj85YXhr3iGY0Q+Mzq7VzGJWUaGYuERu0+e6bq/zOU8dpa6gFoszIQBIJI2Bo4PrqDQwOnXiYyZkq3VQFX3ICzlJjwHzHstD1SRfKOsoSOoVGEQ6HWCY8jgYJ6Lri8g7cGMO/+surfO2V29yOV9jUc7j2Uuma87EDPgEEiSroZPFdM119p8IdG6hpDlp/weN6T6w9VSRnSse6254tlM+wt4GPpogDnTmSWJFu7nCoO0tbQTTGZ/iKjx2HCfJT8P9J6Qz3fz14+IQJ1c57R5Q/SnLANvqupMh+Lub2fmKMwUYCKoSC3KVNI34HVmgSHIdi4be/8Dj/27cuI8sfL3wW/t4V70ER4lCwYBjR2JnjrNkBvf6ArZfX+fNXrnForsYjZ49QqyuiRFNLfAlXgCiC4QA21qHXG3Hz5i2uX7vGTTfDmlrAzK6QqjplYLjDJye6gpeh6I2XuhnTtbc4Vt/g0bmTHOHhUCidc2RZRpZlByZE7vcZ8GdxkiTMzMzQbDZ9uN5DKA9IoSym/4fzWn3MVJNt4IaBF18dcfVGziiLUe39kaOJPTatLFprOHJshSTytVuV9ckvHICKFS3tdnmL4w4oZXGlmtqB8hBjqYHnTsOlTx3m/34545ZxpFRugD/3FQ5xe13AqUrYUB3+5Z/8iCONZ/iV8wkNyRA3IJauX6TicaYpxTZ8u6dNsbgoxDQlwcV8/FCLxW6d7cEI8gbEoSwHsN+2Z0TTszG3tofkpo3V0B/Dta2UkSQYXfPKZHE9MU5yHwXmXEArBXGWozNNPvNol6TSbwn/s8Zx4Z2Uvq2R66aP9XH+JUXkaJcjIoyIubgK9qg/CwvORN+OIyfl6tqIq5uCoe654AJBtH8voVK8+Oc9PtfkYyvQiSAKFSciHG3gZAdmE0UvHYOqewMGhyHChbxqKzF9Wrx6Y52r61scnW/h6ycrH09mfeLReAzrm5s44hKR9XRaYUuuxvM4H+UUM2RxNmK+6+uda1fd4MLAlTqUQ4USdDnQZ8ytvM6fvANf+8E13l7ts61nMaKJXIoJhPFVlPFOqodXGicK5v0UXyrg3QKTVQ/BbiTrACmH78GgDLufp+LE3IPxWmCsYyLA7GT826/1WflbLWbCOpYy9jKww5b73+6ki+pu4Sp/L353u/7toy33600K7M+TepBYX0hBVLzrc9MtFLO2oGXTKBpAP3X8+ueW+NH1nD/dNIHH0ccue+PMoZyv0lN4a3xGuWYoLTKpMZQmmTGYfo83dzL+8tJbxLWIKI4QiRB8VRclEbmxjEcpzim0qkFylh2XMHQJJfGyNSVgIq4IBpsWByRuTMtu8eVnzvDYckQTkAcQVnI3sdYyHo9J0/Rdx08qpWi327RarYdWmYQHqlCaEqrOg11R2LF3H9q9R81epaa6MU0OqHBnMmB1DG/24Y++dRFpHUXnKbbUBqZb8weyK1sqNn9lBpw6dJiuQF0B+di75O5sh5furgJEvPszTx9KLqA+4F/aqRb8zqebvLa+zXfe6bNJ2/dUYrzLKt+Fykzaypwij1qsZUv8m29dYqZ+mk+cdrQY0yq3mKI6RmAeFK/MeGTizs+65zfx6FrkYGUWDncS3rq1DRJXfaX77sYWzbZLeGdjiNVtcmArhxu9jFQ1MVKbut4BRnnrNTIOrf1mpSRnoel44gjUKNCVSdmy1AkX3rnF0MbkOkHIPImv04jzzMA5wkjXeWs1JZWERHypy0SKeuCGgTFcvtmjbztYF2JCS7qPUFFC8OUTneXYTMzJFrTFo6G+BrqjA5xsG5aaivXxDrTqvqSaLVzeRU51jFGaW8Mel9cHPD3fIbFjtE4AjXKOGBgbuLmTkbkYwXqgsagH7AoyDVcMuieBJ2UmSZjRk4D+fcWGDFHtfGUpYjZTeHsH/udvrXNls06WaeLEz83EjrGk5GiMRDi0V0ikgBKLlVsYM3Kw8SUAKdpKeCZLLj4MxCebHfC5OzX3nsRNYNADoKPizyWTkojPVL/PCqUrxi8ogFV8qZyfbnqPdaLIa00Gg23aUufbP17l84+f5shZzzupBRLxcdLOurKtvfvgbuXxTjv5wy53R1FFKfbzZt7rGz4I3K7u5dURPbCRwiSaKgqw/yeqlU3B72WLiQ+B+pVnD/ODr6+TuoiRjbBRnYgc5QiMsZTx+iVLp0AmEZlEpDiSZoehzRkNh5AqtI0xxlb2feUTqBBclvk9sFH34HUe9gNnfMJeAWpIcf8i4cuPnIhQc9t0zAZffOITHI+gRh5qw324OKWIMBqNyizve3VXF+hkq9UiikK+x/vIEr+f8kAUSldQw4xHjCPNepSQEzELdPATuaAJ90Nc4Np+w1JSUJKU6l04cgr73hMhK4xHZ1wgxyamPzZsOUWvEfOnV+H/+PpNLreOUiNBqzHGVtpRxQGmK4iiV66sWKxAK73CP/rSYY5gaMg6REMUs7gPbCgnh+jUNlTZi11AKT8xC//NM0NuXV/lr3YgabYY6sRjVy4P2Y4xe6xS0TiluN45wzfGA3hT818ei3imscwYV1KAKEcoUwJOh2QfQqxo2d1JH6eWhyq0Zr/QHUKkYKUJj7aFF9yYnnJkDsT64oZ2H8PLika1l3l1/RY/G8Ohmicef/PmiEwdwbj63n1ewOB5KZ0Ssq1NXLzNE59osVSHWQOR+EM2Vz6+76db8NLbt8jcocJyCFOw5nPmlUO0MNAJVwZD1iRBxLuWlNIUCUh9urx+9TpjOj4rG8A5hiEzMrZegcU6ambIYx3Ho7WAuRmLjvym17aGzx9v8PtmlZpqkckiufIKvSnQQWKc02AUuV3gL36yyq88cpiW8oFuTlSJaPccvGqOMpCR35xDVSJXvMOpk8wrZ8ux44m5BRaLdyscsAk6sDlGCQPRbAGvb9T5H/7l97k8OEtfdZCYYBC5its88IZi/RiL8n4wAedLdUDuqZO0DhnJCLaINQGQHSK1zswooY6QdBxXTIvc1hGp+RjFEBcsxeS4L3tx1Q2/vxTjbYIh4rSQOoPj4ESyD6RnUmCuFhWBVg6TG5yEyuyWfULSBCOCilv00h5KWf6fP79IrXma547DclENPMyJjFAJ2sG0t6ZouGrwP5yH4Z3FgQRKssnmt0dT1EphdrE/yAE/75Yphf799hUHEipgSFL5++47TcRWfooYcSJO+Y1H51gbzPH737nKwM2So0hs5unqAq+z4BUcFdaWs0UPLMZYhoGzGe2Nf+MEQux0cX6Uz6s8pZkpO+M9RQqNcgohx4nB8y7nwRCNAY2zI+x4leNzA37vS5/l/AzMhufRKPbR8x+oGGMYj8fvSpmMoohGo8Hc3By12gQ82ZOr8ZDEUj4QhdLT0MRQr3PLwoUh3OzBrMAhBTMLIUGCIoNQFQZ8+TdV+T7huqv+HJMDmc3JnSJXioGB2wPN9aHle9dW+bcv9LiwPUfe6DIYOeI4wim7q6+UYIN/RQqFQduMRMZ84fwJloGYFMgrXun78EJ3wzKucENPgL3zx9r88vkj3PrpmNsiGGvJUCAa5woUa9cmrpTnJlSwTYO/urjOH9eEhc/Pc7omODQxGZEzKOc8k4+aVNRxAWItjooDn1wmud6FbtkEPvPEIn/4k5vEJiWLIHIGxE65rstHRjMcR6zHbb7/OnzmPFztx2yO2+R1Xy6uiCkKt5iUOnOQjnMa3SaHajscW0yoa4jtpO+p+PjJF9/eYjNVWHx8og9j8BPQEns+PqUY5o7N/ojNdIb5OtQin9xisRg0VzZhfRz5Si3W+hrjldqBykGsIM9GLNUdjxyapSkZQkxWQeJjgWMLLY7O1nhnO2fHhWo7oire6WJ1gCVhdRhzI4XFJAlj7l3tDs3WEG5liVdKqWziFbhjsqkLpBkzbcWR2eAysv4u+0rILE8RhsRcGcHXfnCB64MGmdRwKgozcFKqUbBBiXEo5xF+63zdXQVol6PNmMiNiG2Osn1giAq0MSLig9IZoV2fORsRW0s6GDFsnGYrrpFndz+Y3a7v70/ufGBPXVVBKO/3UVBlKpB0G+1SYqUY6TZG6uWeV4iVcPhaMFpD0iW2jpfWbvGvfzDkSKdB0o2ZVZOkrqnSegfKR1GRrMpBynDFqBZV3ab3XPXe33UFaCipi+5hrN9Fyc9qaxZNpmJ0DRbnhW67xe2hZ9hgah1PPlEx2fClNtyEL/Kgg2K3IbNLq66GihFYHQyCKeaeOGAMTmi4PucOCX/vs0/wucdgBvyZad39jpK5J9mv8t6drlVK0Wg0mJ+fL5XJhxWZLOQBubx9XNUO8PULI77y02tcuNljNtYs6ZxWqwaBoWrl0DJx5O2JxcUF6olHS+Y60Gp4V0usIApgRhSUTgmI9iiPuLrquL7e4/LqJleu3+Liep+LaUK/eRbTWCg38yyOUBiPnlZEmFhbVjxVUGRGNN0Gzz5yjhjIcdRcsIyKomIfqJWwty0V8mcd/sXtGEOkI37104u8dPUKP9yykO/QEM1Q+USVibJVVK4IYQCFJu4sve2UFy7s8LFDMyw8oUEUTSKU2DLBRTg4sLvYK6aUunLLKbAbf1UMPHEMZiLDltYM8SN40DJxQRG7dsvyL77yGpeuL/LahW22shnyelQqlFXQwBN/e+UrjiPcaJOVrq/4oordKdBdGuUVyjdXdxi6GkbX0AqMNWgVBVRJoVTsYyZNxmA4ZmcEUocWYMlwOFJirvTg9kjjJELhFUpchCreg4NIgx3scHgmYmWmG5Qkh5byLZGIJwZ+9slz/PjbV0lUn0zVgoFQGezw3Yri1hBWt8Eu1LChGKPFMDIxWwPYGRlyiT2pvOxjaASJlSB5SrumWZrxmfU+YeaAU0EUTjSpaEbACxdu8+2Xr7CTnMUVbv+pTk9mCYBSPnbL5o6GTambjNiNmW0ZVuYTjh+aY2VxiXZjSKw0Wmm01sH94xXM7sihxXHb9PjaBcf3L49Ydwn7xTZXE2Sn5s3eJ7s3ec/LvuB6vb8qpXIWg8/qOrPYYaHuePvtt7EqYiS1PUUXqoaGFRiIRtk5dCS8eCPnL95wzD0jQI22ZEQhiEkOqGW9q+Vd8nAgKx+YCNyfM1+mv/bwYb6/liE4ZnyENyl1RgJv9eF7rw+5sbGNiWthOQWmY7EVldLvD9OzuYAzdu/vzg9SSCQoFc59+zZtcNmgUHqk2KHcmJodEbuUWfr8gy88wZfOwYIKOr21EFzjH7bcLbu7UDgLKqBGo1FyTRZS6BgPq2L5wLK8DfD2GP7spat8523HljpGNBzSsFuMNprkgdZZ3km9HRIJkb5BJBApB3mKScdYkyHWeFpVV7hmfbaXFYUhIlcxqdRIVQ3LCrnEZElMlreDIRXcbo5QbSMc6EDhKoiMxiJkClpxhBr1+OTJOk8fg7rzB3gm9aAM+YOtsNHe/9StWqPVv1FGQOdKUCjqiebxGvznXz7O8Bs93lgdsEMD41QgPp/A6165827TQqnWOKxqcGljzFefv8apxeM8sgyOhFjhqUYsGGeDK73SS1ehf3CUcTC7R6D6Ww3oWvjS04/xL350Cx3P+kNf9tIVSUGybiHTLW6bOb764hVyu0BaXyhfpWX33moQLEZq2DRjIbYcYoMzK1ERLuavCp7TtT5c2YYdaZHpZkhytqjYUY39LgIv0swyyPziGZotTH+TRneJnoPnL26yltWxKkLMGEGRSUD4ggIbuZSG9Hm0u8CpxcjPXWeQUsHwzzNKDZ98bJHf//cv0Oossi1z5KX7aloMmhsDzcuXezw926SpIzQ54hw7o5xUIrZT59cFcUntU6ZSyGSzipxFu5TZuqIdF2TmqR8svc/9JfLrToQU+O5rN7ilFhglS5jxZIsRKfjsAkKJZwFI4si7CiNL5/bPeGpZ8cz5szz5SJtjy7AQyj7WSEq8vUC9M/ze0gpHz21meXVth+/tbCG17p5zqtTDgyFaLQH6vqSa5f0QInHKWRKxdLJtfvfvHuKf/59j3hj1Ie6S22lFUEkRVhHEwRBB6S5Xdkb8fz+8wuLCCX7tDGhimviypV5BVh/QgP71k4OAuA9VnKvERzs0I0ZGMdKa1wbwz/74Ct+7FjFwvsiGd3XrUJ7VlslyxfMU4E7x3XFAVZhg+Ht7KqiNFSNPwg8TxkoXvBkAFmxOXY+ZUzvUh9d47HCX33ruCT5xGE4oWMAgdowv8xNT7Bgf1rhbaxkMBsiugiGFlPXHRajVaszMzFCv10mS/ff7h8XFvVsemELpgEzBWFoMpMa2mkP0mKFTjJjFSRJcZwE1cRYxPoPaIz0Nn/wSuXJy+YnmlUkVUEYnEg63JFANRODiCRhjc9B9/GyNwEVh8lsQHUoWFhtkFKqzGJZaMV94bIUjTWhKHhzhSXk8qvIp39+LLhdSxasxWawTey13E0LiFvDJw/DcmSZXbqxxM0+gVhyY1UOu0ABd2a5gcarGtpnn5Wu3+aNvvsE/+tVzNNpeSfG3s8EmnCimxfqfUh/v4fEj65gR4fzpGt2fadYMYdxDYseeAfGZfWPtSFUNp9o408AaX4VlX4AnWL9WhDxLmWkqnjraYTYKSWDCJM7HwuomXN9x9F3DZ9Ir/6wa8VUXoNwIRClyA7d7lmxJ0RBHveHpjDZH8NOr22zZTum+d0wOZ+UCKmqHdKOM4y3FXD1sutZNkdTmQJRolrtw/tQhttd2GNoOeeG62fXMFs0ODW5sG3YyRU0H7kYnWB1xY8MxsJCJKjkxLZNwxukhz2gow0KnRSeQAvvM8QNerggu8n3+6U24vGnYjhfZtg1sCCnZbWK4EmUQlBKGwx1EaX75k8f4T35uieOHfFWrtvbzuyj7OCkS6r8bInKgAeRY+lgSpYj2U3zLNibfiwS592/wywE/H3BlxZX3II4GrQQ3HrK0aJiz8KUnj3PrpS1SMRjPBzEhw3ZSztUCTHLWxzNnkvDyasr/9fW3Odw9xacXoY5Gu8AnhJpakw/nsfdeRXZ93/1z4ao8uIX3fkLIZOOdQioPajD88c6Ex0Dx1iwS+HaVbpEBX3l+k2++sc56fAriGFEaHdJbrHiE0HtwJtXZp5wY1aTWinhE0vrwAGwIzar0mQlwUZ54AcYUIBGL0ylds8GSrPOLT83ztz95lo+tQBvHDANiN/IxXRLdQ3Tz/RXnHMPhkMFggLV2jzJYLaVYr9dptVo0m03ieG+x24ddHigPZWEDGQIKpGqMpIEzITg8KC9FEErhDrLOT7xyjVS1rCAqULsoz7QXaCxk0q5PQiVyA6za8te4Oo6mp1fZ5dKTCqmJHW3z6CNzPHM6Zj6GuhvjA511IG+ZLJx7q9h6p0EKCQSF0lc8qrhS2dzzkfGII7U6v3Y+4sXrK1x4LUfZDKVjstKb70AmVS0QGxatwkpMGjXYyhwvXnyVky+tsvjZZTpomgF5iZxgkLIaQUGXo3h3KI82KW2JOTyn6NYVemAxuSBxQbS9++EMTo9D9jA4lXgfaeWGe+8dYjcFWq06+eAaz549RBJeb6kQO7+Yt0ewmUWMXBE/CZHTaLsLqQnD6Jxwe2ubETPMKKGmaqRotkaBx1IauApyOkVQL+DsiLrOONzSdGvsu8kYZ1GiaCp45Ogiz6/e8jGtTGIgq2JF6NuE672UVBdUSc7j7hFcv73N0Am5mqydA+vL25xEW+Y6NdpxoQA5DnKxFUl1mxZ+euEaVzZSBsksqQNElaUPq9u6FU+0LVbIszHKpXzskUX+7hdb/NycR7IRiHMf5lJ8enrtC5l4RC1iHEZGglusSg61++57//a+DhzHxKNwBynVkaoy+UEhpHcRsZZ6pFCDdQ7VjvCLT8/y0i24+uYmkiz69RL2W0+5JcFDEIwvOzmWs8YSVwYD/uAblzn16yfoNpTHvEPyxRR5UpGQ8ddBs3SC50sKv1f4GMtLrP2gPNG7RIUlOKFn8v3Zb+YWymZB+zZp46CZ7ott2pBgpXn5as4ffvcVhq1HGbkZIgyaHOVyjOhyHboKMl+QRnhjyffNH6nFOV5VG93EgKFgSak4uIWymIGn8PWJm+Icse2zWMv47JkVPn3kGF88HnGuk9MyPbQG7NhTDLk6yCT58MOagsYYhsNhyT/pnMNai1KqJCe31pIkCZ1Op3Rx+4RP/74fVkRytzwwhVKAKPcJEYkbI66GsxC7BIvydTidw2NDFUtlny1fKv+f/C32SQuleazQTpXE414zM1hqiJ3HiS87oopYFAFxhiJ+cqQTVL7DkunxxTPCb3/mMOfmcxo4ImKKzMwJSlfUJA39kUkvfY1uX1u2mkAClDC3TG1OJZxaaa/gx3NT7eMgi2CMYaWj+cefb3Hh9Ze40ptj3JpnJBolrkSrXHn/AkELdZE19FWbH6eP0v+rW3RXlvmNU5AkiqYAYoO7w39m+q3c20EKIMphZMzsXIOzp2o8//1NjGqS1Oo4pk17KWBEiXBOIRLjTAxOe4V7arOsShzeSI4yO8xGWcEPXQAAIABJREFUfc4fOkFBORoYZcIoeI7MRqyweebduxYiFwcjAyZF2FVITNLc3hyQuhlyaZPiY0F/dn3M2IQa3M6WSGChhCsZI24bmw9pdNsceayFi0FseP9SDihWPHPajIblpUNstmA0VpREBLueW9CMRhGv3NjhJ+uwdEiToHAuwQis9YbenY8hMgPamWGsE3Klp+cTkIkjnm3wxKN1YryymMT6QGPJ4V3PPQOXNuqM3BHENCcKVMj4Lw4ZivXoFGIgH/d5rDvkvz0Pn5rBK/74OHqnIC/ofyZQRSnaeZRVRKMloo0itiMU2cSNL9O7x35o5PtHMILxWv68j7jJv5a1vN0dP/EBimByRwvDiZqv0PRffHaWtcuvcIk5NnDYIhDdKZQVpDiMBc/yYP2ai9UMw7TBC5c2+JOX4Dc/DbMSM+9GxCaHqBkM7Qwlm3gW09b9eaywfxYr9P6J7Pqq/n0Sg1+g3tXOuMqVU9ftc5eDnsGHw4hXKJ1jOjZ416f2IJkHS7HufTCPL5SQA8+/bdnmODtZu+oe8N9Eyr0tdobEjohGPVYW58jyjM3+iGEupE4RJ3VQmiy3GCeeYYTwDNgADviKUd555t9nHMdoZVB2iE63qWXbzNcMJ5dn+PihBr/6xArHl6GpoCuQEKP0XGjTJ3l6ujvvgdSVN7D77d1vGY/HJV2QiJBlGXmekyRJ+TUzM0McxyilSmqgso8fEWUSHjBCqZyvUuhL2vk5pZ2mGpi7V0G5t8F0pYJU/mGynMR6hBNfvUO5Gk4KqpJC+fDYqXKekiBWI+qywROLlt949iTPHIV5BtRJUMRTG9i9YxP3Kv6kKfgvCT0vIP/pFh2iPflKDc1jC/C7v3Sef/aVn3JtKNjWQuDp8hFzpWVZlrIrymdZcq1JkznWBP7H//d7HP+9z/LxOTgSe/fjXiVm/67v9w9lv7XCmTFdDY8ea3Hs1T4bqWJ7mEEtwE17pMjt1+BC3bc7MsN7y1yRUrc7PPvkMWYTRS2Mog2JfwXY1WlBqwaJsj5+zIFIRFHXfPeTODTr22OGBvLII6frwKXbY/IQXqGcrZSAdDhlsWQIYyI3ZqHTodPdZ+zKu/i3UxM4vqJZWJpn61IfHVU6Xv2oA6VqbIw1l3cgO6SwRDgHeQQ3NwfkrgPi0C4nsWNypTGustWWNkrOTCdmsetH0gBjInwK2l4p1sL2GNY2M6x0wPmEOSuT883t+pRHH4RaZDmzkHC+BTOuCDQpFFB/02J/2Ps2fOKTQxDRxMETIeyHdlPZY/Z/hvcuVcK/g9d7qUwy/XXfJZDmixMaQNPC+SX4T7/8BP/Tn99glNZJaYAKe5vkU2hRlTvTGRhmMRt0+KPvXKAz8wi/8GhCS/mqUkZsMMuLdXuf5Q7o+Qcr4R1XjHm/FicapAcIKOdZFSYIV99RmTxwDu5hd9jd8p4PMG3kVP++9zMFa3NOwo0hvHVtG5cskI2jiUJZ7ah4J3lkc1pmh/OHa/zT35ploQsXLsM7a3D1Zo/b65sMhmP6o5StLMGoGsaBtQ5rHT5XzCckanFopanXE9qtJrGMaddyzix3OT47z6m5GmdWFKcTWCJQVFae0FGwmkRTTGi7Xe4PUj0rqIKq1XGiKCKKotK9XcRKFoTle0Gmj448UIVyaj1A4DGuWA0hY+L+Wpr+kDPEgCpnowNyq4NSmRIPrnC4MeA3v/A0T5/yfFYNigPVH4S7NIAPRKR0eVPkqpSomiB7N04RBO3Tghx0NTz7GLx27Sh/8LNNeuEgQe0lh/YblK3sTRmOMb2xI+Eo/+bPVln+jWXmWt4SVCGT4R6wmDuKUkIbeOpYxOPL8OOL22S6zVB9gNPROTQpTbvNkydPlPWHoVLdJuivsx1oRmOacUymILUQaUXuTQ7KuN6gdVk0NzaHbI+BCMbArR14e7WHcbXSxWtLlNpnXDsB52LqbszR7gyLDb8Ad6OT/jNeNHB0Hs7MKm5cFUbW+RJN+46rYie1XNv01FFGvL/aAtfWe6APg/bJayMd+6oX1fuF+ycu5VCrxXLT98/nE4XSngeIBQZDuH37NrjmRHE7YIIIBu0c2kW0a4oTKzMszXr2hnJPKCZ+eJ932xcc3lCwzmKL6+/Sj5Ji6g7X3JtUD/n9GyrGuFQqi6/3c9t7FJ8GFZGrGimQWWjF8NRJ+MTRlN7rO4zNEcY1QIPVY5xNkMDJW6DKAiU7wtAorm7lfOOFi3TnT9JZrBPrIblnK0ShwQbU6P1oznuMkQ9Lditoex/IWetjKD9w0kPvxStPy4O00rIjoa/3EENZuJ69ERux0YONjQ2E5r738DS6vn3tDO28x68/8xTPNGEROH8U1AmALoNBl52dHbb7I97oNRjSxDrLcNDH5jkqoJNaBC3QajaY6TTotGG2CTM16EbQcmNa7FDXGl8IVqMF8mp8xT5Sxa4/jDkkIgyHQ/I8L93c9XqdRqNBo9GgXq8Tx/EU2flHUZEs5KGo5S135dR6vzfYu/oiAtm6DU5kUegoxliNUgmfPdLkdz73KE8ehWWg63IaRkC5QMOsykV4z90AyiyAg64p3OPlV8XWPOCjYn2cmnYZydhxdibh739pnsvbQ3ZubiFJmxEJ6b2gBXnGiAa9pMV3Lr7D2RdrLH5hhkMoYimQowofaMVtt+dZd0mRTKFFaGN4YlbzmZPCOxc3sVJneC/TUQIPYYmYsHdzdQ4tObFLWY6HPHPSj11e9FlANKXF36pBJ+kTS4RRYAyMClvDea4zqUB4OZph1GVzCFHLtzsC3lrbwUhr/3eED13PJOZYXXj6WJcjiXcGlhtI5RkUjhhBO1iowdl2ykv1iLHRyD7UE77UpjAwmpevbrD+qQUaIiQCqzn0UqBZB+vIyenHhsjqoLwVlFL+/bQl5WizzhzeiCqwcY9Y7b13cF4xGMBoNMApe4cpHo4tmxFZiJ0l669zfHmJVhR4aPcZj0KZ2dvaxNASCuTDenoO58n4gV1u7o/uhv3exSPrqTQY4+dszfmKW//gU4fZXH2DH928xUZ0nFQ5DJqoEi9YMkUIGCwZvq59o3OU7752AdoJx37lKLVojhgfAxuBt4pRBCJT7vVYL5Z0oQ4UrveHXe7F6HkvjyH31Pp7E6msrWJLNcaSZRlCEl5dwSIb+I2D90U5R+wyHj8ObeMZGUYVN0a3Ca7ZBto8SREcoHF0J5FEwftV3Ltk7lCgta/IFCFEhKptQey7HI4HPX1GoxH9fp88z9HaU50dOXKkjJvUWpcxkkopjPnwy0O+X3lIFMrppfIuuFjvScqycpUZVQT8WgTtDJEdUcchNuXcsUX+6S8e45NL0MUrk818HGawp0p4r0rwPX2ihIv2c03sfrYQR2Z9zOBiS7OZDjneqPO3P3mUt/7DZW71t6l3D7GexeTq4MwxcYKWOiZqsGFBR22++/oNzi1YfvHxOU8PghBjPUjm1F7EdJ++Vp+icEE0yJlH84XH2vzoxdv0tkZ4y3N/mSg0FWWj6keqiCei90laTx6f42hjejSLMKRiTiRKWJmP0ezgnO+HJZDtB0oq3MRyNETs2Br9dBI9deMW9LIEcwBtijiHEyGXmLmacG6xRp293qTJ2JXOG9rA6Y6hHqn9vfDFyApkkvDW6jaXdxZYbvsF/vzPcjKJiSMwua8iZSKN5I7YVIbQORBLU2WcWWzQwH8+Kw+TgyQEmjuvNjtnKrG6+10uRM4QO0fkQPIRde2BV6XxNcYpDJDwbAf7AqfQL2dDKUBX+RJClv6BD/DXXgqlLJM4JLdBbGAO+NzRmDefWObCjYsMXJeMDo66X6viQtLdZPCsGIxSpFqzNtK0Wyf40aVtvvGSYeYTmiPiV7KQVcJt9kNvD3DyVs6DUpms/P43V+6vSlS+IQGwWGdDBFJgUCHETrrJHuzCWtUKajXI8pyaLw828RCEeIl6mShLJezDosQioYwnFe+OVVUvj9+DzNQhfkCEVCkf7mwpDNt6vV7y5jrnSkXyYeeUfC/yAAJcJvIwGZhOhEwS8jhhrBrENuOpuYz/+rll/ru/pfj0kmWRLWbYpGVHiDWE1bEv1cqd7/Wue1d+6SJ+jP1Z9qfVLAMM6bhNluItPnMGfuljSyxkq8SbV+iaHnUzQocKOHvizJxGmYZvrAa9RPPq9W3+5JuvcnMwIgtqjnLWBxrmMCG1vNcn8z2uG8sMKecWLZ8/f5rEpnf+XPVQucvttM2JnVcoHz8+TxufNFJyuQseuVJ+Q6oBJw53iFWKMaMK/BqBcpPEhNB/I5qdTOiPYegCx+o7t+nnMbsTiwrx9FcCRMw2Is4sazTjMl5wP/GZlx4lfGQ+phFrTFa8c7vry6NxuYpY7Y25eNOS4rk2X710mVxFaKkseDWZOR5ldmW7DZVz7kiML9qZ39PbLcIHvMF9gKJQXItDOxtYGXIicrTzfJeaCiKPVCLxiggps+vLlmxj9z9Y5qMsgYha+5hfAWrO0DFjlnL48jOL/OqXzhKrW8GAKmo8TzgCC/pewS/7TEGfBuNkgdW0y9e+9w5v3vAhIH7ODLBsYxlV3o3s+jqot7u+PiII5f0Sx8TQul93qJKIF9nbSjmEHIcL7B5SKpGE3zOp8a0f73B9CNsqCt6VnMjlRM6gnQ15ExYVZlRhNARG6aBHho1X+eRDjSVymefTxSdDWqKQj34v6uKd96EHIXEc0+126Xa7tFotkiQ50KX9UXd3wwNEKC2Q1aDZHNPK3iFunWQztWwP+ySNNkrFKIlxNvITx6mpzQQmcU4HKRY+yD98ygXGOieh2oo/mGIlxAowGZL1WDA7PHW0w/mVFr/yVIOzXZgThzVjarqBxoHk3gQraCPexUsXIFY59WSDWhLR31FgI5SLUJIgotAVa0U56K+u0+xYxAyICkXG1idjEBouUAPPDhGYs51A0qQlEadi+M0nG+S3l/nWm5tkzoBKwAk6H5R9nEYQxTdoBVzMqizyZzfXmf3LVf7Jcyc4XwecxWlFGiliV9TumWrkgLNCglrgfZsKxRyKXzsPt9cG/MFrP2FDumTNBYaqhrgxIg6rNNZocHHo/53HW2U5DXJOdZs8tjRHZCmTIkukpUSBYdYJH9ctjqAZ5IZBpfx5gW5VMRrnhFEm3NwasO2akMPGTgy0cOyXtuJZLGqxZjTY4czyIjMRRDYJJvZeN7JXqHwGZAPhbMNxPO5x2eWMbGNyXYnmQa49t1suNV5bHbF6tomO4K1ezCjphustkYAxgnaTEqcFGTw4TrcMj9e8ol0oFDLVs70vQFFdGsXK3X+dWBF2EkUth3aqUDohV9CPfTsT1LaiUkjQGovfAx2NIyEDcJ6XFNEYlWAknqgwFXdatWWY8HBq3q9nJIcQEuI3pr3zoFCKjPN0VEZ8LOKD4ckzKMZobXD4jd8nRDo0Y852a/zuc/O8cvkSL27dZs0dAvDMGRSuSE8Do2QSh6wTYZBZhAZvbe/wv//ZO8z8R8eYnYeEGiYfeJRfS2XfnPJHVUeo/P8eZZIHMUZ3Eod/xxWDsQh2v0vPqtjsnU6O/ebn5A8ZKBMKcZhKa/sjvP6aYuOr+kH272uR0qowxFoz04nYuXqdeKFGbhxGIhwKKwrlCIwAwlAnbERz/OGLq1xZd3zpyQ6fPBbT0TEtDR3l9xFtx2S5IDoiCpEUqQ8txwFWaQwOqwu2AW9MK1ewp6iwt6o7juHDJLVarUy2uZOiWHIcF2jsR1ipfKC0QV0Nn350hv72Gi9efpEk7rA4P0uqBwwzsLlGqQaimj6A3GhyA3mBzElAIqZcIH7yEahxFA6swZocm6chrdcfSC6CRBvUYJ2VmTpHFzS//ZlTPHsWjtegYaBrByg7AN3GhQxYpwTnDKrUSt6dQtnQGV29xfDWOrRP0sxiYhMWuShfei+0rRGWFmdx/SvMN3yMHRasVVNUd1XiHicOKxYV7D+D3yC6wFMrkH7+NH13ib+4uE7kIqKkjqJX9rF69Du8bqqNBhGyKKGv5/n3z1/k06eXOHM2IcZglDCUoDBXqvHcTap0SyA0ER5dMPyTn19hdjbiW2/v8PLq29QbS2BzUpuz6TToFkSTtOgysXNiLJf/UBdNNBjy+COHOTIDCb5W9kT1KrZi/3PTwHEdc7hR552+3Tsou59BFOMU1gdjeq4JBt64tAlqJZT62isimsg6ZnXOuaPL1BVlj/a9nmKTt8QIR5uKpw43eOX2gBumXmIJ1YRTE5RfKwmX1lPWcq9QXto0mLiNcxlCjkKjTOS5Bsv+BaUNy+nFBof1gISmrwvPBN21VEn8J30VBKUCC0hYb+W72XWGWQGnhTGKZhohcYO1HcM22h8+lWpBkxEq+ldVLME5E3jxLDnKK2jKZ9XvHs/i+K2+2kKhVO7A1313EYJBV6DN+xsVxTAUme9WJpyu918MSsZEKhSuc8WzK1BjGi7lZNTiHz73GDe/do21zSbUaxQ7jQuaXflfsQeLxauoCVuqy49u3uL3/+RnLP/9j3GuXkdZX2fZVYLBp7eK/ZTMaQVyN5Bw/2X/PpXVkKYeQHZ9P7jFuymUxXX7Pacj9zROLmeiKO4ZzEq/rVcqpRojU1VE97u3VyjnZzQrCy0WZ3dYSzdRqoWR4C8RX4GtuEVOjZ6e5a1sxLU3Bnzz9XWOJps8fnSWx4/O8/GTHY60YaVbI809y0uCL5+sY/+7NaporvzyT+FCYeMAdOwyaw+WD9f0AErX9t80eWAKZYzhCEN+61yLL597hmsjeONan2s7Y354e8SNvqW31WfQ3ybLFLmNsLaDpe4tF+szbqcs1ioaIg7lLNq5su6wrvvNUMVCY6bBYjRgiS0+f7LDJ090efLoLPUwCBofvzWSJjH1CuGFo4gVLDCRdyMJcPpImy9/8hzxmxtcT4Ukz8FaxhTkrhOoO3ZCtDXm+Kkun/v4HA2863NSw7m6oU3seIv1fJ7hd48r5dRUxKkV+KVnD2Fr17iwvoZJmoxNNlUiC8Kh6vxzRypCiZClKQkZzx49xdmVBh2N35ecJ5zeg+rc1WCfqErFtqBQnFpu8Tu/WOeRSzt8/2erXN1IGQ4sfV3jWq3F7aFma5iRuVpp1U62cs9X6X+3dOoNpDfm5GLETBu0csFJUhDoFmM36UWnnbCw0IWBmSgy4o2J6uUuGDWDUcbmuM5aBtvr8PbqNmnjcBmsvluiKMHl2xxtWU4e8vNit2I2PUouvHfv7GnXE84dbtB+6SLVJNKSx7DscIRzNa7c2GZzNEs2gv4wQzUcxqZIqM+OA+WS8nx0IX4SDPNzs9RrydQhWFXIbKlWFP13pZJRgjZ4HrjdG78r2/Fl+gwxLmlz8fomW59YoAskpZEglXtXUNLCknAOVIaSISmajJg0UqB6aNnB55zeXe7loP+oiziLcjlRUQm5WIbO8/aJ8xVIPnumyfOPLLH643Vu0vIVzAKfnytox0pLwVINMxhFHdZyy49uXOHrP91g/pk5VpIa2umJnVVoh+W3D//w3yOuqElmK16w4pwpfoapjeL+dyqAowWe7Yt/HHjvMuOlOr7Fzwf3V2GYjeDciSUaL90kzjU2aUx9rOBTlxysRGQSsRXX2RLLTSxXzCIvXB5Tf2uLQz/aZqEmLDaE82fbnDva5nAXZjUs1GEmglhZlAHlFDqf7DNG+UIMRfXbMhLpQGv/w8exC/koo4zvRx6YQqkxtHzEDQ3qzNZbnD7TYkCLXwZ6wHAEOzuws50zGkNvyzEaC7mDwWhImmU4YJylpFk6pVCK8kphhFd0kjhieWmRdruOaEd3TljqdDjUOsQS0AEavsBdeSgXXGumzNoo1LgqVFK1ku4+aTSOw82cX3tqkaceWWR1BM74RJqaeE96tVWFJ4DvzvgMuSabRCrF0kEIpN64SncKxG3aehMcCQZt4bhEdE/UeXrlDGsDGDh8fWk1aaKKWhRuLYUH3JSDo3Ow0gwYTPhgRLG495HKmq/a8EX0395xgnnRPHdmhk+fmOFWD3ojw2akeSGFP/1BxuuXt3HOkIuuNFw8f9GyIx/lzMWak3M5zSQhwmciWhEmJREnY6iUpd1SLB+awV5eC5qedxmVT1fpshXFyCiu92Fdww/fgG069DNwiWK/Tc0pQUZDzrYzjnYC8uxbY7/N0T+LIaeGw6Fcxpk5zbwacNFUFMnyekFcjAsqw8bIcnkDljSgG7gQx1S8HCnHzXc3t4ZIgdZCq90giqLQs6pSV9xv7yElOGp1RVKLYXiwE3dyPvsJYiRirJq8szXkSg9mup6HMg5bk6NI6dDTfXCQmxwTRYyocZuIIXBrCDezhIGLy1CFPQTisk9/HlYJp+v0O9hvBd29IalYe+V5FwIjlQh1LF3gdz4/w43b6/z5zQ36qg3OI5XW+Si4opWyuEBo32khzZusxyt89aU1zp2co7lcpy0HYba7HxSq82Y3Srkfof/9EFcx2Cdxxu+7Blpo8QOYc+W4v9vBuNPd/XN69lo4sZBwai5mZ21MHx+PXZjAvpKYPxeM4MvBKlWeCykJuY0Zi2awk3J5O0e5jG9eu8ZiN2a+qTnccpxaaHJqucuRlRpzTVhIYE6gY6BuwOSQiucHrknmg1uKBSxx8Ex8dFzgd5K/LgroA87ytigyGkASjso2hoXwL1KPod6ARd+tHE9emllI8w55QOwLii1VRPDj57PCT3QtlBUcC8smjgrmyUJRLKgI8hDsrIIKEdCaXYv1vW4nigFNdjihl1huK0Ztr6pEeKV2t41Z3DUDLDktNonQpNLaZSCHU7IELIXi//4a8a5r65MdOgpW6pA3fdyWr3jj38luZaHIyZTwBEWfvIssL6+InEc7XEE7sQ8ctXudVLe06giH4ptEmWGBEUdnckbzCbdocH0N4tE6dQxjaWN8ZOselNKTXDuyoWGh3eT4jAnZpjkYhdIqxOdMd1WJIYkV8/MNajWHSBaeE/Y7Ci2KTGrcHArXM/jBW1v0dQerYlwB3+75DDQixROLiqV6iGpyeej8Qda2oYhfFJtxolvjzHyNF29W3KSlwuHLGDoRcldnjPDSRTjWAiMJWLdPjKDPPHeAdQ5rDY1mwvxc7EnJqSoxrjLDdr89f/9WE2Zmuj5T6U6HnQNf51cwAjZpc3Ftje++0uTEpzq0I8fQjVAoIonRlfmogNwEo0zHDIEN4Abw4hX402++wAu9OaLZE+T9yvmzH1Dzgcu72CPeTR9kGkXdq9Tf6y1DrFa1E2KxyqGsULOWOeDjLfiHXzrOD//VX9HPMpy0sErhJAKRYHS6qactQwlrddYdvLTR53/9+mXqf+cET7W8YWOLEFNX6dHUkFUVubKHH0KWd2EUVhTKD0Btqfb9YVMfXFhdCkMTOLMMzz56hMsbVxkWiaih1q4HHzK0yhA0zkVlgQTAh2hJjI0UmbRIKcI7HLfHBj0ckdzo0Xprk060gXED5tuKc4tNvvjIIZ461OJ4R9FtEIopKBQ1yFMwaUEFQbErVQ2Ah21c/6bJfVcoi2XpnY6zQZUrFIIcRerJxMOSLbjui8/aYAEZHUiLYQK977qPP3gnXIMqgghHFLLLig8adIlUFQezwqBdFlyjULh43vPSD52LJEfTIyGm7dpkxBjxCTGxa6Ht9GEnDiIDqYY0iojNHLgGjiR4+gry091dm7gzfDUcTaojcl2gPF4h1HiqlmJXd7uUGVtRUJ2AciZk6BVVyxUSyllVXbbVdt6tsVWcRbmCutshsiNvSdgatRj6NzN2Vi+j8jmI8tJVa4JBUUVYfWKW4vHThzk+PyIm88MUXr/sB5U4g1YRszMRszMNruw4zFTd2ckQ+3kmuKjGmzfX+NMfdnh9dUCq5n383kEPr2Cm0+DJow06BWLj7m2wBEEJLDfgieMLyGqg58EholAoX4+eCaqzPda8+HrO27KDIdqHIcArE85pcgUqicjyEa1Wh/n5gE7f8wbtD9xWHRYXF+HmcDIdbfGgxaVh7joFTmEF+qnFZppv/+R1zrUWaD82Ry2uE4X8zt0ur1xgOPb1ca+PG3znnYyvvrLGhc2M3rhDr3EKcsK6fzARimXd5DAe+0n1X8svd9DV90Gcw7kKuik+DKRMu8kMTUZEOuGzRyM++/QpvvHqbUbGZ27nIeDTyj6JeAKxzXFiSVWNjXiZr791lda3+vxXz7VYqk+uK2xhHLgKZUYVpdlvjPZsefdLnJQGalWZ/est/txQaDRwSOAXnl3glTVh7WKoPuX8NBdnERmB2kC7COXquKyBJcGig0kt5BJNAB8gMu7/b+/NYiy5zjy/33dORNw1s3KprH3hToqUuImiprU0utXq1mjsnh7A6IcGxjZgwDAM+9mPxrz41RgMYPjZA6MBb213e2bg9oynR60eiWypRVGiRImkSIrFKrL23O8SEefzwzkRN+7Nm1lLVlFF6fyIZC51b2w34pz/+VYSFaxr45xhIy9YVyFJE66NHW99vMO/+9kVVvuwupjwzMklXnzoCKcX4YjAmYUFVtv4snVye6PTdOzlwcXPIofnE7RQGoRWGE+m1rZIbSXzk+PkXyZfSfjD7O2wx14SypYYqQTqRPpU75juFj6xxPlq15NhX6ZWPwezZwVb/5ohLGE0Q9SXQnAhoLoeKGXmbca3rfNCswOS0kySlFqBTtuMmvjBYWJfq/Lkplyd/oX+L02R3vCoTMLwq+iV6WFdg/j0k8xEHO5nc6u+T9uwvLU4KyApM6Dw6jBNccCblxKuFkfZSvoUxiJlcLcwey/5ONrF7CaPnz3FQq8NKCWlD5CW6b1WCEpqlJPLQs8qifOu8UlIxeTGk+pimYT1nRbf/rvLYBZx+J7ZkxJt0/vpFCOOtnd59NQxvAOxSp3aiwtbMFiqepQiFiHn+NEOCwmMR2PGWmKTDpQTsQW+9/XYFXy4MeZyOWSUdNBQQHdizVZ8TVV65COKAAAgAElEQVRLbiAVISt3OdMWTi4szVh/m5/e7Llp/Zcl4Km1hO9ZxxhhOC6x1kx6okMtbI2zSEiiyYc5WecoP98Y88/+8iL/30+3WVtdYW11jU47xGFOStSxswOXL+9w7fo1Lm2M+eWWMOqtsSMZu7asD0vAdxeZuSGrs79n1A/QwYKyeVyVG75Rme/wFiydfNvv/c5p4/yrkvUCasEk3qvjSlaN4T9/+TjJTsJ33h9xvUywZUGrHLFr25TGznhMqoYD1osJ14HsBH/1swGPH+tx7DlYElgQRYodqu4CSlYfTdWxxZ+AUsuBYBGd+6HJnUuEOgaQ+ZvU+v9V6Eb12Sp1DHvVNWj6YCZzllCHUE2P1pN9HDRGHswt7o5gMPBVTiZnc/AWQza4A3UOaw3Pd+Afv9Rn9/ov+PFGm/X0OAO6SCg8pXoE1CCaAImvhxxitDXUL20eceUddCKUJoFWhjUZJUKhiun22DJDdtyIC+sjfn7tKt968wqr7ZQT/RYPH1vi4RMdTi0ZHjpmWGj50KEFIGOMZUymNlgNmiOivwJ3f72nzyOyP/ddUFaDpdT/p2Etma58Py+OQLid+JvZHc5uZ3or81e6ApJSOVsmpbYOdwuptqkKdlcx3BYf5Kz7mCfUTkS0Wl/+xEjt/ESnHoOmhGsOcTKxRtLcjRz8VOz5DCQ8oJa6vLVM1nqT7/Ov+uSkqAfXWVkn+F7hZgSQQVJSJo5dDB8Ar38o3LBnGSf+jemMeK1+qrIUj/c3OX/sVH3vORIGSeLDG+bUfTTih9NjC7CUQMsJhRjKSslMnYmAC6V00qOMghto8q9eKczWROyOr3Om41gL8ZNWC3xBjVlpPRHKgsVWA6FJEEpOHGtzvKdsjDYZlSWldLw1Xqve2JAYb/beIUFk0T9XOjnC6lYx6nxtQmNwFHSTAY8vFqyZpZmFx+QY5z87oM6HVbxwusO/Tq5x3RXQyWBU1qIjdO5E1Zes0SDaTZKxnTuGyTk23Ql+caHAXihI7Q7GJKAGdRbnQiU7FQrXo6Trp/0W4CRkjyvGFX5irJ7eOZbgez8xSLBSHrD1xqKkFh4NYdOc8urjPkgd7j0C/5Z6MTjnECoLpeI/NBTjwjgsKST+mqXAb3Vg95lVPrqyxfCmUJQ5/XKL3FgKkno7E1HpxX9S+p+dPcI1hf/7tU2eOLnIiyuQyJCubuKfgnb43nhWwvlO3WdB28nsozjn/G+H+pLOubaTS66+qHuYT0QbtoZ99jUbejS73ervB4nJ2xE4t14QaS0qmXwL4/e8CQeo2rBqCD8qC/pc4vfOrcDXzvM/fu86f33hGnTOgRThmexPdiXh/KWK1Q5JkHV5rxDlHlzVzvgRvKQME55Qivj5zvjZbyg9th1c3IYfr5ekF4Z0UuVEb8zDS7s89/gxnjqV8LmT0MPQcmNWSoskWa0DJuPXgVfrjoiicn8+EQvlHqHxAAeg3utjq2pMHWobUFtZ/LeD1lqV7DS1tr6T/R98vPWo0RjUpsVQ9b22vNzWrsWXeUkBtiF17IjlI8b8+zd2uXRdkHQBqa0rijMzyRYKVR3S1X7K2RXvpknFXwsv0gwyV1AaSufoG8O5lR6dS2OGNqXEIjpmVg3PTPu3hc03ePTEKXq2ip/0caxmH31f5XhPlkEWg3B0CU4eUS7cHLODdxv7+nDga89VssRn/E/qaIYjbsRK1BOmgMt3aZshj55YDXGnt+8qFhxZcHU9elx48lSPt966TKt9IpTeqioUhElZBJ9cBuALH9c2M0m8mNeE3KlvKKCKlupLZ2FC3Ke/eFU9xPrj+ZUNLbcXHtOsrPBJu3JVtbZQ+p2HQPMQftCs02QU+sDTq/BHLy3w0V9e4ob22LQr5JJNb5eGyGmI2UrYXrw25l98e4vFry2QrSQcJ6WVL4BLcaFLCjTuU50cSlN0f7J4FXu4kfvTQbXQq8c3BSeWXbvIFn0Wz8HahS4rm9tcHrswBUhdwq/ahv/8TRCLhGeyuVQKslKrBXdzETbB54kJaSmkpQ/nKSRhV3OujQZsFQmXPhZefeMtzh9LefbhJX7rxTWeO72CKaGjSiaC0QKfiUGYt2atlpF7zQPRevHXnYMq498JBxsrpPGqGZvaHe7noNcfNMAqDhda3aGVS78arSauqekjDUO3FlgzwlEylJQtFnhvy/HKW1cY2pOgvk2g4IO7S5GJezlMOEYVUcf5VR+z1XGQ2jCA1SvWybk1hbMpHX0Djx7t0S1usmWXKMT4+Ratl/nz7Q8zJzaHrmzz5Mk+C3hrLGpQ40Jxnb1URbKcc2ExIYiBfgIPrcDrb29hix7OmTBw14WEwjWdDvOY93PTjtrSEe1ymyeO90IG+vQChca79py2KomOabmMBQO/9fQq33/vIjduFJj+2RDiMb1/UZkOKQjHXIrgsF5k6CTAQm1o+1ZZOgi6tHFws5a5phjZr2h5LYLuKfs87/O+365iqRZMInsSYm7/mAStLEaVFanhSp4+FMU4ZVkMXzkHr6wJ378y5LL00IY1ywUTlQQRiFZhRtRG4Z2yw1//7BrHzxjMZ3vIwiJrpkUyBuzeBd7UOVfPOHf7Mc36Qm7vHdWdVoU8CSY8Y/M+MGHWAn5fuZWJUv3/vJFydtk/nyo3oQppLUTYkiWuAH/3Abz+5gUG4w4iWRivzdRxVIs5JTRPC9ubJDWFGSCU9FM03DP+Ia7G58lXlWthcWIpRCmTFmIThg6MHiF1R7kwGHLxR9f54aWSp06k/KPnV3n0hLDagiOS+LFMc6qaJJH7SxSUnyJuLSYrPrl19cSpEMSkTnr/iko9yUzHic5KFMWhFJSMSdjULlcFXn1nyA9+OWRkLKZUUucHoNxCbus31z+IKpk1PPfoCRYc9MyYxCmuzsTZOy05p+AcxkHHOR5bS1lNxlwtx5BmOOe8mKt8O7P2ydsao5RHTnT53HlLt9Z9gvM2UJqr5rrWaiUp/eF5gWWELvD8w4a/+UHJtd2CwhmwJSoFaKMjRlNoTR3LZF+u7q4Ebcl5aLXL42uZd0JWlt+mm0zmCRl/bRLGiPOD/zNn4PkzHTbGJR9rgZO0LoQ9oyFr28V+sXDVNVbVerZTlSn5PGuBnbICMu9Tn2ay3/v/HN3xlNZ4gwk2dlP1mjzE3v295YI0n5RJqx5UDUJzJYOWgf/qH57kv/3TC1zZLTGS1KJBlbqYv1aldarFXtjkrrQZmTX+/LWPkOwYq59foAusdnxr0FsteA8nA+YJytvYYn09QjcpdfsfZ60nm9d3/6M5rKy5rTAsryarb+GjqAKUpt8vwVviCDVg1ZeVuwH84DL8r391kY82RtiFI5giR9XWI1f1PNdZ/hJGmOr+mFn0z84Dk/hmCUKzOlbju/OYFFUYV7d8AUPnE/MykzLQFJu0Wd8Y8cv1dd7+8E2+9JnT/P6Lizy5CEdNQlbHq89et7tfpkTmE+2/v3ZMC5T7v7dJok81aFGLr9vHYSm0y1gXubljefUN+NbfrXN1Z4WSFEF80Hdzu5U1SiYulTOnj/DEWeiLkonv9zxVt7N+b2XeCmdgDC1GrPXgzGqPYjygdN6CM7dG8B3y9KMnOddtZHdP20r3vN6nQcnUIOxri8LT5+DRk6v0TIINWdTOlKE0h7nFV6NDi04+OSkGfPHZJ1kVvDhU5rga5w/A3nKmpPio0FM9+PoXHueR1R51rQTd3ynsxFB1+m1+lWIpxFIYQ2EmP5dm8vE5mbQxdIecG0QndQtMbQe9zcaIWrnTDnZ9V0K3uib7TWl7LKfStBnf/TQooUFDaRIfq7aP6dZh2DaGQqBXKs8uwR++fJaTrRG2HPpjrNSEaXTCobLoT7Y1TiyDTpePimN8+ye7vPkR7FRVF+aItEmtWjvxPhzmvOs3NSOv3b4bU3wZOrS84xAKY0LXl2Z+5z1AQpaPmDvf6C2HL6mvCOGykytcGsK/fe0aHw0SxqbNzfUtXFHiw3HE5wAQ6hc7/5WokmlJ5goyN6ZdDmm5IZmOSHSM1QIT+nsL5dz7T0UojTBODMMURr78MuDL4LUcZM6PpSpKYUpGRllP+vxgcIx//upH/A//8kNe+xiuKoykRR08VFvkzbxZIXJIooUyctvMe/xKLRhJysVc+OA6DEqLUegkkIWwrCSBJAywaQppCMGqQ6ZEKFzCxhasD+AnH8BffOcXvLVukd5xjJrp0krBXWIcOAOlzdFyzKLd4cuPLnC8Ay3JQf2s5QVPNZU0LWICOEpjUIXUDTne7vD00TGvXLyOKXyBXieg4oKb3Q+9lbtGpmYNQZ1FsIgMSZMxxXiT5aU2Tx3v0/dnW9e1qjLvm1e3mjybE4CG4xW8YDtj4MuPLfHxzau8sbXJbtLGFbY2F8yv7Tf9FwUKFRJRsvEGp/rCYydaQBEm7knc48T80GTiGGwuYhIHPat86WHh8ueO8cGr17iWj8ixjDSlNBnOZv4SOB+mUJUkEfFORSd4kVLto16jSO1Xq93eQSNoWWBMGerKakjK8QLUie9ElYR6eoX4iYiQjQpgJEcaNSZ8sYiq1FgjDnQO3t1X1v2NVe380uMCahyp2yJxW2QKVjtzP6OpD2v2TxrKU7VSikIYO6U0ggsVLqjqwzbe41RxkuBsxhgfWTYybTJM3epyamcy6dctUjDaSvj9zwiXryv/2xvXuDxaITftuvya1dD+Nqz4pLEdMSVqld2kx9sbY/6X79zg+O+s0LJw1MxJFAmidyTCGBgY74KVKnt4tqhoCKlQ1dDKUkMPcp0WLHXmyP7yyuHvDzEO1V1UdijFxweLNkNmmia4NLQbHSEmJZ+z9aYY3u/Tbv595gwpjPOVcTXBOIOUYTFlCv8gTW1IwaWY0mBcwyPBAEN38mzPQY3f7u4IXn0H/t2PPuKGnCZr97EyRoxvnOA/h9AYBIEckmSE0ZusdJRT/T5sDxgMdtjVgi1RStfF0aaQlEISClLKkDGP+rhJ46xPepTqOZ2+OP6c/e8uDCIqgkqCI6UYg3Ra/M0HF8m+e4nxV07xwnE4BWRq8LV/pd5WlJT3ligoI3fEjNGEQh2XC/ifXyv5i9c+4nqekbox/VaHVpIilGSpJUsNgqOVJXTaKUYUa7xlC6uMyg5XbsLV9ZJBDlvjM2jXesdK6adnV43KGjo1OBhZIBmRD7c41d/mS6t9Vk2ftCoaHqYAW8fuNPKXJVSbE0Op0Codx9tDvvaU5dX3N3lzK2VgzjEWR26V0ri6bp5xPumnWY/PkaBlx9dcM46uWydNr/L1lz7HS+cyn+tviloFGd1rofGW2CB1a9OkBleS0CVnUYU/eCLjF+9vc2Fjg7E+Slm0Qjya76wsxnjBOzO11SEKTlE14JTe4CovPLHAuWXwha3mmFdEqDsF1J9+dXwG1DeTtAqLpdBX+I9fbrHTO83/9d23+WjbIdlRNpzxgstZUnxRrbb6QzcChSi5QI6ri3B7nRysf14rUuKtkl6wgFhDMbzBiWM9Hj3X58OLYy5e22SUZGiSAA7JFeuUPCGYVUJPalcwGO/iyhJ1frtWNZxvWQuWvZSABQPO5DhxKMn+lg8DJNewxU3a+SYd7ZC6pX22vT8CkFiKxDEM18trXvHHpK7Z7hzwC6JCEsqkyxAvKAeSUNiEhXLItMXcbypTv/jJTcJCp6Svyn/6+Dpvv7PJ324kXBeDydqoQKaCSoGTgllaDEDHDFnjuunzypUdzr85ZOH5Nisth7HThdzU264YATvAZgZj48vLqfhWkdNXIyw8BFRDqIi4ICrdzGvD6/f5iEpgCEhagm6AuQnWZ6PruNUIBZls0zgvhpACsS12ByCd6gOY12lqf+Yt3RyQJwU5DsGQFCC5f0QHqaKS791O2SIpfBys32aOYxMlRUj3vj585QJj4JdXd/jfv/0xg+6jlHmLkVMkSRrLXoeaPBh6U9wYkJtYfYe//9JTfOOxBfrXF9jccrw7uMFPRxu894ttNgcFN4fChnbQpI+kPiYTB6YQbGGxIWHPmZLSjMkN5GpxxtZCs5haFAQZo4JJYUstg/Yx/vUHVzA/ucnC2jLLBrLaVOvv61L8YxNF5b0jCsrIoXCSsDOG7//op1xZTxkkR0hdycaowGH9AO+KMMn51ogmWNGsCFYEMYbS7VK4VrAGqs/6Nl4tiFh8EWwz0TDqYzRTV+LKAcfSHT57ZoGnz/XJDGH5amq3duVE82PKZHifZCcqgsUay+OPHOXzjw+48PoGG8ZRGuutDhKaTaoXZKI6ZRwQEUaZt9Z0iw3Whpf52jNr/MNzGY90fNF4Y0J9OAFTKeR5Vqhgwaz+uaorqgouH3NsKeH3Xn6Sj4pLvPbxZa6bRQYurXuJGycYs1cIVRO3FdD8Jkt2l4fXhC89c5LjGbTROR24OcBSSbiOif+8wtxuBNoGvvk5WFl8iD/71mv8+PJ18uwoo84ahWuRF0JRwCDUFRU1iPFmbe9CDbUzqf699JpMHYk6b7Eal+hwl/O9Gzz3SJff+fIxeifhn/3zD7jmFimcY+S8yEkdpCWkJrQRzB1aFJg0ZaG1TFc2aIuvAevvm6qZ6/wpx0f9KioJBkfi/Dk4ZU4tgeASzJfoFwXdMidLDYm6fe1F+7koRX3XJTfYxow7ZGlCrhZ1OaIGW7ZDkf/mvrfoyk0WtKTFCd+iltliavuTJgkKnDl9mq+9uML6D2/ywysfk7dOM7YpY+ObY84ryyW0UO1CkUCZsDka8v2fXOfZ3grPPlnSMq25u7d4i/yCgwW3Qb9wDLXPyEwLIr/2KREpMBSkmmN0TKpgwhRXjQITyTY/Hc7gCxl13ZjOOGdxYBmaFiVtDGm90DLB9ezFnncRt5yvKpE5aDOC+iofHh9v6DDBglgNhUmRTLKqq9eWSjsf0hdHt0hoFZCQIiwjZHO3b0LMdo7lhsL33rvGpRvbjHt+gHMKhIYkVRtK0VDLSSA10HYjPntumT956SingdNLcHnD8FTnKF/NjmJegps34dKW8v13b/CjDy7x/vVdxu0WrtWFpMfYtBlph0KEUuwk/l2qg6jcFdOW7eAbQNSFMJgEl/R45cdv8/yZl3jqcUNPIAktGyL3hygoI4ciV4OzMCZlpAm7pSF1xvdzlRZiDCadxAJW2aVOfWxdagxGElCLkao/S44yQCnR2lJmJnFlUtXDFJIyJ9MdnjqufPWZY6wa30kh2BGpXNsyGXKqjUwslcFuqXjXd9fAP/7GWUbt4/z5T3bYGIwxmlBKl0IN6oQEg1WZxHQKQbQOaes6a3aDLx7v8M1H1ngpg67Wu/KC+TZsFk0riBdVijpH6Rwthb/3ENA5Rfpv3ud7773P9dZpxpqGkiuCUTtjAdUpy+OCXuZ8e8RXnjjL08fhCNClql0677hksp09f5fpl+AHl6MM+d3zbU7/8cv82b9/i9cubPLh1iYjs0rhOhhJMWkLkhQtLWMLzhhcI3bR19bEt/rMx9hyRNs4MinptUY89dAC/9FLT/LcGVjqwsUCnuoLl64Wfg4KGidzQuqETmGCq80gaeKttdu79HrqM/AN4TolYNJGNvo0vu9xSdfAUpKz6DZh7CDpMDCtPa+3TshKQ6e0ZM6SiMXYZO70tp+YrEox9jJDVu6SFg6btjBlcGm6DFta7IyFOSsHLNsbrJmEngvhKBA6g8nUPgX2WDhF/GXpthK+/sICV7YHXLn5AeuasuMWULGI5ojOCkpBNcVhfV3d0he1v3St4Ds/eJs/Or1Gmqa+8UBj/77MtsNQsEjCmt1mqRwyYNV3ympeE3EgI0TGWApScsb5Fq2sRdsewZgQF4nxBdKnrvL85y8z0BVDt3BkEpIGzaQ7SxXqosGanbBL122wmjn6CmkxwhnBmXsjKDNraaUG0SG+R0MIt1HD7CU3ZcFCfoNFCpZ0kb52vUeHbggb0bo8XDU+GAoEZYzlgw149d110sVjjEZuKnBdZFLb1bqqY5dP0Tm/3OGPf/s8jwBJWTIew1rX0k988fGFHtgujIzw20+u8vHWKlsl/ODCgNd/eZELH99kxy2wXXTYzhO26TCyHb8IV98Y2bkwdppmomUVk1z5nwxOUm5sjRmr4//57uv89qkXWOjDETFQjMOtnYTv+9TnjNwxUVBG7hrFR9zt5LBbWArbJjdtEEshHaCNGih9YTG8f6SaLhwOR4F3KUoQZ0aq1XgQfBrklDZES/jJWDDDEcvJLl9+bIm/d95yDKhqTWrjOKv4qXkDhw3v0SBALbAM/KMvZnSXM378s8u89f5FxrrIbmEZuQRJOohNUBHG4zHtdpt223Ii2+CpYy2++vBn+N0T8GQGR9wYiow8CRM181pnTqgGba26cgRMaL1hEt/RxFj48nE4+Q8e4t++scW/+qjP+5c32dnZodPtIlJ4sYSvP6jOUZQlaZrSbrf42pNrfPXxLs+c6XEi84Ky5xx1GY865mzq6JhEeTaPee+9YXGsMWCXgk6nz9rXn+BnV8f84O3LvP7OmOubQ9Y3Nynp47TDKDcMugmunVLHvql3TQklqRZkZsBK2/HU2TUeOZXwyCq8/BA8Z0s6jCGHftHhaw89yqXRkA8HA67tblOWBRmGRITMGZwRCoXRYMTRlVVOHV3jtz+zSkcm1xlJGBofXjFPFiQ4EgpOtlJ+9+lTbP5klysfvEvaPcFVVve83jjfm7xjSzIVHvvMExw/512MHW6VSlddD0diLY+dsbz01Dl+8uZVdosdjFNUhljNSURJqtI+gT4Dnj/V4g+eP8uSQttt43wJa6ZcwI11wWwrRMKrz7fhT756jKXlNv/ie+9wZXANVctIuuTShua71MewlmJoI5jMoGJopSuUSUG3092baKLqvRcMgQHHbYfff/YcV66+T3FjwE5TrIeYSrEFaA5uCPmAUnZ48uQazzy2QmKru9bUnoqph2/mWXTA2fMrvPTi8/ztu9sUhaN0Y0ZaTgRlVU5ISjS/SFpucnqxwx9+8SlOtYFxgcmYV2Zxz0e65yLPYICHzqzx8otr/Msf3aDVMti0DFboLmCmnj9TFpzobnCiXfKFR85yfhlaBRixYTG7dwkj4pNkClq8dy3nra0243QBN6IhwiceChMEZW4dpYxx5ZBjrYIXjkOHgh4D0qAurLO0je+mIwgLpbLich7tFqAlX3m+y/XnH+PyJly8UfDBlSE/f/cKP7y2wS+GHcZOcSalUEMhllJSysaFFfFhB1IdmDEgKfTXcM7w1tVL/PhSwcknEtqAlQKRgtBigpibfO8QPWzV7chvLArcUPjRNvw3f/pLfrrTZdcsYF0OLqHKrKsLTzeLyjUc0FjvkobCd62pPFKhcHftqppy4xmMMXRH63zxbMF/8Qc9Xl4VTqiiKrU4FCYNJ6fbaE6sMlJH5fk+7znGx5gB68DWAC5egUvXlRubjvWdHdr9vB6YRYSlI0ssHUlY7MCTx6ELrJSw6HzsjibeVWVDJBTVeVY+7XnXd+bRlLr/oEPVUJqUXITdAtYdXDTw4VW4fh021ne87aAsKYuSsixx6lhYWGBxscvyCjy8BmupL2Ddp6RPiSkUxLvq9mSp1vpyxnzV+Hya90YpkFPgHZGGPFzTjQLfAePakAsfb/HBx0NubCvXN3NujIeMZhIvBFjrtHjk2DJPnFrhsWOWh1ZgrVVNB8oiA1KczyawS9xwlvdG8NEYbo79djrOu71H1gf2O4WiKOh2ExZ78FgKpzLouHAviGVXvNs1nTNMSjH0IiZp8ZOdlDfHhqzYIjVddod2T2UfJ77cVaY51hUsH+3wWAtOyzpIn4PX96GEVKgjecNY3t6ES5d93Juz/h6zEhytMtHkABhYWISn+3CcktStAy1K0qq/DVQNAKr128wnDOCcIx/foGz3+UjbvP1xwbAUrBaoS31c7tRRTzLxFX/N8xxWFuFUCz7bzckSMzWlVz2vrGwA2+R0uKYr/PQS7IQY16nrCpQlWAOt1CeGaVGwsJBwdhGW7EQ6WIpQr9bbZzU8f/XQoDnObXKpXOa9HcOFHch8AyGKUV0hiaaX2SawsX6TcyeXOd+B8xkkO+vQ6lCGDESZjGLTF2fORd77dI3JR1f5Iaf54XXotXz4hJTUtemnNuugZyCzsNCFZxdgwe0Gb43vcD8bDiMyBsZ8OMz4n14f8E//Zp1R9wRbuwrNsIHKoqmOFMco8RGvvY0t/rMvrfJffz3jqCtJdOTHX6/ywjg+EW91O00cI2t9kwegcFDksL0FFxy8cgm+9Xfv8O71Idddl13pkyc9CpPVVmIRXwHE1w0tyU0aROUYq+ssFx/zx493+C+/8TgPp5DpNgaHkwSjKSLN2NCDOdinFIkWysihEAhtyYRSUjAtylCewzhTdz0wYXarS9YAdYxcGFi8q9bbttBKkIZsXhwiztfiE4VyTNfByc6Q33ryBJ9dhQU2YTSEpBdcIo1iI9JcXzePv1n2SOqpNUFpU7DMmLLT4fHzBj0vFFhyXaTquFg5ZtXrYjpMmsklAibxUlWg3s/dj0hBJagfxBPnSIylk1iWMRwDPn8Stk9Anvcm75LJ9yo0UcXX4LTlmLZVbyHTyWdST24zhpz5v80/IZ+5nZDiuwN1URZwnPBBinz2VMb2qTWGwEhhWPpkETcjaESgL5VLHnpAiwLcFiAMJasuCxiDmAErrT5pucuTS91arFSiYkzjcyPxCT5BWvkB0cfXTRVNn3t+1hdSNI6H+sqSQIsMGGLy3h6rbWEcI+PdskmI5lpgF1OOwHQPLDNTOWeNnzZZKnf5wmJCuZj5axZeZ5jERjY3NwJ28a7HhJDRIfX0PnWtD8KI0MsshdvlmLEsn0yDe3pSeaF5zFVpJ792UhIavao0XMP61dRHI1V4hiSkKEcFvngaSp1zt8nExlTkjtQoPZvU511FMfjtNh6GeR+qlhg34nQ2YDXr8dnlqscNL2YAABLgSURBVIngGOOyiSG3ej7U/5ucXMbin/9EAZs2xjfmPyLzBqTGP01+zsnsgEeLDU6cOlJ/ttXnPFuoygF5OJZdoKU5SOFfLfu5d32prt1BzrWtMTu08SPh3iQr8GOlw+CkxOBY6Lc4sZqRhGRFwdZJhSbYhv3pKlWFBhVBjCWTRhmt0oe3HF+FkwInluAr5x/ju+8M+NbbH/G9CzfYdEIprVmjeuO36i8pJT2GcoQ33r3A1uhxXOr3q3rAxY/cNVFQRu4aAdqa09IUQ0EpoU6Q9b1UQ4lEP8iUftAoBXJbzTwh1cQJQoYhCwJV6mK7pQS3kXhbYycBHQ9oyy6PpDf4gxfO8ZXHvdDIyMAMEDHByjZ7vLJnDK9WplpPrYqlDAOgperD3q5jMGmMYDNBZsxMBM2imfUKuprU9rdMTja59wWq4pOUpIoPrYSG0gsb7AjsE3s/vS0jePubP0AXMu5Fq6Ff9jnMfQ58RnxWCQ7hwMM5TQREitCH+prqLUYjaXz57OojgE8zUFGf9NSe9Lrv9bthT9PvnYpurCd7O/nR2OrOpFu9b57SyiqXsaGDoVUfTQvZm0jrY3Rpz4iFDmpayIyLeu+5T87LiMGaDs0c/r339DQpXoh78dGCkNgilT0sBE3KVB++6f37HwRkiQRYauxfSCYq54CzmNqy0Oi6MxtCIXj520fROr3llg1p0mnLW8akKoC/q2Xy3cyRVtKG5DiCoU3zXsnmJ/uL/7emUxgBzTLU+HapBx7znH/b+6cuJA+xkiQszX/LviwAfnHU8+NfdYDM3tMGpQOSMxyVqEkpisK/dBJmW6MiFGJAHA7Fmok+NgpJKPUmoWSXILjZwFzwY78IphrLkipEyYuT84nyeB+e+0KHlx5d4L/7s5/xoxuQl0tTJYX8lkNMaL0bAe0xVmHIto93JYQtSIIhaYxHd73KjzSIgjJy1yiQSxrKrORkOg7rWaWqtYib9Kx2VCIxzDzSeO6pqg6qj+fRyvVm6yQJU4zJ8i1a43VWZJv/5MsP8zvPLnC0DZ1Ko5puLSYnk+CtzmLy2r2r3onkpI6g2n87+zGp+zy/I8ztInUMqt/W5Hh0qoTR7RA669bbqr5PRG/1uulX3PaxNn+eE4t5uCG8tmNNtiaTT7PJrAVnz2WqDMeV1akhW2Wft0xeN7EFzlr75h/x3r+qzM2r3/vKOm5v9u689Wezx4ojlknmjVIF9U70xkF3+nQpnDul+Z7685uruhrHdIh9VRG/9dZm7u+9B2cbe7/9/Uxh7G2o39tF8PGHd5cz7gVU456ec1gl3uIoNgPxLvGyyIF07kXwoQxhuzpZ7FQ7qNru1v+FOqL7HF2dIFQlC/nPyHukrPpo30dW1vjm76/x7l+8x/owJH2HcbXyklW+pkmTcVC1tDo9hrvQ6lVbDVVAuLv7KjKfKCgjh8LhY3Y6bpu+sxRlQiEpTvLwrwlGstBCy87pZhJcuBI6qjDpk1GNUaVaUjdi0W3S3/mQZ88c4U++/hLfOOeTZwBKNwrzYMuL0GqkCTSFQVMqzf/79HvmsZ902+89927Quttp/Ha3ffsi5fa3+OnhVsuGae787A57PW7VpvAON9b8ZeohuEOj2t0fwj3c1kE0l2CfxD5l39qlnzy3c8/4CPbghhYTWm/OsSgGtBKTYdSWIHUTA1LKxDIZvgDfRajqLV57LA6+0yofjEEYMmJ5uUWSpjCgrmI2vUBpeKEah97KWgx2vTDNg6D0jUz323PkboiCMnIoEnxyxH/wwjnKH3zAL7d3WM9TOr0FkJTBcEjhOr6+oDWoUdSWIGWwHviJzOUOX65SofQOx3a7RactbFz/OQ+vpjxxKuN3nn6RZ89YHl6CJTfER0kZrBicGkozbdWomLiGYbYO2f52vfnTT7WtvfGYftsHD0azg9idCsT9B/n9uXMRGgfUe8/9XArcE25DTH4aqZ7VvXbn+7/fTwvOKc6AGOj2eqRZwWgk+7aMl4beFGcoCx8Z257z2mZ5onkCck9zh6qkkf8FUCyWBRLGIcGOeeEKB1CWBePxeFIbGajbbO3Dp+nze1CIgjJy96jSdkNOtRL+6IU1PvPwGj+6lPPmpS0+unqRrd0ddkpDLovkssDOQMldgVhH5Ww1CEYMRgRrDTbxgiu1Ke12zpFszBeeWObxE32eOtvl7CIsJD7g3JFgQjC577vrV83zxN695KDtx0HoU8Bcn+uv4kAeBO6lPfrB5YEX879ixPnEaB+pdCdXyi+6y1K5ePFjdp4/QT+EFBzamt7IJnQ+LYrhSBgXuQ/LmQ5RD0ejEw9DY6AeDkd0Om3yclB3EYsP/70nCsrIXaPqSHVMagsWWykrx+Hh1ZSvPbfC5mCF3VHB1tCwNTbc2IHL1wu2tnYoynEdY+PrTipZkrC6uuyjhSycOQXtNqwk8FQGSy2wTmlRYpwv2JObtM7WNVJJy4mbBOYNFfOl4GFjwab/+qBlD9767H6jh9T7fPIP/rV98I/wsPz6n+HhMM5A4StTpJRkpcNoitNbRG2GIPiRc7z90TqXdk6w2BccFotitKrVoTOj4q3GSK3DFDDCEMsGsD2E4XgSez+9NZ2M+o1/sxSMh7u0OzB2QsuaeoExE/QROSRRUEbuGmMsvn6eHy76KrRDazDXBboJpfrg6VLBuQSRI9jQpa9i3oNc/c2or+Poe9JW8TdhwFBXr4Kr2LfKITxfVM53F9+NC/rWjpKDBszD2Euq997K9X0P3dyf8oX8/NCEvb/cj2XAgZ/CrVKzI5FPiMQIzkEvK3l4KeOZxT7ffmcbu5ChybzSQT7W3ZdNMmxlCa/snuCf/FXJP/lDywLQUccR37aAtmoY9AXUMj1+zZF2EiIcxwU3jOEmltduwv/73V1ubHVw/YlArbv3EMb9SXYdqRvSKzdY7Am9ZTCmHSL7i/D66X3/uo6BnxRRUEYOh0wyIhN1WNX5M7MwSVG8y1aqdcLExBPCZG06m0wxP6PwN4c48jVpzgcH3QW/SXdIJFIj3uXdNcpTpzKWfrDJctuy4dxtPBOCSxLWS8ur723x3/+r63zjxYf5zAnrYxZLRV0OYtEQ3rRffdvq51JhMAZpWS4Dr1yGP/32DV6/UJIsHid3Rf1ilUm5ouYTLFrSdgN65RZPnjlKKr4+ZxpScm4V7R65c6KgjNwzmjEzn2QDpmmRINQdbD6xI/gNYV4q/KeMKBgjkTkEQ10X4fQROLtcYt67xsLCeTbm1zb3b6tK96hFxLCbC//mjZu8f2mT8z3D1z9zludPr3BuMfNF6WWq3cTU7qvvCgwcvL8NP30H/vbtj3njypB3tzIG7WPkVV3MmRhNL1LDFlRIyhHtcpduuc1nzz9CNxxrQolBUQ5OyoncOVFQRu4L97S8yZ6Nh+8N70ZzQJrndL7ro7nT7JtfA9EF7H/e0fVzOG51XSFe28gnjjPex2OcsprAl55Z5q/fvcIH45uIXZ7TBpZJIKNOajqqzRiY07yzscOVmwPe/eXbLBYj2q7g7IvPUqYZ1mSIEUxIjnGlq1uKCsLm5gY3b95gcyzcHBq28hY7ssCu6eLSUPm82X+zdnFLXe7IUNDWHRZlh7N9x9MnUxbVN+IwoWuQQw6WlLdycsXndA9RUEY+NdQL0Ob3ea/5VfPrIioP4jfhHCOR3xBc6CdknGHRwDPn4LmnjvHhj7eYVPudZm/koXeP59IFk4EcIQduik+ofP3NAYXZRbAYa7DGN7dwzqHBtV4WBXleUKrFphkm7eDSJUrJsAJFMcAPPntbgQVJHMKvCjqMWUrGfOXZRznZg55AW6pGpTZ6K+4DUVBG7hn31SrJdGbfwXt6EDOtf82IYjIS+bVBGw0qXT7iiE350nPL/Hwj5bVLxSSISCadoSYFeqreUiWow2Eo6bBjMnZMQlUj3RhFGPhaw75BOqqKcw7nfESjGEFavq2smNLPKWWGlCDiaGVDCgyFtpkUyZR6uNdQ7SNxBYup41Q/5eWnV1hpQVfycI6R+0UUlJF7Sp11fQ9jKPfL0p31PvivKhf8gMK3B1rXZP9fb+eUpsyot7mPu+Lw2zgwA/lTIhgPky//K+FTdbCR3xQMBiUBY7AYjgLfWILkxS7/dPNtLt/M2Rx3kO5pcto4A9ghVh2pU9JSSZ13f2+mltJYqu45VddHhyB0fPZMlbypYEQREwrAKbVQVOcjHUVyX89IlLGmoRMavr2l+pa7Jry1NNAXg9y4xrEj6/z9zz/Es8ehp0oiMGmVauqf9h1D4rN6x0RBGXnwkVtrudss/nDo47hPL75L4ogXiUQOj1QdvIL664nwcAe+/rhhUx7i//jL7/NePmDXHaE0bd9C1yjOTeyTPsnFUrU1rC2ZMllnV69Fm9FLzd5jQWw2EmxUCt8SEjAkoAZRRdWBSqg9DOq8uMzKdc4uO775hUd4+Ykj9IF2lT3UkJEmxu3cc0Q/yXTcSOQu2K/i4n7x0bN5I3tWoHEciUQikTnUKdQA7AAfOnj13SF//rcXeOWisJ6cYDfpgsm9uHOGpLS1JCwJpXyaeTP1/8LvGjLElYk4rMSkakgFr0yYPvsyaFisCtZ5X5SKozQlThyJU/pDw7HWZb758nH+w5cWONuCFXz8pKGc47f61Pk4HmiihTLyqWW/YcDM/L7ndXH8iEQikTlMC6y2lpyjoPtIm076GEfeuMJ33n6fq6MWA9tBpY1qC7SNknoRWW8idLUgiEuVWhjWewsqdDb+vo7PlGaPHaEUAzalKIDS0W0b8sE67bZgBld5Zinha58/y+99vsVpC4sKnQLUONSEYKj7HOv/m0y0UEYeeG7VE2aWuOaMRCKRe4DmUIzYlQ43Essl4Pvvwf/5rdf5+XXYGgqFdiFdRZM+haQUoVuaqoILlkdpLPNFMCKh/S616ASHhNhKJy54370V0gtRwYnBjUsoHUudlHLrKkm+zum1Bb7w2FF+78kOzz8EZ8MWOwWkCmpCIXSZ7TEeZ4t7SRSUkQeeKCgjkUjkk0bBlVA4sLBrDDuScBN4+0bJdy4IP3v3Ghevjbh4vWBAnzxZZGgzCiO4SlBqKBhcFw2+W0EJKkqiQxbNkOOZctyMeeHEAi89ssrnHoMjLWjjvzp56J4jBZjSWzvFRkF5H4mCMvLAEwVlJBKJfNI0sq4FnAg5woiSMZabwLURXB/BTy9s8drbH/CLKznX3JPc3FY2t7fodLt+S0FP+rFcUachmVsQsQgGY4S6t7aA2AHG7CDFGJuP6eDoJoaT3QFffDTjmUce4tSRDmdXYMFCCrTwaTcWsCWklKCF7yMuPnEoCsr7RxSUkQeeKCgjkUjkV4+XCyVIiaNkiGFAyk0sW8BHBbzyM1jfge1t+PjjTTY2N7m5sYEYEyr2CIJFEV+OslSc85mSRgxGDGIMygaLi8ojp45zcrHHqcUeT503PLQMy+UuBsGKITMWiwk55r77jc/gdljnML4IZp1hHgXl/SMKysgDTxSUkUgk8qtHVZE6I9uBEUZiuVmWqE3ZzAuSNPGhk/hxeDCArd2CwWCEwwu73d0hrlSfEa45qr4o+urSMv1OF1RptYRuB9oppEKoallgUVKY1LkMUtEgtaCUcHyiQUY2YjijoLx/REEZeeCJgjISiUQeEJSpQdmhjI3iREPRIW9tFAQXvmbf1hzTq/HaNP4uhHweB9YqiZQYchTfh9vQqgWlr27ptxaqaQZBOfl7M7c8Csr7RywbFIlEIpFI5M4IOsyo0MLhNEelrAuGa7BG6tTP4XtVpLLWcoptCE8BnPFfgsNQYMiDhGwWPw/lKueIQmH+3yP3jygoI5FIJBKJ3BYqvixQycSiWPXGMQhGDaj1X8hE04n6hJxQUkhpZH6r1D86hVKg6rxtMbSBrGwcQNiuRgPjA0UUlJFPBXcyZsTxJRKJRO4fTRe1/12CC9rLSl93cmYkDqZH0ck2mrFM1e9NjeiqLaoFycI2QjykKCLC/HAoOWAimHV5R+4VMYYyEolEIpHIbVGLyKkWtq5RBmgi0u5EXuzplrPve71dVDATC2fkgSAKykgkEolEIg8sqtoQnM3UnSgoHySiyzsSiUQikcgDy97M7Ob3yIOCufVLIpFIJBKJRB4Uoph8EImCMhKJRCKRSCRyKKKgjEQikUgkEokciigoI5FIJBKJRCKHIgrKSCQSiUQikcihiIIyEolEIpFIJHIooqCMRCKRSCQSiRyKKCgjkUgkEolEIociCspIJBKJRCKRyKGIgjISiUQikUgkciiioIxEIpFIJBKJHIooKCORSCQSiUQihyIKykgkEolEIpHIoYiCMhKJRCKRSCRyKKKgjEQikUgkEokciigoI5FIJBKJRCKHIgrKSCQSiUQikcihiIIyEolEIpFIJHIooqCMRCKRSCQSiRyKKCgjkUgkEolEIociCspIJBKJRCKRyKH4/wE3REJRdzjHSwAAAABJRU5ErkJggg==;" parent="1" vertex="1">
          <mxGeometry x="1120" y="372.5" width="165" height="55" as="geometry" />
        </mxCell>
        <mxCell id="8MNoS9xD9SRCOR3BH1ym-83" value="" style="rounded=0;whiteSpace=wrap;html=1;labelBackgroundColor=default;labelBorderColor=none;fontSize=10;dashed=1;" parent="1" vertex="1">
          <mxGeometry x="960" y="205" width="150" height="120" as="geometry" />
        </mxCell>
        <mxCell id="8MNoS9xD9SRCOR3BH1ym-84" value="" style="fontColor=#0066CC;verticalAlign=top;verticalLabelPosition=bottom;labelPosition=center;align=center;html=1;outlineConnect=0;fillColor=#CCCCCC;strokeColor=#6881B3;gradientColor=none;gradientDirection=north;strokeWidth=2;shape=mxgraph.networks.storage;labelBackgroundColor=default;labelBorderColor=none;fontSize=10;" parent="1" vertex="1">
          <mxGeometry x="765" y="620" width="100" height="100" as="geometry" />
        </mxCell>
        <mxCell id="8MNoS9xD9SRCOR3BH1ym-87" value="系统监控" style="rounded=0;whiteSpace=wrap;html=1;labelBackgroundColor=default;labelBorderColor=none;fontSize=10;fillColor=#f5f5f5;fontColor=#333333;strokeColor=#666666;" parent="1" vertex="1">
          <mxGeometry x="975" y="215" width="115" height="40" as="geometry" />
        </mxCell>
        <mxCell id="8MNoS9xD9SRCOR3BH1ym-88" value="日志查询" style="rounded=0;whiteSpace=wrap;html=1;labelBackgroundColor=default;labelBorderColor=none;fontSize=10;fillColor=#f5f5f5;fontColor=#333333;strokeColor=#666666;" parent="1" vertex="1">
          <mxGeometry x="977.5" y="275" width="115" height="40" as="geometry" />
        </mxCell>
        <mxCell id="8MNoS9xD9SRCOR3BH1ym-93" value="Postgresql" style="text;html=1;strokeColor=none;fillColor=none;align=center;verticalAlign=middle;whiteSpace=wrap;rounded=0;dashed=1;labelBackgroundColor=default;labelBorderColor=none;fontSize=10;fontStyle=1" parent="1" vertex="1">
          <mxGeometry x="785" y="740" width="60" height="30" as="geometry" />
        </mxCell>
        <mxCell id="8MNoS9xD9SRCOR3BH1ym-99" value="注册中心与配置" style="text;html=1;strokeColor=none;fillColor=none;align=center;verticalAlign=middle;whiteSpace=wrap;rounded=0;dashed=1;labelBackgroundColor=default;labelBorderColor=none;fontSize=10;fontStyle=1" parent="1" vertex="1">
          <mxGeometry x="525" y="250" width="145" height="30" as="geometry" />
        </mxCell>
        <mxCell id="8MNoS9xD9SRCOR3BH1ym-111" value="服务监控SpringBoot Admin" style="text;html=1;strokeColor=none;fillColor=none;align=center;verticalAlign=middle;whiteSpace=wrap;rounded=0;dashed=1;labelBackgroundColor=default;labelBorderColor=none;fontSize=10;fontStyle=1" parent="1" vertex="1">
          <mxGeometry x="765" y="170" width="170" height="10" as="geometry" />
        </mxCell>
        <mxCell id="8MNoS9xD9SRCOR3BH1ym-112" value="" style="image;html=1;image=img/lib/clip_art/networking/Switch_128x128.png;dashed=1;labelBackgroundColor=default;labelBorderColor=none;fontSize=10;" parent="1" vertex="1">
          <mxGeometry x="800" y="90" width="80" height="80" as="geometry" />
        </mxCell>
        <mxCell id="KwHMB4S91e8KZmNwGiGi-1" value="GetWay(网关)" style="rounded=0;whiteSpace=wrap;html=1;fillColor=#fff2cc;strokeColor=#d6b656;fontStyle=1" vertex="1" parent="1">
          <mxGeometry x="425" y="380" width="90" height="43.5" as="geometry" />
        </mxCell>
        <mxCell id="KwHMB4S91e8KZmNwGiGi-2" value="GetWay(网关)" style="rounded=0;whiteSpace=wrap;html=1;fillColor=#fff2cc;strokeColor=#d6b656;fontStyle=1" vertex="1" parent="1">
          <mxGeometry x="425" y="496.25" width="90" height="43.5" as="geometry" />
        </mxCell>
      </root>
    </mxGraphModel>
  </diagram>
</mxfile>
